<svg xmlns="http://www.w3.org/2000/svg" viewBox="0 0 547.44 201.5"><path fill="#fff" d="M0,119.72c2.91,7.13,10.85,18.1,21.69,25.76C110.44,208.23,297.36,25.65,456.17,37.2c120.16,8.74,114.43,153.05,25.06,154.6-55.67,1-69.69-46.91-50.84-76.52,13.55-21.27,39.23-24.57,53.21-16,19.65,12.12,10.44,45.38-24.42,40.45-30.46-4.3-44.68-33-42.85-64,2.87,27.83,15.68,54.44,43.74,57.11C515.71,138.24,487,80.18,450,107.34,421.88,128,422.93,185,484.05,185.92,568.46,187.25,569,47.31,456,48c-124.28.71-272.23,123.2-385,119.81C30.79,166.56,5.34,142.36,0,119.72Z"/><path fill="#fff" d="M67.9,194.94c104.71-5.08,160.45-64.58,228.76-83.49,116.2-32.15,120.11,86,47.25,90-86,4.67-140.72-171.7-223.13-166-49.23,3.41-42.36,62.93-3.56,52.48C151.91,78.56,147.52,6,88.65,8.43,2.89,12,9,127.06,86.54,123.06c118.23-6.1,253-155,401.59-102.56C353.53-1.23,265.93,92.23,146,122.83,122,129,86.66,134.23,63.11,126,7.74,106.58,3.7,18.2,69.73,2.47c66.3-15.79,89.49,48.15,64.4,78.11-13.29,15.86-40.75,15.29-48.77-3.7-7.46-17.69,3.71-42.39,34.86-46.63C223.64,16.16,282.45,222.27,362.85,191c39.46-15.35,41.52-85.39-36.19-73.17C240.41,131.4,180.35,203.19,67.9,194.94Z"/></svg>