<svg xmlns="http://www.w3.org/2000/svg" viewBox="0 0 543.27 244.84"><path fill="#2f3f3f" d="M154.35,102.27c69.09-14.88,147.13,46.17,148.2,109.32.68,39.31-40.44,38.64-54,24.13-26.31-28.25,12-134.1,110-165.89,93.61-30.38,120.78,20.92,96.57,42.64-13.06,11.72-35,11.17-52.34,10-109.41-7.25-181.54-106-287.06-112.28-133.5-7.89-144,134.25-47.65,154.51,83.35,17.53,172.89-73.25,276.16-126C552.15-67.56,610.21,158,455.93,177.69,294.77,198.24,210.38,27.34,107.87,50.63c-37.33,8.49-50.79,46.69-33,66.26,13.18,14.49,44.84,8.28,43.75-11.23-.55-9.69-6.57-13.61-14.16-17.22C132.49,77.35,142,135,96,132.86c-50.14-5.05-43.52-82,22.74-91.68,116-16.95,197.79,140,342.42,127.06,100.36-9,112.3-146.5-14.48-149.79C347,15.86,220.79,171.8,96.77,174.22-40.8,176.91-39.94-27,152.85,3c98.38,15.34,213.93,131.76,288.53,111,30.56-8.51,20.46-48.55-21.91-47.54C307,69.14,230.71,182.78,246.81,225.63c6.36,16.94,27.29,17.23,36.81,13,33.12-14.82-2.61-84.78-71.51-118.07C189,109.39,170.47,105.81,154.35,102.27Z"/></svg>