<?xml version="1.0" encoding="utf-8"?>
<!-- Generator: Adobe Illustrator 25.4.1, SVG Export Plug-In . SVG Version: 6.00 Build 0)  -->
<svg version="1.1" id="Layer_1" xmlns="http://www.w3.org/2000/svg" xmlns:xlink="http://www.w3.org/1999/xlink" x="0px" y="0px"
	 viewBox="0 0 46.7 79.3" style="enable-background:new 0 0 46.7 79.3;" xml:space="preserve">
<style type="text/css">
	.st0{fill-rule:evenodd;clip-rule:evenodd;fill:#2F3F3F;}
</style>
<path class="st0" d="M36.4,78.4v-6.5h9v6.5H36.4z M36.4,57.5h9V64h-9V57.5z M36.4,43.1h9v6.5h-9V43.1z M36.4,35
	C36.4,35,36.4,34.9,36.4,35c0-2,0.4-3.8-1.1-5.4l5.6-2.8c1.3,2.5,2,5.3,2.3,8.3h-6.8C36.4,35.1,36.4,35,36.4,35z M31.8,25l3.8-3.9
	c2,0.8,3.7,2.8,4.9,5.1l-5,2.8C34.1,27.5,33.1,26.1,31.8,25z M26.7,22.4l1.3-5.8c2.6,0.6,4.9,1.8,7,3.3l-3.8,4.7
	C30.5,23.6,28.4,22.8,26.7,22.4z M29.5,4.5L29.5,4.5c0,0,0.1,0.1,0,0.1c0,0-0.1,0-0.1,0c-0.1,0-0.2,0-0.2,0l-0.1,0l0.1,0
	c0,0,0.2,0.1,0.2,0.1c0,0-0.3,0.1-0.4,0.1c0,0-0.2,0-0.3,0c0-0.1,0-0.2,0-0.2c-0.1-0.1-0.2-0.1-0.3-0.1c0,0-0.1,0-0.1,0
	c0,0-0.1-0.1-0.1-0.1c0.1,0,0.2-0.1,0.3,0.3c0-0.4,0.1-0.5,0.1-0.5c0.1-0.1,0.1-0.1,0.1-0.4c0.1-0.4-0.5-0.7-0.6-0.7c0,0,0,0,0,0
	c0,0,0,0,0,0c0,0,0.1,0,0.1,0c0.3,0.1,0.8,1.1,1.1,0.6C29.7,4.1,29.5,4.5,29.5,4.5L29.5,4.5z M29.2,4c-0.1,0-0.1,0.1-0.1,0.1
	c0,0.1,0,0.3,0.1,0.3c0.1,0,0.1-0.3,0.1-0.3C29.3,4,29.2,4,29.2,4z M28.1,2.4c0,0.1-0.1,0.2-0.1,0.3c-0.1-0.1,0-0.2-0.2-0.3
	c-0.1,0.5-0.1-0.3-0.1-0.4c0,0,0,0,0,0c0.8,0,0.3,0,0.3,0.1c0,0,0,0,0,0C28,2.2,28,2.6,28,2.6l0,0.4L28,2.3
	C28.1,2.3,28.2,2.4,28.1,2.4z M28,2.9c-0.2-0.1-0.7-0.2-0.9-0.2c-0.1-0.1-0.4-0.4-0.6,0c-0.2-0.5-0.4-0.6,0.2-0.6
	C26,2.1,26,1.9,26.1,1.7c0.1,0,0.5,0,0.7,0c0.8,0,0.5,0,0.6,0.1c0,0,0.1,0.2,0.2,1.1C27.6,2.4,28.2,2.8,28,2.9L28,2.9z M25.7,2.7
	c-0.1,0.2-0.2-0.3-0.3-0.2c-0.1,0.1,0.4,0.4,0.3,0.4L25.6,3c-0.8,0-1-0.3-1.1-0.4c-0.1-0.1,0.3-0.1-0.8-0.5c0.4-0.1,0.7-0.6,0.9-0.7
	c0.2-0.1,0.7-0.3,0.9-0.3c0.1,0,0.1,0,0.1,0c0.1,0.3,0.1,0.2,0.1,0.2v0l0,0c0,0,0.3,0.2,0.1,0.3C25.8,1.9,25.7,2.2,25.7,2.7z
	 M23.8,1.7C23.7,1.9,23.5,2,23.5,2c-0.1,0,0-0.2-0.8-0.2c-0.3,0-0.5,0-0.5,0.1c0,0-0.1,0.1-0.1,0.2c-0.2-0.2-0.3-0.2-0.4-0.3
	c0.1,0,0.7-0.1,0.4-0.2c0.1-0.1,0.1-0.2,0.1,0.4C22.2,1.6,22,1,22.2,1c0.1,0,0.4,0.1,0.5,0.2c0.1,0.9,0.2,0.2,0.9,0.2
	c-0.4-0.3,0.1-0.3,0.4-0.3c0.2,0,0.3,0,0.3,0c0.1,0,0.1,0.4,0.1,0.6c-0.1-0.4-0.4-0.2-0.5-0.2C24,1.6,24.4,1.7,23.8,1.7z M21,1.5
	c0.1-0.1,0.2-0.1,0.4-0.1c0.1,0,0.3,0.1,0.3,0.2C21.8,2,22.5,1.3,22,1.4c-0.1,0.1-0.4,0.2-0.5,0.2C21.4,1.6,21.2,1.4,21,1.5z
	 M21.8,2.7c0,0.3,0.2,1,0.2,1c-0.2-0.5-0.7-0.8-1-0.8c-0.3-0.1-1-0.1-1-0.1s0,0-0.2-0.1c-0.1-0.1-0.6-0.1-0.6-0.8
	c-0.1,0.1,0-0.7,0-0.7S19.5,0.9,20,1c0.2,0.1,0.7,0.4,1.4,0.5c-0.3,0.1,0.8,0.7,0.8,0.7C21.8,2.9,21.7,2.4,21.8,2.7z M19.7,1.8
	c-0.1-0.1-0.1-0.1-0.2,0c0,0,0,0.1,0,0.2C19.6,2,19.7,2,19.8,2C19.8,1.9,19.8,1.9,19.7,1.8z M21.5,2.1C21.2,2,21,2,20.8,2
	c0.2,0,0.8,0.4,0.8,0.4S21.7,2.2,21.5,2.1z M18.5,3.8c0-0.8,0.1-1.3,0.2-0.7c0.1-1,0.9-1.1,0.4-1.1c0.1,0.3,0.5,0.6,0.6,0.8
	C19.3,2.9,18.7,3.2,18.5,3.8z M20.3,2.9c0.3,0,1,0,0.9,0.1c0.5,0.2,1,0.5,1.1,0.6c0.1,0.1,0.2,0.1,0.2,0.2c0,0.1,0,0.1,0,0.2
	c0,0-0.2,0.1-0.3,0.1c-0.1,0-0.2,0.1,0.2,0.1c-0.6,0.2-1.3,0.3-1.5,0.6c-0.1,0-0.8,0.1-1,0.2c-0.3,0.1-0.6,0.1-1,0.1
	c-0.4,0-0.8-0.2-0.8-0.3c0,0,0-0.1,0.1-0.1c0,0,0.1-0.1,0.1-0.1c0-0.1,0-0.1-0.2-0.1c0.3,0-0.2,0.1-0.2,0c0-0.1,0-0.1,0,0.5
	c0,0,0.4-1.2,0.7-1.4c0.3,0.6,1-0.5,1.3-0.6C20.5,2.9,20.1,2.9,20.3,2.9z M18.3,4c-0.1,0-0.1,0.1-0.1,0.1c0,0.1,0,0.4,0.1,0.4
	c0.1,0,0.1-0.4,0.1-0.4C18.4,4,18.4,4,18.3,4z M17.8,4.1c0,0-0.1,0-0.1-0.1c0-0.1,0-0.2,0-0.3c0.1-0.2,0.2-0.2,0.3-0.2
	c0.1,0,0.2,0,0.2,0c0,0,0,0,0,0c0,0.1-0.1,0.1-0.2,0.2C17.9,3.9,17.8,4,17.8,4.1z M17.8,5.9c0.1-0.3,0.3-0.5,0,0.2
	c0-0.4,0-0.7,0-0.9c0-0.1,0-0.2,0-0.2c0.2,0.1,0.4,0.4,0.6,0.4c0,0,0.1,0,0.2,0c0.3,0,0.8-0.1,1,0.1c0.2-0.3,0.6-0.4,0.9-0.5
	c-0.6,0.3-0.8,0.9-0.9,1c-0.1,0-0.8-0.1-1-0.1c-0.2,0-0.6,0.5-0.8,0.5c-0.1,0-0.1,0.1-0.1,0.1c-0.1,0.1-0.1,0.1-0.2,0.1
	c0,0,0,0,0-0.1c0-0.1,0.1-0.1,0.1,0.7C17.7,6.8,17.8,6.1,17.8,5.9z M20,22.4c-1.7,0.4-3.2,1.2-4.6,2.2l-3.8-4.7
	c2.1-1.5,4.4-2.7,7-3.3L20,22.4z M11.8,29l-5.6-2.6c1.2-2.5,2.9-4.5,5-5.3l4.5,3.9C13.6,26.1,12.6,27.5,11.8,29z M10.4,34.9
	c0,0.1,0,0.2,0,0.2H3.9c0.6-3,0.8-5.8,2.3-8.3l5.3,2.8C10.8,31.4,10.4,33,10.4,34.9z M10.3,42.9H3.8v-7.1h6.5V42.9z M10.3,49.5h-9
	v-6.5h9V49.5z M10.3,50.6v6.1H3.8v-6.1H10.3z M10.3,64h-9v-6.5h9V64z M10.3,64.7v6.5H3.8v-6.5H10.3z M10.3,78.4h-9v-6.5h9V78.4z
	 M35.3,57.8V58v3.5v0.1v16.9h-24v-17v0V58v0V35.8h24V57.8z M32.3,78.2h1.1c-0.3-0.1,0-0.2-0.8-0.4c-0.2-0.2-0.3-0.5-0.3-0.8
	c0,0,0,0,0,0V78.2z M32.3,76.5C32.3,76.5,32.3,76.5,32.3,76.5c0-0.2,0.1-0.4,0.2-0.5c0-0.3,0-0.8,0.1-1.1c0-0.1,0-0.3,0.1-0.5
	c0.1,0.5,0.1-0.5,0-0.7l-0.1-0.2l0.2,0.1c0,0,0.4,0.3,0.4,0.7c0,0.2-0.2,0.7,0.1,0.9c-0.1-0.2,0.3-0.7,0.3-1c0-0.3-0.2-0.4-0.4-0.6
	c-0.2-0.2-0.4-0.3-0.4-0.6c0-0.6,0.4-0.7,0.4-0.7l0,0l0,0c0,0,0,0.4,0.2,0.6c0.2,0.7,0.9,0.6,0.9,2c0-0.7,0-0.5-0.1-0.4
	c0.2-0.1,0.3-0.3,0.4-0.1c0.2-0.6,0.1-0.8,0.1-0.8c0,0,0,0,0,0c0-0.2-0.4-1.1-1.1-1.3c-0.1,0-0.1-0.1-0.1-0.1v-1.7
	c0,0-0.1,0.1-0.1,0.1l0,0c-0.1,0.1-0.3,0.1-0.3,0.3c0,0.1,0,0.1,0.1,0.2c0.2,0.3,0.2,0.6,0,0.8L33.1,72l0-0.1
	c-0.1-0.1,0-0.4-0.2-0.4c-0.1-0.1-0.3-0.6,0-0.8c0.3-0.1,0.3-0.2,0.4-0.3c0.1-0.1,0.3,0.2,0.3-0.2v0c0-0.1-0.2-0.1-0.3-0.2
	c-0.2-0.1-0.1-0.2-0.4-0.3c-0.2-0.3,0-0.7,0-0.8c0.2,0,0.1-0.3,0.2-0.4l0-0.1l0.1,0.1c0.2,0.2,0.2,0.5,0,0.8
	c-0.1,0.6-0.1,0.1-0.1,0.2c0,0.1,0.2,0.2,0.3,0.3l0,0c0,0,0.1,0.1,0.1,0.1v-1.8c0-0.1,0-0.1,0.1-0.1c0.7-0.3,1.1-0.1,1.1-1.3
	c0-0.9-0.7-0.7-1.2-1.5c0.9,0.3,0.6,0.7,0.6,1.1c0,0.6-0.7,2-0.9,1.2c-0.1,0.1-0.2,0.5-0.2,0.6l0,0l0,0c0,0-0.4,0-0.4,0.2
	c0-1.1,0.2-1.3,0.4-1.5c0.2-0.2,0.4-0.4,0.4-0.6c0-0.4,0.4-0.2-0.7-1c0.1,1.1,0.3,0.7,0.3,0.9c0,0.4-0.4,0.7-0.4,0.7l-0.2,0.1
	l0.1-0.2c0.1-0.2,0,0,0-0.7c0-0.2-0.1-0.3-0.1-0.5c0,0.1,0-0.8-0.1-1.1c0,0,0,0,0,0V76.5z M32.1,78.2v-1.3c0,0,0,0,0,0
	c0,0.3,0.5,0.6-0.3,0.8c-0.2,0.3-0.4,0.4-0.7,0.4H32.1z M32,66.7c-0.1,0-0.5-0.3-0.5-0.7c0-0.2,0.2,0.2,0.3-0.9
	c-0.2,0.9-0.6,0.7-0.6,1c0,0.3,0.2,0.4,0.4,0.6c0.2,0.2,0.4,0.3,0.4,1.5c0-0.2-0.4-0.2-0.4-0.2l0,0l0,0c0-0.1-0.1-0.5-0.2-0.6
	c-0.2,0.7-0.8-0.6-0.8-1.2c0-0.4,0.2-0.8,0.6-1.1c-0.5,0.8-1.1,0.6-1.1,1.5c0,1.2,0.4,1,1.4,1.3c0.5,0-0.3,0.1-0.3,0.1v1.8
	c0,0,0.1-0.1,0.1-0.1l0,0c0.1-0.1,0.3-0.1,0.3-0.3c0-0.1,0,0.4-0.1-0.2c-0.2-0.3-0.2-0.6,0-0.8l0.1-0.1l0,0.1
	c0.1,0.1,0.1,0.4,0.2,0.4c0.1,0.1,0.5,0.6,0,0.8c-0.1,0.1-0.3,0.2-0.4,0.3C31.1,70,31,70.1,31,70.2v0c0,0.4,0.2,0.1,0.3,0.2
	c0.1,0.1,0.3,0.2,0.4,0.3c0.4,0.3,0,0.7,0,0.8c0,0-0.1,0.3-0.2,0.4l0,0.1l-0.1-0.1c-0.2-0.2-0.2-0.5,0-0.8c0-0.1,0.1-0.1,0.1-0.2
	c0-0.1-0.2-0.2-0.3-0.3l0,0c0,0-0.1-0.1-0.1-0.1v1.7c0,0.1,0.6,0.1,0,0.1c-0.8,0.2-1.2,1.1-1.2,1.3c0,0,0,0,0,0c0,0,0,0.2,0.1,0.8
	c0.1-0.2,0.2,0,0.3,0.1c0-0.1-0.1-0.2-0.1,0.4c0-1.4,0.6-1.3,0.8-2c0.2-0.2,0.2-0.6,0.2-0.6l0,0l0.1,0c0,0,0.4,0,0.4,0.7
	c0,0.2-0.2,0.4-0.4,0.6c-0.2,0.2,0.3,0.4,0.3,0.6c0,0.4-0.3,0.8-0.1,1c-0.1-0.2-0.2-0.7-0.2-0.9c0-0.4,0.4-0.7,0.4-0.7l0.8-0.2
	l-0.7,0.2c-0.1,0.2,0,1.2,0,0.7c0,0.1,0.3,0.3,0.2,0.5c0.2,0.3,0.4,0.8,0.6,1.1c-0.5,0.1-0.5,0.3-0.5,0.5V64.9c0,0.2,0,0.4,0,0.6
	c0,0.1,0,0.3-0.1,0.5c0.4,0.7-0.1,0.5,0.7,0.7L32,66.8L32,66.7z M29.5,78.2h1c-0.6-0.1-1-0.7-1-1.3c0-0.6,0.5-1.1,1-1.1
	c0.5,0,0.9,0.4,0.9,0.9c0,0.4-0.3,0.8-0.7,0.8c-0.3,0-0.6-0.3-0.6-0.7c0-0.3,0.2-0.6,0.5-0.6c0.2,0,0.4,0.2,0.4,0.4c0,0,0,0.1,0,0.1
	c0,0.1-0.1,0.2-0.2,0.2c-0.1,0-0.2-0.1-0.2-0.2c0-0.1,0-0.1,0.1-0.2c0,0,0,0-0.1,0c-0.1,0-0.2,0.1-0.2,0.3c0,0.2,0.1,0.4,0.3,0.4
	c1.1,0,0.4-0.2,0.4-0.5c0,0.2,0-0.7-0.6-0.7c-0.4,0-0.8,0.4-0.8,0.9c0,0.6,0.4,1,0.9,1.1c0,0,0-0.1,0-0.1c0-0.1,0.1-0.2,0.7-0.2
	c-0.4,0-0.3,0.1-0.3,0.2c0,0,0,0,0,0c0.4-0.2,0.6,0.1,0.7-1.1c-0.1,0-0.1-0.1-0.1-0.1c0,0,0-0.1,0.1-0.1c0-0.2-0.2-0.6-0.6-0.9
	c-0.4-0.2-0.8-0.1-1-0.8c-0.2-0.2-0.4-0.4-0.5-0.6c-0.2-0.3-0.2-0.6-0.1-0.6c0-0.1,0-0.3,0.1-0.4c0.1-0.4,0.1-0.7,0.4-1
	c-0.1-0.3,0.2-0.5-0.2-0.7c0,0,0-0.1,0-0.1c-0.1,0.4,0-0.8,0-1c0.1-0.2,0-0.5,0-0.6c-0.1-0.1-0.1-0.7,0-0.9c0.1-0.1,0.1-0.5,0.1-0.5
	l0.4-0.1l0.3,0c-0.2,0.2-0.2,0.6-0.2,0.7c0,0.7,0,0.1,0,0.1c0,0,0,0.1,0,0.1c0,0.1,0,0.2,0.1,0.3c0.1,0.2,0.1,0.3,0.1,1.2
	c0-0.5,0-0.4-0.1-0.3c0,0.1-0.1,0.2-0.1,0.4c0,0.1,0,0.4,0.1,0.3c0.1,0.1,0.2,0.2,0.2,0.5c0,0.1,0,0.3-0.1,0.5
	c0.1,0.6,0.1,0.3,0.2,0V68c-0.3-0.1-0.6-0.3-0.2-0.5c-0.9,0.3-1-0.6-1-1c0,0,0.1-0.6,0.2-0.8c0.1-0.2,0.2-0.4,0.4-0.5
	c0.3-0.3,1-0.4,1-0.5c0.1,0,0.1-0.1,0.2-0.1c0.4-0.2,0.6-0.5,0.7-0.8c0-0.1,0-0.2,0-0.3c0.4,0-0.2-0.1-0.2-0.2
	c0,0.4,0.7-0.1,0.2-0.2c0,0,0-0.1,0-0.1c0.7-0.5-0.5-0.9-0.9-1c0,0,0,0,0,0.1c0,0.7-0.1,0.2,0.3,0.2c-0.6,0-0.7,0.5-0.7-0.2
	c0,0,0-0.1,0-0.1c-0.5,0.1-0.4,0.6-0.4,1.1c0,0.5-0.1,0.9,0.3,0.9c0.3,0,0.6-0.3,0.6-0.7c0-0.3-0.2-0.5-0.4-0.5
	c-0.2,0-0.3,0.2-0.3,0.9c0-0.4,0.1-0.3,0.2-0.3c0,0,0,0,0,0c0,0-0.1-0.1-0.1-0.2c0,0.1,0.1-0.2,0.7-0.2c-0.3,0-0.2,0.1-0.2,0.9
	c0,0.1,0-0.7,0-0.7c0,0.3,0.5,0.5-0.4,0.5c-0.3,0-0.5-0.3-0.5,0c0-0.9,0.3-1.2,0.6-1.2c0.4,0,0.7,0.4,0.7,0.8c0,0.5-0.4,1-0.9,1
	c-0.6,0-1.1-0.5-1.1-1.2c0-0.4,0.1-0.7,1.2-1c-0.7-0.2-0.4-0.4-0.1-0.4h-1.2V78.2z M32.1,62.4v-0.6H31c0.4,0,0.7,0.2,1.9,0.7
	C32,63,32,62.4,32.1,62.4z M29.5,61.5h2.7v-1.3c-0.1,0.2-0.2,0.4-0.1,0.6c-0.5,0.4-1,0.6-1.4,0.7h0L29.5,61.5
	C29.6,61.5,29.5,61.5,29.5,61.5L29.5,61.5z M28.3,61.9c0.1,0,0.2,0.2,0.2,0.7c0-0.2-0.1-0.1-0.2,0v0.3c0.1,0,0.2,0.2,0.2,0.7
	c0-0.1-0.1,0-0.2,0.1v0.3c0.1,0,0.2,0.2,0.2,0.6c0-0.1-0.1,0.1-0.2,0.1v0.3c0.1,0,0.2,0.2,0.2,0.6c0,0-0.1,0.1-0.2,0.2v0.3
	c0.1,0.1,0.2,0.2,0.2,0.5c0,0-0.1,0.2-0.2,0.2v0.3c0.1,0,0.2,0.2,0.2,1.3c0-0.7-0.1-0.6-0.2-0.5v0.3c0.1,0,0.2,0.2,0.2,0.7
	c0-0.1-0.1,0-0.2,0.1v0.3c0.1,0,0.2,0.2,0.2,0.4c0,0.2-0.1,0.3-0.2,0.4v0.3c0.1,0,0.2,0.2,0.2,0.4c0,0.2-0.1,0.3-0.2,0.4v0.3
	c0.1,0,0.2,0.2,0.2,0.4c0,0.2-0.1,0.3-0.2,0.4v0.3c0.1,0,0.2,0.2,0.2,0.4c0,0.2-0.1,0.3-0.2,0.4v0.3c0.1,0,0.2,0.2,0.2,0.4
	c0,0.2-0.1,0.3-0.2,0.4v0.3c0.1,0,0.2,0.2,0.2,0.4c0,0.2-0.1,0.3-0.2,0.4v0.3c0.1,0,0.2,0.2,0.2,0.4c0,0.2-0.1,0.3-0.2,0.4v0.3
	c0.1,0,0.2,0.2,0.2,0.4c0,0.2-0.1,0.3-0.2,0.4v0.3c0.1,0,0.2,0.2,0.2,0.4c0,0.2-0.1,0.3-0.2,0.4v0.7h0.9V61.8L28.3,61.9L28.3,61.9z
	 M27,59.4c0,0.7,0-0.2,0.1-0.3c-0.2,0.3-0.4,0.6-0.5,0.9c-0.1,0.1-0.1,0.4-0.2,0.3c-0.2,0.3,0.1,0.7-0.7,0.9
	c-0.1,0.1-0.3,0.2-0.4,0.3h3c-0.1-0.1-0.7-0.3-0.9-0.7C27.1,60.4,27,59.9,27,59.4z M27.2,78.2h1v-0.7C28,77.5,28,77.3,28,77.2
	c0-0.2,0.1-0.3,0.2-0.3v-0.3C28,76.5,28,76.3,28,76.2c0-0.2,0.1-0.3,0.2-0.3v-0.3C28,75.5,28,75.3,28,75.2c0-0.2,0.1-0.3,0.2-0.3
	v-0.3C28,74.5,28,74.3,28,74.2c0-0.2,0.1-0.3,0.2-0.3v-0.3C28,73.5,28,73.4,28,73.2c0-0.2,0.1-0.3,0.2-0.3v-0.3
	C28,72.5,28,72.4,28,72.2c0-0.2,0.1-0.3,0.2-0.3v-0.3C28,71.5,28,71.4,28,71.2c0-0.2,0.1-0.3,0.2-0.3v-0.3C28,70.5,28,70.4,28,70.2
	c0-0.2,0.1-0.3,0.2-0.3v-0.3C28,69.5,28,69.4,28,69.2c0-0.2,0.1-0.3,0.2-0.4v-0.3C28,68.5,28,68.4,28,68.5c0-0.5,0.1-0.6,0.2-0.6
	v-0.3C28,67.5,28,67.4,28,68.1c0-1.1,0.1-1.2,0.2-1.2v-0.3C28,66.5,28,66.4,28,66.4c0-0.3,0.1-0.4,0.2-0.5v-0.3
	C28,65.5,28,65.4,28,65.4c0-0.4,0.1-0.5,0.2-0.5v-0.3C28,64.5,28,64.4,28,64.5c0-0.4,0.1-0.6,0.2-0.6v-0.3c-0.1-0.1-0.2-0.2-0.2,0
	c0-0.5,0.1-0.6,0.2-0.7v-0.3c-0.1-0.1-0.2-0.2-0.2,0c0-0.5,0.1-0.7,0.2-0.7v-0.1h-1V78.2z M25.8,61.9c0.9,0,0.2,0.2,0.2,0.7
	c0-0.2,0.7-0.1-0.2,0v0.3c0.9,0,0.2,0.2,0.2,0.7c0-0.1,0.7,0-0.2,0.1v0.3c0.9,0,0.2,0.2,0.2,0.6c0-0.1,0.7,0.1-0.2,0.1v0.3
	c0.9,0,0.2,0.2,0.2,0.6c0,0,0.7,0.1-0.2,0.2v0.3c0.9,0.1,0.2,0.2,0.2,0.5c0,0,0.7,0.2-0.2,0.2v0.3c0.9,0,0.2,0.2,0.2,1.3
	c0-0.7,0.7-0.6-0.2-0.5v0.3c0.9,0,0.2,0.2,0.2,0.7c0-0.1,0.7,0-0.2,0.1v0.3c0.9,0,0.2,0.2,0.2,0.4c0,0.2,0.7,0.3-0.2,0.4v0.3
	c0.9,0,0.2,0.2,0.2,0.4c0,0.2,0.7,0.3-0.2,0.4v0.3c0.9,0,0.2,0.2,0.2,0.4c0,0.2,0.7,0.3-0.2,0.4v0.3c0.9,0,0.2,0.2,0.2,0.4
	c0,0.2,0.7,0.3-0.2,0.4v0.3c0.9,0,0.2,0.2,0.2,0.4c0,0.2,0.7,0.3-0.2,0.4v0.3c0.9,0,0.2,0.2,0.2,0.4c0,0.2,0.7,0.3-0.2,0.4v0.3
	c0.9,0,0.2,0.2,0.2,0.4c0,0.2,0.7,0.3-0.2,0.4v0.3c0.9,0,0.2,0.2,0.2,0.4c0,0.2,0.7,0.3-0.2,0.4v0.3c0.9,0,0.2,0.2,0.2,0.4
	c0,0.2,0.7,0.3-0.2,0.4v0.7h1V61.8L25.8,61.9L25.8,61.9z M24.7,78.2h0.9v-0.7c-0.1-0.1-0.2-0.2-0.2-0.3c0-0.2,0.1-0.3,0.2-0.3v-0.3
	c-0.1-0.1-0.2-0.2-0.2-0.3c0-0.2,0.1-0.3,0.2-0.3v-0.3c-0.1-0.1-0.2-0.2-0.2-0.3c0-0.2,0.1-0.3,0.2-0.3v-0.3
	c-0.1-0.1-0.2-0.2-0.2-0.4c0-0.2,0.1-0.3,0.2-0.3v-0.3c-0.1-0.1-0.2-0.2-0.2-0.3c0-0.2,0.1-0.3,0.2-0.3v-0.3
	c-0.1-0.1-0.2-0.2-0.2-0.3c0-0.2,0.1-0.3,0.2-0.3v-0.3c-0.1-0.1-0.2-0.2-0.2-0.4c0-0.2,0.1-0.3,0.2-0.3v-0.3
	c-0.1-0.1-0.2-0.2-0.2-0.4c0-0.2,0.1-0.3,0.2-0.3v-0.3c-0.1-0.1-0.2-0.2-0.2-0.3c0-0.2,0.1-0.3,0.2-0.4v-0.3
	c-0.1-0.1-0.2-0.2-0.2-0.1c0-0.5,0.1-0.6,0.2-0.6v-0.3c-0.1-0.1-0.2-0.2-0.2,0.5c0-1.1,0.1-1.2,0.2-1.2v-0.3
	c-0.1-0.1-0.2-0.2-0.2-0.2c0-0.3,0.1-0.4,0.2-0.5v-0.3c-0.1-0.1-0.2-0.2-0.2-0.2c0-0.4,0.1-0.5,0.2-0.5v-0.3
	c-0.1-0.1-0.2-0.2-0.2-0.1c0-0.4,0.1-0.6,0.2-0.6v-0.3c-0.1-0.1-0.2-0.2-0.2,0c0-0.5,0.1-0.6,0.2-0.7v-0.3c-0.1-0.1-0.2-0.2-0.2,0
	c0-0.5,0.1-0.7,0.2-0.7v-0.1h-0.9V78.2z M23.5,61.9c0.1,0,0.2,0.2,0.2,0.7c0-0.2-0.1-0.1-0.2,0v0.3c0.1,0,0.2,0.2,0.2,0.7
	c0-0.1-0.1,0-0.2,0.1v0.3c0.1,0,0.2,0.2,0.2,0.6c0-0.1-0.1,0.1-0.2,0.1v0.3c0.1,0,0.2,0.2,0.2,0.6c0,0-0.1,0.1-0.2,0.2v0.3
	c0.1,0.1,0.2,0.2,0.2,0.5c0,0-0.1,0.2-0.2,0.2v0.3c0.1,0,0.2,0.2,0.2,1.3c0-0.7-0.1-0.6-0.2-0.5v0.3c0.1,0,0.2,0.2,0.2,0.7
	c0-0.1-0.1,0-0.2,0.1v0.3c0.1,0,0.2,0.2,0.2,0.4c0,0.2-0.1,0.3-0.2,0.4v0.3c0.1,0,0.2,0.2,0.2,0.4c0,0.2-0.1,0.3-0.2,0.4v0.3
	c0.1,0,0.2,0.2,0.2,0.4c0,0.2-0.1,0.3-0.2,0.4v0.3c0.1,0,0.2,0.2,0.2,0.4c0,0.2-0.1,0.3-0.2,0.4v0.3c0.1,0,0.2,0.2,0.2,0.4
	c0,0.2-0.1,0.3-0.2,0.4v0.3c0.1,0,0.2,0.2,0.2,0.4c0,0.2-0.1,0.3-0.2,0.4v0.3c0.1,0,0.2,0.2,0.2,0.4c0,0.2-0.1,0.3-0.2,0.4v0.3
	c0.1,0,0.2,0.2,0.2,0.4c0,0.2-0.1,0.3-0.2,0.4v0.3c0.1,0,0.2,0.2,0.2,0.4c0,0.2-0.1,0.3-0.2,0.4v0.7h0.9V61.8L23.5,61.9L23.5,61.9z
	 M24.2,61.5c-0.1-0.1,0.2-0.2-0.4-0.3c-0.2-0.2-0.3-0.5-0.4-0.9c-0.1,0.4-0.2,0.6-0.4,0.9c-0.1,0.1-0.3,0.2-0.4,0.3H24.2z
	 M22.3,78.2h1v-0.7c-0.1-0.1-0.2-0.2-0.2-0.3c0-0.2,0.1-0.3,0.2-0.3v-0.3c-0.1-0.1-0.2-0.2-0.2-0.3c0-0.2,0.1-0.3,0.2-0.3v-0.3
	c-0.1-0.1-0.2-0.2-0.2-0.3c0-0.2,0.1-0.3,0.2-0.3v-0.3c-0.1-0.1-0.2-0.2-0.2-0.4c0-0.2,0.1-0.3,0.2-0.3v-0.3
	c-0.1-0.1-0.2-0.2-0.2-0.3c0-0.2,0.1-0.3,0.2-0.3v-0.3c-0.1-0.1-0.2-0.2-0.2-0.3c0-0.2,0.1-0.3,0.2-0.3v-0.3
	c-0.1-0.1-0.2-0.2-0.2-0.4c0-0.2,0.1-0.3,0.2-0.3v-0.3c-0.1-0.1-0.2-0.2-0.2-0.4c0-0.2,0.1-0.3,0.2-0.3v-0.3
	c-0.1-0.1-0.2-0.2-0.2-0.3c0-0.2,0.1-0.3,0.2-0.4v-0.3c-0.1-0.1-0.2-0.2-0.2-0.1c0-0.5,0.1-0.6,0.2-0.6v-0.3
	c-0.1-0.1-0.2-0.2-0.2,0.5c0-1.1,0.1-1.2,0.2-1.2v-0.3c-0.1-0.1-0.2-0.2-0.2-0.2c0-0.3,0.1-0.4,0.2-0.5v-0.3
	c-0.1-0.1-0.2-0.2-0.2-0.2c0-0.4,0.1-0.5,0.2-0.5v-0.3c-0.1-0.1-0.2-0.2-0.2-0.1c0-0.4,0.1-0.6,0.2-0.6v-0.3c-0.1-0.1-0.2-0.2-0.2,0
	c0-0.5,0.1-0.6,0.2-0.7v-0.3c-0.1-0.1-0.2-0.2-0.2,0c0-0.5,0.1-0.7,0.2-0.7v-0.1h-1V78.2z M21.1,61.9c0.1,0,0.2,0.2,0.2,0.7
	c0-0.2-0.1-0.1-0.2,0v0.3c0.1,0,0.2,0.2,0.2,0.7c0-0.1-0.1,0-0.2,0.1v0.3c0.1,0,0.2,0.2,0.2,0.6c0-0.1-0.1,0.1-0.2,0.1v0.3
	c0.1,0,0.2,0.2,0.2,0.6c0,0-0.1,0.1-0.2,0.2v0.3c0.1,0.1,0.2,0.2,0.2,0.5c0,0-0.1,0.2-0.2,0.2v0.3c0.1,0,0.2,0.2,0.2,1.3
	c0-0.7-0.1-0.6-0.2-0.5v0.3c0.1,0,0.2,0.2,0.2,0.7c0-0.1-0.1,0-0.2,0.1v0.3c0.1,0,0.2,0.2,0.2,0.4c0,0.2-0.1,0.3-0.2,0.4v0.3
	c0.1,0,0.2,0.2,0.2,0.4c0,0.2-0.1,0.3-0.2,0.4v0.3c0.1,0,0.2,0.2,0.2,0.4c0,0.2-0.1,0.3-0.2,0.4v0.3c0.1,0,0.2,0.2,0.2,0.4
	c0,0.2-0.1,0.3-0.2,0.4v0.3c0.1,0,0.2,0.2,0.2,0.4c0,0.2-0.1,0.3-0.2,0.4v0.3c0.1,0,0.2,0.2,0.2,0.4c0,0.2-0.1,0.3-0.2,0.4v0.3
	c0.1,0,0.2,0.2,0.2,0.4c0,0.2-0.1,0.3-0.2,0.4v0.3c0.1,0,0.2,0.2,0.2,0.4c0,0.2-0.1,0.3-0.2,0.4v0.3c0.1,0,0.2,0.2,0.2,0.4
	c0,0.2-0.1,0.3-0.2,0.4v0.7H22V61.8L21.1,61.9L21.1,61.9z M20.8,78.2h0.5v-0.7c-0.5-0.1-0.6-0.2-0.6-0.3c0-0.2,0.1-0.3,0.6-0.3v-0.3
	c-0.5-0.1-0.6-0.2-0.6-0.3c0-0.2,0.1-0.3,0.6-0.3v-0.3c-0.5-0.1-0.6-0.2-0.6-0.3c0-0.2,0.1-0.3,0.6-0.3v-0.3
	c-0.5-0.1-0.6-0.2-0.6-0.4c0-0.2,0.1-0.3,0.6-0.3v-0.3c-0.5-0.1-0.6-0.2-0.6-0.3c0-0.2,0.1-0.3,0.6-0.3v-0.3
	c-0.5-0.1-0.6-0.2-0.6-0.3c0-0.2,0.1-0.3,0.6-0.3v-0.3c-0.5-0.1-0.6-0.2-0.6-0.4c0-0.2,0.1-0.3,0.6-0.3v-0.3
	c-0.5-0.1-0.6-0.2-0.6-0.4c0-0.2,0.1-0.3,0.6-0.3v-0.3c-0.5-0.1-0.6-0.2-0.6-0.3c0-0.2,0.1-0.3,0.6-0.4v-0.3
	c-0.5-0.1-0.6-0.2-0.6-0.1c0-0.5,0.1-0.6,0.6-0.6v-0.3c-0.5-0.1-0.6-0.2-0.6,0.5c0-1.1,0.1-1.2,0.6-1.2v-0.3
	c-0.5-0.1-0.6-0.2-0.6-0.2c0-0.3,0.1-0.4,0.6-0.5v-0.3c-0.5-0.1-0.6-0.2-0.6-0.2c0-0.4,0.1-0.5,0.6-0.5v-0.3
	c-0.5-0.1-0.6-0.2-0.6-0.1c0-0.4,0.1-0.6,0.6-0.6v-0.3c-0.5-0.1-0.6-0.2-0.6,0c0-0.5,0.1-0.6,0.6-0.7v-0.3c-0.5-0.1-0.6-0.2-0.6,0
	c0-0.5,0.1-0.7,0.6-0.7v-0.1h-0.5V78.2z M18.6,61.9c0.1,0,0.2,0.2,0.2,0.7c0-0.2-0.1-0.1-0.2,0v0.3c0.1,0,0.2,0.2,0.2,0.7
	c0-0.1-0.1,0-0.2,0.1v0.3c0.1,0,0.2,0.2,0.2,0.6c0-0.1-0.1,0.1-0.2,0.1v0.3c0.1,0,0.2,0.2,0.2,0.6c0,0-0.1,0.1-0.2,0.2v0.3
	c0.1,0.1,0.2,0.2,0.2,0.5c0,0-0.1,0.2-0.2,0.2v0.3c0.1,0,0.2,0.2,0.2,1.3c0-0.7-0.1-0.6-0.2-0.5v0.3c0.1,0,0.2,0.2,0.2,0.7
	c0-0.1-0.1,0-0.2,0.1v0.3c0.1,0,0.2,0.2,0.2,0.4c0,0.2-0.1,0.3-0.2,0.4v0.3c0.1,0,0.2,0.2,0.2,0.4c0,0.2-0.1,0.3-0.2,0.4v0.3
	c0.1,0,0.2,0.2,0.2,0.4c0,0.2-0.1,0.3-0.2,0.4v0.3c0.1,0,0.2,0.2,0.2,0.4c0,0.2-0.1,0.3-0.2,0.4v0.3c0.1,0,0.2,0.2,0.2,0.4
	c0,0.2-0.1,0.3-0.2,0.4v0.3c0.1,0,0.2,0.2,0.2,0.4c0,0.2-0.1,0.3-0.2,0.4v0.3c0.1,0,0.2,0.2,0.2,0.4c0,0.2-0.1,0.3-0.2,0.4v0.3
	c0.1,0,0.2,0.2,0.2,0.4c0,0.2-0.1,0.3-0.2,0.4v0.3c0.1,0,0.2,0.2,0.2,0.4c0,0.2-0.1,0.3-0.2,0.4v0.7h1V61.8L18.6,61.9L18.6,61.9z
	 M21.5,61.5c-0.1-0.1-0.3-0.2-0.4-0.3c-0.2-0.2-0.5-0.5-0.7-0.9c-0.1,0.1-0.1-0.2-0.2-0.3c-0.1-0.3,0.1-0.6-0.5-0.9
	c0,0.1,0,1.1,0.1,0.3c0,0.5-0.1,1-0.3,1.4c-0.2,0.4-0.4,0.6-0.9,0.7H21.5z M17.6,78.2h0.9v-0.7c-0.1-0.1-0.2-0.2-0.2-0.3
	c0-0.2,0.1-0.3,0.2-0.3v-0.3c-0.1-0.1-0.2-0.2-0.2-0.3c0-0.2,0.1-0.3,0.2-0.3v-0.3c-0.1-0.1-0.2-0.2-0.2-0.3c0-0.2,0.1-0.3,0.2-0.3
	v-0.3c-0.1-0.1-0.2-0.2-0.2-0.4c0-0.2,0.1-0.3,0.2-0.3v-0.3c-0.1-0.1-0.2-0.2-0.2-0.3c0-0.2,0.1-0.3,0.2-0.3v-0.3
	c-0.1-0.1-0.2-0.2-0.2-0.3c0-0.2,0.1-0.3,0.2-0.3v-0.3c-0.1-0.1-0.2-0.2-0.2-0.4c0-0.2,0.1-0.3,0.2-0.3v-0.3
	c-0.1-0.1-0.2-0.2-0.2-0.4c0-0.2,0.1-0.3,0.2-0.3v-0.3c-0.1-0.1-0.2-0.2-0.2-0.3c0-0.2,0.1-0.3,0.2-0.4v-0.3
	c-0.1-0.1-0.2-0.2-0.2-0.1c0-0.5,0.1-0.6,0.2-0.6v-0.3c-0.1-0.1-0.2-0.2-0.2,0.5c0-1.1,0.1-1.2,0.2-1.2v-0.3
	c-0.1-0.1-0.2-0.2-0.2-0.2c0-0.3,0.1-0.4,0.2-0.5v-0.3c-0.1-0.1-0.2-0.2-0.2-0.2c0-0.4,0.1-0.5,0.2-0.5v-0.3
	c-0.1-0.1-0.2-0.2-0.2-0.1c0-0.4,0.1-0.6,0.2-0.6v-0.3c-0.1-0.1-0.2-0.2-0.2,0c0-0.5,0.1-0.6,0.2-0.7v-0.3c-0.1-0.1-0.2-0.2-0.2,0
	c0-0.5,0.1-0.7,0.2-0.7v-0.1h-0.9V78.2z M17.5,62.1c0-0.7,0-0.9,0-0.9h0.8c0.7-0.1,1.1-0.9,1.1-1.8c0-0.3-0.1-0.6-0.4-0.8
	c0.4-0.2-0.4,0.6-0.7-0.3c-0.2,0-0.4,0.1,0.3,0.3c-0.9,0.2-1,0.5-1,0.7c0,0.2,0.2,0.4,0.2,0.5c0.1,0.1,0.3,0.2,0.4,0.2
	c0.1,0,0.2-0.1,0.3-0.2c0.1-0.1,0.1-0.3,0.1-0.4c0-0.1-0.1-0.1-0.1-0.3c-0.1-0.1-0.1-0.1-0.2-0.1c-0.1,0-0.1,0-0.1,0.1
	c0,0.3-0.1,0.1-0.1,0.2c0,0,0,0.1,0,0.1c0,0,0.1-0.1,0.1-0.1c0.1,0,0.2,0.1,0.2,0.2c0,0.1,0,0.2-0.1,0.2c0,0,0,0-0.1,0
	c-0.1,0-0.2,0-0.3-0.1c-0.1-0.1-0.1-0.2,0.7-0.4c-0.1,0.4-0.8-0.3-0.8-0.4c0.1-0.1,0.2-0.2,0.3-0.2c0.2,0,0.3,0,0.4,0.2
	c1,0.1,0.2,1,0.2,0.5c0,0.2,0,0.5,0.2,0.6c-0.4,0.4-0.6,0.3-0.8,0.3c-0.2,0-0.4-0.1-0.6-0.2c-0.1-0.1-0.2-0.3-0.3-0.5V62.1z
	 M17.2,78.2v-1.3c0,0.7-0.5,1.2-1.1,1.3L17.2,78.2z M16,77.9C16,77.9,16,77.9,16,77.9c0.5,0,1.4-0.5,1.4-1c0-0.5-0.9-0.9-1.3-0.9
	c-0.3,0-0.6,0.9-0.6,0.7c0,0.3,0.2,0.5,1.1,0.5c-0.5,0-0.3-0.2-0.3-0.4c0-0.1-0.1-0.3-0.2-0.3c0,0,0,0-0.1,0c0,0,0.1,0.1,0.1,0.2
	c0,0.1,0.5,0.2-0.2,0.2c-0.1,0-0.2-0.1-0.2-0.2c0,0,0-0.1,0-0.1c0-0.2,0.2-0.4,0.5-0.4c0.3,0,0.5,0.2,0.5,0.6c0,0.4-0.3,0.7,0,0.7
	c-1.1,0-1.4-0.3-1.4-0.8c0-0.5,0.4-0.9,0.9-0.9c0.6,0,1.1,0.5,1.1,1.1v-15l-0.6,0c-0.3,0,0,0.2,0.2,0.4c0.3,0.3,0.4,0.6,0.4,1
	c0,0.6-0.5,1.2-1.1,1.2c-0.5,0-0.9-0.4-0.9-1c0-0.4,0.4-0.8,0.8-0.8c0.4,0,0.7,0.3,0.7,1.2c0-0.2-0.2,0,0.3,0
	c-1.1,0-1.4-0.2-1.4-0.5c0,0,0,0.8,0,0.6c0-0.8,0.1-0.8,0.2-0.8c0.3,0,0.2,0.3,0.2,0.2c0,0.1,0.8,0.1,0.3,0.2c0.2,0,0.4,0,0.5,0
	c-0.7,0-0.6-0.1-0.6,0.3c0-0.8-0.2-0.9-0.4-0.9c-0.3,0-0.5,0.2-0.5,0.5c0,0.4,0.3,0.7,0.6,0.7c0.5,0,0.8-0.4,0.8-0.9
	c0-0.5-0.4-1-0.9-1.1c0,0,0,0,0,0.1c0,0.7,0.3,0.2-0.2,0.2c-0.1,0-0.2,0.5-0.2-0.2c0,0,0-0.1,0-0.1c-0.6,0.1-1,0.4-1.1,1
	c0,0,0,0.1,0,0.1c0.1,0.2,0.1,0.7,0.1,0.2c0,0.1-0.1,0.1-0.1,0.1c0,0.1,0,0.2,0,0.3c0.1,0.3,0.3,0.7,0.7,0.8c0.1,0,0.1,0,0.2,0.1
	c0.3,0.1,0.7,0.2,1.1,0.5c0.2,0.2,0.5,0.3,0.5,0.5c0.1,0.2,0.2,0.8,0.2,0.8c0,0.4-0.1,1.3-0.4,1c-0.2,0.2-0.5,0.4,0,0.5v4.3
	c-0.8,0.3-0.7,0.6-0.6,0c-0.1-0.2-0.1-0.3-0.1-0.5c0-0.3,0.1-0.4,0.2-0.5c0.1,0.2,0.1-0.1,0.1-0.3c0-0.2,0-0.3-0.1-0.4
	c0-0.1-0.1-0.2-0.1,0.3c0-0.8,0.1-1,0.1-1.2c0-0.1,0.1-0.2,0.1-0.3c0-0.1,0-0.1,0-0.1c0,0,0,0.6,0-0.1c0-0.1,0-0.4,0.5-0.7l0.1,0
	l0.2,0.1c0,0,0,0.3-0.1,0.5c0.1,0.2,0.1,0.8,0,0.9c0.3,0.1,0,0.5,0.7,0.6c-0.6,0.2-0.6,1.4-0.7,1c0.8,0,0.6,0.1,0.5,0.1
	c-0.6,0.2-0.7,0.4-0.6,0.7c1,0.3,0.2,0.6,0.3,1c0,0.1,0.1,0.3,0.1,0.4c0,0.1,0,0.3-0.2,0.6c0.2,0.2-0.3,0.4-0.5,0.6
	c-0.3,0.6-0.7,0.5-1.1,0.8c0.4,0.2-0.6,0.6-0.6,0.9c0.1,0,0.1,0.1,0.1,0.1c0,0,0,0.1-0.1,0.1c0,1.4,0.3,1,0.8,1.1c0,0,0,0,0,0
	c0-0.1,0.1-0.2,0.2-0.2C16.3,77.7,16,77.8,16,77.9z M14.5,78.2l1.2,0c-0.3-0.1-0.6-0.2-0.8-0.5c-0.2-0.2-0.3-0.5-0.3-0.8
	c0,0,0,0,0,0V78.2z M14.5,76.5C14.5,76.5,14.5,76.5,14.5,76.5c0-0.2,0.1-0.4,0.2-0.5c0-0.3,0-0.8,0.1-1.1c0-0.1,0-0.3,0.1-0.5
	c0.1,0.5,0.4-0.5,0-0.7l-0.1-0.2l0.3,0.1c0.2,0,0.3,0.3,0.3,0.7c0,0.2-0.2,0.7-0.3,0.9c0.2-0.2,0.7-0.7,0.7-1c0-0.3-0.2-0.4-0.4-0.6
	c-0.2-0.2,0.1-0.3,0.1-0.6c0-0.6-0.1-0.7-0.1-0.7l0.1,0l0,0c0,0,0,0.4,0.2,0.6c0.2,0.7,0.9,0.6,0.9,2c0-0.7,0-0.5-0.1-0.4
	c0.2-0.1,0.3-0.3,0.4-0.1c0.6-0.6,0.3-0.8,0.3-0.8c0,0,0,0,0,0c0-0.2-0.5-1.1-1.2-1.3c-0.1,0-0.1-0.1-0.1-0.1v-1.7
	c0,0-0.1,0.1-0.1,0.1l0,0c-0.1,0.1-0.3,0.1-0.3,0.3c0,0.1,0,0.1,0.1,0.2c0.2,0.3,0.2,0.6,0,0.8L15.2,72l0-0.1
	c-0.1-0.1-0.2-0.4,0.6-0.4c-0.6-0.1-1.1-0.6-0.5-0.8c-0.3-0.1-0.1-0.2,0.1-0.3c0.1-0.1,0.3,0.2,0.3-0.2v0c0-0.1-0.2-0.1-0.3-0.2
	c-0.2-0.1-0.3-0.2-0.1-0.3c-0.6-0.3-0.1-0.7,0.5-0.8c-0.8,0-0.7-0.3-0.6-0.4l0-0.1l0.1,0.1c0.2,0.2,0.2,0.5,0,0.8
	c-0.1,0.6-0.1,0.1-0.1,0.2c0,0.1,0.2,0.2,0.3,0.3l0,0c0,0,0.1,0.1,0.1,0.1v-1.8c0-0.1,0-0.1,0.1-0.1c0.7-0.3,1.9-0.1,1.9-1.3
	c0-0.9-1.5-0.7-2-1.5c0.4,0.3,0.6,0.7,0.6,1.1c0,0.6-0.7,2-0.9,1.2c-0.2,0.1-0.2,0.5-0.2,0.6l0,0l0,0c0,0-0.4,0-0.4,0.2
	c0-1.1,0.8-1.3,0.4-1.5c0.2-0.2,0.4-0.4,0.4-0.6c0-0.4-0.4-0.2-0.7-1c0.9,1.1,0.3,0.7,0.3,0.9c0,0.4-0.4,0.7-0.4,0.7l-0.2,0.1
	l0.1-0.2c0.1-0.2,0,0,0-0.7c0-0.2-0.1-0.3-0.1-0.5c0,0.5,0-0.6-0.1-0.9V76.5z M14.5,62.4c0-0.1,0.1,0.6,0.1,0.1
	c0.3-0.5,0.6-0.7,1-0.7l-1.1,0V62.4z M14.2,78.2v-1.3c0,0,0,0,0,0c0,0.3-0.1,0.6-0.2,0.8c-0.3,0.3-0.6,0.4-0.9,0.5L14.2,78.2z
	 M13.1,60.6c0-0.1-0.1-0.2,0.4-0.2c-0.6,0-0.7,0.1-0.7,0.2c0,0.1,0,0.1,0.1,0.2l-0.1,0.6h0.4L13,60.8C13.1,60.8,13.1,60.7,13.1,60.6
	z M13,60.7c0.3,0,0.7-0.8,0.7-1.2s-0.4-0.8-0.7-0.8c-0.6,0-1,0.4-1,0.8S12.4,60.7,13,60.7z M13.1,61.8c0.4,0,0.7,0.2,0.9,0.7
	c0.1,0.6,0.1-0.1,0.1-0.1v-0.6L13.1,61.8z M14,66.7c0.7,0-0.4-0.3-0.4-0.7c0-0.2,0.2,0.2,0.3-0.9c-0.2,0.9-0.6,0.7-0.6,1
	c0,0.3,0.2,0.4,0.4,0.6c0.2,0.2,1,0.3,1,1.5c0-0.2-1-0.2-1-0.2l0,0l0,0c0-0.1-0.1-0.5-0.2-0.6c-0.2,0.7-0.8-0.6-0.8-1.2
	c0-0.4,0.2-0.8,0.6-1.1c-0.5,0.8-0.7,0.6-0.7,1.5c0,1.2-0.1,1,0.6,1.3c0.1,0,0.1,0.1,0.1,0.1v1.8c0,0,0.1-0.1,0.1-0.1l0,0
	c0.1-0.1,0.3-0.1,0.3-0.3c0-0.1,0,0.4-0.1-0.2c-0.2-0.3-0.2-0.6,0-0.8l0.1-0.1l0,0.1c0.1,0.1,0.2,0.4,0.2,0.4c0.1,0.1,0.3,0.6,0,0.8
	c-0.1,0.1-0.3,0.2-0.4,0.3c-0.1,0.1-0.3,0.1-0.3,0.2v0c0,0.4,0.2,0.1,0.3,0.2c0.2,0.1,0.3,0.2,0.4,0.3c0.2,0.3,0,0.7,0,0.8
	c0,0-0.1,0.3-0.2,0.4l0,0.1l-0.1-0.1c-0.2-0.2-0.2-0.5,0-0.8c0-0.1,0.1-0.1,0.1-0.2c0-0.1-0.2-0.2-0.3-0.3l0,0c0,0-0.1-0.1-0.1-0.1
	v1.7c0,0.1,0,0.1,0.7,0.1c-1.5,0.2-1.4,1.1-1.4,1.3c0,0,0,0,0,0c0,0-0.2,0.2-0.3,0.8c0.1-0.2,0.2,0,0.3,0.1c0-0.1-0.1-0.2-0.1,0.4
	c0-1.4,1.2-1.3,0.8-2c0.2-0.2,0.2-0.6,0.2-0.6l0,0l0.1,0c0,0,0.4,0,0.4,0.7c0,0.2-0.2,0.4-0.4,0.6c-0.2,0.2-0.4,0.4-0.4,0.6
	c0,0.4,0.4,0.8,0.6,1c-0.1-0.2-0.3-0.7-0.3-0.9c0-0.4,0.4-0.7,0.4-0.7l0.2-0.2l0.5,0.2c-0.7,0.2-0.6,1.2-0.3,0.7
	c0.3,0.1-0.2,0.3-0.2,0.5c0,0.3,0,0.8,0.1,1.1c0.1,0.1,0.1,0.3,0.1,0.5c0,0,0,0,0,0v-12c0,0.3,0,1.3-0.1,1c0,0.1,0,0.3-0.1,0.5
	C14,66.6,14.8,66.5,14,66.7l0.2,0.2L14,66.7z M11.6,78.2l1,0c-0.5-0.1-0.9-0.5-1-1.1V78.2z M11.6,76.6c0.1-0.5,0.5-0.9,1-0.9
	c0.5,0,0.9,0.4,0.9,0.9c0,0.4-0.3,0.8-0.7,0.8c-0.3,0-0.6-0.3-0.6-0.7c0-0.3,0.2-0.6,0.5-0.6c0.6,0,0.4,0.2,0.4,0.4c0,0,0,0.1,0,0.1
	c0,0.1-0.1,0.2,0.3,0.2c-0.7,0-0.8-0.1-0.8-0.2c0-0.1,0-0.1,0.1-0.2c0,0,0,0-0.1,0c-0.1,0-0.2,0.1-0.2,0.3c0,0.2,0.1,0.4,0.3,0.4
	c0.2,0,0.4-0.2,0.4-0.5c0,0.2-0.3-0.7-0.6-0.7c-0.4,0,0,0.4,0,0.9c0,0.5-0.4,1,0,1.1c0,0,0,0,0-0.1c0-0.1,0.1-0.2,0.5-0.2
	c-0.2,0-0.1,0.1-0.1,0.2c0,0,0,0,0,0.1c0.5-0.1,0.7-0.6,1-1.1c-0.3,0-0.3-0.1-0.3-0.1c0,0,0-0.1,0.4-0.1c-0.1-0.2-0.5-0.6-0.9-0.9
	c-0.1-0.2-0.8-0.1-1-0.8c-0.2-0.2-0.2-0.4-0.5-0.6c-0.1-0.2-0.1-0.3-0.1-0.4V76.6z M11.6,73.6c0-0.1,0-0.2,0-0.3
	c0.1-0.4,0.1-0.7,0.9-1C12.1,72,12,71.8,12,71.6c-0.1,0-0.1-0.1-0.1-0.1c-0.1,0.4,0-0.8,0-1c0.5-0.2,0.2-0.5,0-0.6
	c-0.1-0.1-0.1-0.7,0-0.9c0.4-0.1,0.6-0.5,0.6-0.5l0.1-0.1l-0.5,0c0.4,0.2,0.5,0.6,0.5,0.7c0,0.7,0,0.1,0,0.1c0,0,0,0.1,0,0.1
	c0,0.1,0,0.2,0.1,0.3c0.1,0.2,0.1,0.3,0.1,1.2c0-0.5,0-0.4-0.1-0.3c0,0.1-0.1,0.2-0.1,0.4c0,0.1,0,0.4,0.1,0.3
	c0.1,0.1,0.2,0.2,0.2,0.5c0,0.1,0,0.3-0.1,0.5c0.1,0.6,0.2,0.3,0.2,0V68c-0.3-0.1-0.6-0.3-0.8-0.5c-0.2,0.4-0.3-0.5-0.4-0.9V73.6z
	 M11.6,63.2v3.3c0-0.3,0.1-0.5,0.2-0.7c0.5-0.2,0.2-0.4,0.4-0.5c0.3-0.3,0.7-0.4,1-0.5c0.1,0,0.2-0.1,0.2-0.1
	c0.9-0.2,0.6-0.5,0.7-0.8c0-0.1,0-0.2,0-0.3c-0.1,0,0.6-0.1,0.6-0.2c0,0.4-0.7-0.1-0.6-0.2c0,0,0-0.1,0-0.1c-0.1-0.5-0.5-0.9-1.1-1
	c0,0,0,0.1,0,0.1c0,0.7-0.1,0.2,0.1,0.2c-0.4,0-0.5,0.5-0.5-0.2c0,0,0,0,0,0c-0.4,0.4-0.2,0.6-0.2,1.1c0,0.5-0.2,0.9,0.2,0.9
	c0.3,0,0.6-0.3,0.6-0.7c0-0.3-0.2-0.5,0.1-0.5c-0.8,0-0.9,0.2-0.9,0.9c0-0.4,0.1-0.3,0.2-0.3c0,0,0,0,0,0c0,0-0.1-0.1-0.1-0.2
	c0,0.1,0.1-0.2,0.2-0.2c0.1,0,0.2,0.1,0.2,0.9c0,0.1,0-0.7,0-0.7c0,0.3-0.2,0.5-0.5,0.5c-0.3,0-0.5-0.3-0.5,0c0-0.9,0.3-1.2,1.2-1.2
	c-0.2,0,0.2,0.4,0.2,0.8c0,0.5-0.4,1-0.9,1C12.1,64.4,11.6,63.8,11.6,63.2c0-0.4,0.1-0.7,0.4-1c0.2-0.2,0.5-0.3,0.8-0.4l-1.2,0V63.2
	z M11.6,57.7h0.8c-0.1-0.1-0.3-0.1-0.4-0.2c-0.2-0.2-0.4-0.5-0.4-0.8c0-0.5,0.5-1,1.1-1c0.5,0,0.9,0.4,0.9,0.8
	c0,0.4-0.3,0.7-0.7,0.7c-0.3,0-0.6-0.3-0.6-0.6c0,0,0.2-0.5,0.5-0.5c0.3,0,0.5,0.2,0.5,0.4c0,0,0,0,0,0.1c0,0.1-0.1,0.2-0.2,0.2
	c-0.1,0-0.2-0.1-0.2-0.2c0,0,0-0.1,0.1-0.1c0,0,0,0-0.1,0c-0.1,0-0.2,0.1-0.2,0.2c0,0.2,0.1,0.3,0.3,0.3c0.2,0,0.4-0.2,0.4-0.4
	c0-0.3-0.2-0.5-0.6-0.5c-0.4,0,0.1,0.3,0.1,0.7c0,0.4-0.6,0.8-0.2,0.9c0,0,0,0,0,0c0,0.6,0.1-0.2,0.8-0.2c-0.4,0-0.3,0.9-0.3,0.2
	c0,0,0,0,0,0c0.6-0.1,1-0.6,1-0.3c0-1.3-0.2-1.7-0.8-2.1c-0.3-0.2-0.7-0.6-1.1-1c-0.3-0.5-0.6-1.1-0.7-1V57.7z M11.6,52.1
	c0-0.1,0-0.1,0-0.2v0c0,0,0,0,0-0.1c0.2-1.1,1-1.7,1.5-2.1c0.1-0.1,0.2-0.2,0.3-0.2c0.4-0.4,0.7-0.7,0.7-1.1c0-0.6-0.3-1.2-1.1-1.2
	c-0.6,0-0.6,0.4-0.6,1c0,0.4-0.1,0.8,0.4,0.8c0.3,0,0.6-0.3,0.6-0.6c0-0.2-0.2-0.4-0.2-0.4c-0.5,0-0.7,0.1-0.7,0.8
	c0-0.3,0.1-0.2,0.2-0.2c0,0,0.2,0,0.3,0c-0.3,0-0.3-0.1-0.3-0.1c0,0,0.8-0.2,0.2-0.2c0.1,0,0.2,0.1,0.2,0.8c0,0.1,0-0.6,0-0.6
	c0,0.2-0.2,0.4-0.5,0.4c-0.3,0-0.6-0.2-0.6-0.1c0-0.8,0.3-1.1,1-1.1c0.1,0,0.5,0.3,0.5,0.7c0,0.5-0.4,1.3-1,1.3
	c-0.5,0-1-0.8-1.1-1.3V52.1z M11.6,48c0.1-0.3,0.2-0.5,0.4,0c0.1-0.8,0.3-0.8,0.4-0.9h-0.8V48z M11.6,46.7h0.7
	c-0.1-0.1-0.3-0.1-0.4-0.2c-0.2,0.7-0.3-0.4-0.4-0.7V46.7z M11.6,45.4c0.1-0.5,0.6-0.8,1.1-0.8c0.5,0,1,0.4,1,0.9
	c0,0.4-0.4,0.7-0.5,0.7c-0.7,0-1-0.3-1-0.6c0,0.6,0.3-0.5,0.6-0.5c0.3,0,0.5,0.2,0.5,0.4c0,0,0,0,0,0.1c0,0.1-0.1,0.1-0.2,0.1
	c0.6,0-0.2-0.1-0.2-0.2c0,0,0-0.1,0.3,0.7c-0.2-0.2-0.3-0.3-0.3-0.3c-0.1,0-0.2-0.5-0.2-0.4c0,0.2,0.2,0.3,0.7,0.3
	c-0.1,0,0.2-0.2,0.2-0.4c0-0.3-0.3-0.6-0.6-0.6c-0.5,0-0.4,0.3-0.4,0.8c0,0.6,0.1,1,0.6,1c0.8,0,1.1-0.6,1.1-1.2
	c0-0.4-0.2-0.7-0.7-0.6c-0.1-0.6-0.2-0.6-0.3-0.7c-0.5-0.4-1.3-1.1-1.5-2.1c0,0,0,0,0-0.1v0c0-0.1,0-0.1,0-0.2V45.4z M13.5,36.6
	c-0.7,0-0.8-0.1-0.8-0.2c0,0,0,0,0,0c-0.4,0.1,0.2,0.5,0.2,0.9c0,0.4-0.5,0.7-0.1,0.7c0.3,0,0.6-0.2,0.6-0.5c0-0.2-0.2-0.4-0.4-0.4
	c-0.2,0-0.3,0.1-0.3,0.8c0-0.4,0.1-0.3,0.2-0.3c0,0,0,0,0.1,0c0,0-0.1-0.1-0.1-0.1c0-0.1,0.1-0.2,0.2-0.2c0.1,0,0.2,0.1,0.2,0.8
	c0,0.2,0-0.6,0-0.6c0,0.2-0.2,0.4-0.5,0.4c-0.3,0-0.5-0.2-0.5,0c0-0.8,0.3-1.1,0.6-1.1c0.4,0,0.7,0.3,0.7,0.7c0,0.4-0.4,0.8-0.9,0.8
	c-0.6,0-1.1-0.4-1.1-1c0-0.3,0.1-0.6,0.4-0.8c0.1,0.3,0.3-0.2,0.4-0.3h-0.8v5.4c0-0.6,0.3-0.9,0.7-1.8c0.4-0.2,0.8-0.8,1.1-1
	c0.6-0.4,0.8-0.8,0.8-1.2c0-0.6-0.4-1-1-1.1c0,0,0,0,0,0C13.2,36.5,13.1,36.6,13.5,36.6z M14.3,36.1h-0.8c0.2,0.1,0.5,0.8,0.6,0.3
	c0.1,0.1,0.2,0.2,0.2,0.3V36.1z M14.3,38.2c0,0,0,0.3,0,0.1c-0.2,0.1-0.4,0.4-0.7,0.6c-0.3,0.2-0.9,0.7-1.3,2.3
	c0.3-1.2,1.6-1.3,1-1.3c0.5,0,1,0.8,1,0.9c0,0.4,0,0.7-0.8,0.7c-0.4,0-0.7-0.3-0.7-0.6c0-0.3,0.3-0.5,0.6-0.5c0.3,0,0.5,0.2,0.5,0.5
	c0,0,0,0,0,0.1c0,0.1-0.1,0.2-0.2,0.2c-0.1,0-0.2-0.1-0.2-0.2c0,0,0-0.1,0.1-0.1c0,0-0.1,0-0.1,0c-0.1,0-0.2,0.1-0.2,0.2
	c0,0.2,0.2,0.3,0.4,0.3c0.3,0,1.2-0.2,1.2-0.4c0-0.3-1-0.6-1.3-0.6c-0.2,0-0.5,0.5-0.8,0.4c-0.2,0.2-0.5,0.6-0.5,1.3
	c0.1,0.6,0.4,1.1,0.8,2.3c-0.1-0.9-0.1-1-0.2-1.1c-0.2-0.4-0.1-0.9,0-1.1c0,0,0-0.1,0-0.1c0-0.1-0.1-0.4-0.1-0.5l0-0.1l0.1,0.7
	c0,0,0.4-0.8,0.6-0.5c0.3,0.3,0.3,0.7,0.2,1c0,0.3,0.2,0.9,0.3,1c0,0.1,0.1,0.2,0.5,0.4l-0.5-0.3c-0.1-0.9,0.2-1.1,0.3-1.1l0.4,0
	l0.5,0c-0.6,0.2-0.6,0.6-0.6,0.7c0,0.3,0,0.2,0,0.4c0,0.2,0,0.3,0,0.5V38.2z M14.3,46.1c-0.1,0.1-0.1,1-0.2,0.4
	c0.6,0.1-0.3,0.2-0.4,0.3h0.6V46.1z M14.3,47h-0.7c0.2,0.1,1,0.2,0.5,0.4c0.1,0.1,0.1,0.2,0.2,0.4V47z M14.3,49.6c0,0.2,0,0.4,0,0.5
	c0,0.2,0,0.4,0,0.4c0,0.1,0,0.5,0.6,1.5l-0.5-0.7L14,52.1c-0.1-0.1-0.4-1-0.3-1.5l0.5-0.7c-0.4,0.2-0.5,0.3-0.5,0.9
	c-0.1-0.4-0.3,0.2-0.3,0.5c0,0.3,0.1,0.7-0.2,1c-0.2,0.3-0.6,0.2-0.6,0.2l-0.1,0l0-0.1c0,0,0.2-0.3,0.1-0.5c0,0,0-0.1,0-0.1
	c-0.1-0.2-0.2-0.7,0-1.1c0-0.1,0.1-0.2,0.2-0.3C12.4,50.9,12,51.3,12,52c0,0.6,0.3,1.1,0.5,1.4c0.3,0.2,0.6,0.3,0.8,0.3
	c0.4,0,1.3-0.3,1.3-0.6c0-0.2-0.9-0.4-1.2-0.4c-0.2,0-0.4,0.1-0.4,0.3c0,0.1,0.1,0.2,0.2,0.2c0,0,0.1,0,0.1,0c0,0-0.1-0.1-0.1-0.1
	c0-0.1,0.1-0.2,0.2-0.2c0.1,0,0.2,0.1,0.2,0.2c0,0,0,0,0,0c0,0.5-0.2,0.5-0.5,0.5c-0.3,0-0.6-0.2-0.6-0.5c0-0.3,0.3,0,0.7,0
	c0.8,0,0.8-0.3,0.8,0.1c0,0.5-0.4,0.9-1,0.9c0.5,0-0.7-0.2-1-0.5c0.4,0.7,1,1.2,1.3,1.4c0.3,0.2,0.5,1.3,0.7,0.7c0,0,0,0,0,0V49.6z
	 M14.3,57.1c-0.1,0.1-0.1,0.5-0.2,0.3c0,0.2-0.4,0.3-0.6,0.3h0.8V57.1z M14.5,36.1v0.8c0.1-0.2,0.2-0.3,0.3-0.5
	c0.2,0.5,0.4-0.3,0.6-0.3H14.5z M14.6,55.6c0.2,0.6,0.4-0.5,0.7-0.7c0.3-0.2,0.9-0.7,1.3-1.4c-0.3,0.3-0.4,0.5-1,0.5
	c-0.5,0-1-0.4-1-0.9c0-0.4,1.2-0.1,0.8-0.1c0.4,0,0.7-0.4,0.7,0c0,0.3-0.3,0.5-0.6,0.5c-0.3,0-0.5,0-0.5-0.5c0,0,0,0,0-0.1
	c0-0.1,0.1-0.2,0.2-0.2c0.1,0,0.2,0.1,0.2,0.2c0,0,0,0.1-0.1,0.1c0,0,0.1,0,0.1,0c0.1,0,0.3-0.1,0.3-0.2c0-0.2-0.2-0.3-0.4-0.3
	c-0.3,0,0.1,0.2,0.1,0.4c0,0.3-0.2,0.6,0.1,0.6c0.2,0,0.5-0.1,0.8-0.3c0.2-0.3,0.6-0.7,0.7-1.4c-0.3-0.6-0.6-1.1-1-1.5
	c0.1,0.1,0.1,0.2,0.2,0.3c0.2,0.4,0.1,0.8,0,1.1c0,0,0,0.1,0,0.1c0,0.2,0.1,0.5,0.1,0.5l0,0.1l-0.1,0c0,0-0.3,0.1-0.6-0.2
	c-0.3-0.3-0.3-0.7-0.2-1c0-0.3-0.2-0.9-0.3-0.5c0-0.6-0.1-0.7-0.2-0.9l0.2,0.7c0.1,0.5-0.2,1.4-0.2,1.5l0.7-0.7l-0.5,0.7
	c-0.6-1-0.6-1.3-0.6-1.5c0,0,0-0.2,0-0.4c0-0.3,0-0.7,0-1l-0.1-0.3v6.9C14.5,55.7,14.6,55.6,14.6,55.6z M14.5,56.9v0.8h0.9
	c-0.2-0.1-0.4-0.2-0.6-0.3C14.7,57.2,14.6,57,14.5,56.9z M14.6,49C14.6,49,14.6,49,14.6,49c0-0.1-0.1-0.2-0.1-0.3v0.1L14.6,49z
	 M14.8,47.4c0.7-0.2,0.3-0.3,0.5-0.4h-0.8v1.1C14.5,47.8,14.6,47.6,14.8,47.4z M15.2,46.7c-0.2-0.1,0.1-0.2-0.4-0.3
	c-0.2-0.2-0.3-0.5-0.3-0.7v1.1H15.2z M14.6,44.8C14.6,44.8,14.6,44.8,14.6,44.8L14.6,44.8l-0.1,0.2C14.5,45,14.5,44.9,14.6,44.8z
	 M14.6,44.7c0-0.3,0-0.7,0-1c0-0.2,0-0.1,0-0.4c0-0.1,0-0.5,0.6-0.7l0.5,0l-0.7,0c0,0,0.3,0.3,0.2,0.7L15,43.9
	c0.1-0.2,0.2-0.3,0.2-0.4c0.1-0.2,0.3-0.7,0.3-1c0-0.3-0.1-0.7,0.2-1c0.3-0.3,0.6,0.5,0.6,0.5l0.1-0.7l0,0.1c0,0.1-0.2,0.3-0.1,0.5
	c0,0,0,0.1,0,0.1c0.1,0.2,0.2,0.7,0,1.1c0,0.1-0.1,0.2-0.2,1.1c0.4-1.2,0.7-1.7,1-2.3c-0.1-0.6-0.5-1.1-0.7-1.3
	c-0.3,0.1-0.6-0.4-0.8-0.4c-0.4,0-0.1,0.3-0.1,0.6c0,0.2-0.3,0.4-0.1,0.4c0.2,0,0.4-0.1,0.4-0.3c0-0.1-0.1-0.2-0.3-0.2
	c0,0-0.1,0-0.1,0c0,0,0.1,0.1,0.1,0.1c0,0.1-0.1,0.2-0.2,0.2c-0.1,0-0.2-0.1-0.2-0.2c0,0,0,0,0,0c0-0.2,0.2-0.5,0.5-0.5
	c0.3,0,0.6,0.2,0.6,0.5c0,0.3-0.3,0.6-0.7,0.6c0.4,0-0.8-0.3-0.8-0.7c0-0.1,0.4-0.9,1-0.9c0.7,0,0.7,0.2,1,1.3
	c-0.4-1.6-1-2.1-1.3-2.3c-0.3-0.2-0.5-0.4-0.7-0.6c-0.1-0.2-0.1-0.3-0.1-0.4v6.9L14.6,44.7z M17.2,36.1h-0.8
	c0.2,0.1,0.3,0.5,0.4,0.3c0.2,0.2,0.4,0.5,0.4,0.8V36.1z M17.2,37.6c0,0.2-0.5,0.6-1.1,0.6c-0.5,0-0.9-0.4-0.9-0.8
	c0-0.4,0.3-0.7,0.7-0.7c0.3,0,0.6,0.3,0.6,1.1c0-0.2-0.2,0-0.5,0c-0.3,0-0.5-0.2-0.5-0.4c0,0,0,0.7,0,0.6c0-0.7,0.1-0.8,0.4-0.8
	c0,0,0.1,0.1,0.1,0.2c0,0,0,0.1-0.1,0.1c0,0,0,0,0.1,0c0.1,0,0.2-0.1,0.2,0.3c0-0.6-0.1-0.8-0.3-0.8c-0.2,0-0.4,0.2-0.4,0.4
	c0,0.3,0.2,0.5,0.6,0.5c0.4,0,1.1-0.3,1.1-0.7c0-0.4-0.6-0.8-1-0.9c0,0,0,0,0,0c0,0.1-0.1,0.2,0.6,0.2c-1,0-1.1-0.1-1.1-0.2
	c0,0,0,0,0,0c-0.6,0.1-1,0.6-1,1.1c0,0.4,0.3,0.9,0.8,1.2c0.3,0.2,0.7,0.8,1.1,1c1.3,0.5,0.6,1.1,0.7,1.7V37.6z M17.2,41.9
	L17.2,41.9C17.2,41.8,17.2,41.9,17.2,41.9L17.2,41.9C17.2,41.9,17.2,41.9,17.2,41.9c-0.2,1.1-1,1.8-1.5,2.2
	c-0.1,0.1-0.2,0.2-0.3,0.7c-0.4-0.1-0.7,0.2-0.7,0.6c0,0.6,0.3,1.2,1.9,1.2c-0.2,0,1-0.5,1-1c0-0.4-1.1-0.8-1.6-0.8
	c-0.3,0-0.6,0.3-0.6,0.6c0,0.2,0.2,0.4,1.3,0.4c-0.7,0-0.5-0.1-0.5-0.3c0-0.1-0.1,0.4-0.2,0.4c0,0-0.1,0.1-0.1,0.3
	c0-0.8,0.1-0.8,0.1-0.7c0,0.1,0.4,0.2-0.2,0.2c-0.1,0-0.2-0.1-0.2-0.1c0,0,0,0,0-0.1c0-0.2,0.2-0.4,0.5-0.4c0.3,0,0.6,1.1,0.6,0.5
	c0,0.3-0.3,0.6,0.2,0.6c-1.3,0-1.7-0.3-1.7-0.7c0-0.5,0.4-0.9,1-0.9c0.5,0,1,0.3,1.1,1.6V41.9z M17.2,45.9c-0.1,0.2-0.2,0.5-0.3,0.6
	c-0.1,0.1-0.2,0.2-0.4,0.2h0.7V45.9z M17.2,47h-0.8c0.2,0.1,0.3,0.2,0.4,0.9c0.2-0.5,0.3-0.2,0.3,0V47z M17.2,51.9v-3.4
	c-0.1,0.5-0.6,1.3-1.1,1.3c-0.5,0-1-0.9-1-1.3c0-0.4,0.4-0.7,1.7-0.7c-0.5,0-0.2,0.3-0.2,1.1c0-0.2-0.3,0.1-0.6,0.1
	c-0.3,0-0.5-0.2-0.5-0.4c0,0,0,0.7,0,0.5c0-0.6,0.1-0.7,0.2-0.7c0.6,0,0.2,0.2,0.2,0.2c0,0,0,0.1-0.1,0.1c0,0,0.1,0,0.1,0
	c0.1,0,0.2-0.1,0.2,0.2c0-0.6-0.2-0.8,0.5-0.8c-1.1,0-1.3,0.2-1.3,0.4c0,0.3,0.3,0.6,0.6,0.6c0.5,0,1.6-0.3,1.6-0.8c0-0.6-1.2-1-1-1
	c-1.5,0-1.9,0.6-1.9,1.2c0,0.4,0.2,0.7,0.7,1.1c0.1,0.1,0.2,0.1,0.3,0.2C16.2,50.1,17,50.8,17.2,51.9C17.2,51.9,17.2,51.9,17.2,51.9
	L17.2,51.9C17.2,51.9,17.2,51.9,17.2,51.9L17.2,51.9z M17.2,52.4c0,0.6,0.6,1.1-0.7,1.7c-0.4,0.5-0.8,0.8-1.1,1
	c-0.5,0.4-0.8,0.8-0.8,2.1c0-0.3,0.4,0.2,1,0.3c0,0,0,0,0,0c0,0.6,0.1-0.2,1.1-0.2c-0.7,0-0.6,0.9-0.6,0.2c0,0,0,0,0,0
	c0.4-0.1,1-0.5,1-0.9c0-0.4-0.7-0.7-1.1-0.7c-0.3,0-0.6,0.2-0.6,0.5c0,0.2,0.2,0.4,0.4,0.4c0.2,0,0.3-0.1,0.3-0.3
	c0-0.1-0.1-0.2-0.2-0.2c0,0,0,0-0.1,0c0,0,0.1,0.1,0.1,0.1c0,0.1-0.1,0.2-0.1,0.2c-0.2,0-0.3-0.1-0.4-0.2c0,0,0,0,0-0.1
	c0-0.2,0.2-0.4,0.5-0.4c0.3,0,0.5,0.5,0.5,0.5c0,0.3-0.3,0.6-0.6,0.6c-0.4,0-0.7-0.3-0.7-0.7c0-0.4,0.4-0.8,0.9-0.8
	c0.6,0,1,0.4,1.1,0.9V52.4z M17.2,56.6c0,0.3-0.1,0.6-0.4,0.8c-0.1,0.1-0.3,0.2-0.4,0.2h0.8V56.6z M17.2,61.4c0,0-0.1,0-0.1,0h-1
	c-0.5-0.1-0.9-0.3-1.2-0.7c-0.3-0.4-0.5-0.9-0.4-1.4c0-0.4,0.2-0.8,0.5-1.1c0.3-0.3,0.7-0.4,1.1-0.3c0.3,0,0.6,0.2,1.5,0.5
	c-0.5,0.3-0.4,0.6-0.4,0.9c0,0.3-0.2,0.5-0.4,0.7c-0.2,0.9-0.5,0.3-0.7,0.2c-0.2,0-0.4-0.1-0.6-0.3c-0.1-0.2-0.2-0.4-0.2-0.6
	c0-0.2,0.1-0.4,0.3-0.5c0.1-0.1,0.9-0.2,0.5-0.2c0.2,0,0.3,0.1,0.4,0.2c0.1,0.1,0.1,0.5,0.1,0.5c0,0.1-0.1,0.3-0.2,0.4
	c-0.1,0.1-0.2,0.1-0.4,0.1l0,0c0.6,0-0.2-0.1-0.2-0.2c0-0.1,0.8-0.2,0.2-0.2c0.1,0,0.1,0,0.2,0.1c0,0,0.1-0.1,0.1-0.1
	c0,0.6,0,0.4-0.1-0.2c0-0.1-0.1-0.1-0.2-0.1c-0.1,0-0.1,0-0.3,0.1c-0.1,0.1-0.1,1-0.1,0.3c0,0.1,0,0.3,0.1,0.4
	c0.1,0.1,0.2,0.2,0.3,0.2c0.2,0,0.4,0,0.5-0.2c0.1-0.1,0.2-0.3,0.4-0.5c0.2-0.2-0.2-0.5-0.4-0.7c-0.2-0.2-0.4-0.3-0.6-0.3
	c-0.3,0.7-0.6,0.1-0.9,0.3c-0.2,0.2-0.4,0.5-0.4,0.8c-0.1,1.4,0.5,1.6,1.3,1.7h1c0,0,0.1,0,0.1,0V58h-2.8v3.5L17.2,61.4L17.2,61.4z
	 M18.5,57c-0.1-0.1-0.2-0.2-0.2-0.4c0-0.2,0.1,0.6,0.2-0.1v-0.7c-0.1-0.1-0.2-0.2-0.2-0.4c0-0.2,0.1-0.3,0.2-0.4v-0.3
	c-0.1-0.1-0.2-0.2-0.2-0.4c0,0.3,0.1-0.3,0.2-0.4v-0.3c-0.1-0.1-0.2-0.2-0.2-0.4c0-0.2,0.1-0.3,0.2-0.4v-0.3
	c-0.1-0.1-0.2-0.2-0.2-0.1c0-0.5,0.1-0.6,0.2-0.7v-0.3c-0.1-0.1-0.2-0.2-0.2-0.4s0.1-0.3,0.2-0.4v-0.3c-0.1-0.1-0.2-0.1-0.2-0.4
	c0-0.2,0.1-0.3,0.2-0.4v-0.3c-0.1,0.5-0.2-0.2-0.2-0.4c0-0.2,0.1-0.3,0.2-0.4v-0.1c-0.1-0.3-0.2-0.5-0.2-0.6c0-0.2,0.1-0.3,0.2-0.4
	v-0.3c-0.1-0.1-0.2-0.2-0.2-0.4c0-0.2,0.1-0.3,0.2-0.4v-0.3c-0.1-0.1-0.2-0.2-0.2-0.4c0-0.2,0.1-0.3,0.2,0.2V45
	c-0.1-0.1-0.2-0.2-0.2-0.4c0-0.2,0.1-0.1,0.2-0.4v-0.3c-0.1-0.1-0.2-0.2-0.2-0.4c0,0.5,0.1-0.3,0.2-0.4v-0.3
	c-0.1-0.1-0.2-0.2-0.2-0.4c0-0.2,0.1-0.3,0.2-0.4v-0.3c-0.1-0.1-0.2-0.2-0.2,0.1c0-0.7,0.1-0.9,0.2-0.9v-0.3
	c-0.1-0.1-0.2-0.2-0.2-0.4c0-0.2,0.1-0.3,0.2-0.4v-0.3c-0.1-0.1-0.2,0.1-0.2-0.4c0-0.2,0.1-0.3,0.2-0.4v-0.3
	c-0.1,0.7-0.2-0.2-0.2-0.4c0-0.2,0.1-0.3,0.2-0.4v0.2c-0.1-0.6-0.2-0.7-0.2-0.9c0-0.2,0.1-0.3,0.2-0.4v-0.4h-0.9v21.5h0.8
	c-0.1-0.3-0.4-0.7-0.3-0.9c-0.4-0.3-0.3-0.3-0.3-0.3s0.6,0.1,0.6,0.8V57z M19.6,36.1h-1v0.4c0.1,0.1,0.2,0.2,0.2,0.4
	c0,0.2-0.1,0.5-0.2,1v-0.3c0.1,0.1,0.2,0.2,0.2,0.4c0,0.2-0.1,0.3-0.2,0.4v0.3c0.1,0.1,0.2,0.2,0.2,0.4c0,0.7-0.1,0.3-0.2,0.4v0.3
	c0.1,0.1,0.2,0.2,0.2,0.4c0,0.2-0.1,0.3-0.2,0.4v0.3c0.1,0.1,0.2,0.2,0.2,0.9c0-0.3-0.1-0.2-0.2-0.1V42c0.1,0.1,0.2,0.2,0.2,0.4
	c0,0.2-0.1,0.3-0.2,0.4v0.3c0.1,0.1,0.2,0.8,0.2,0.4c0,0.2-0.1,0.3-0.2,0.4v0.3c0.1,0.4,0.2,0.2,0.2,0.4c0,0.2-0.1,0.3-0.2,0.4v0.7
	c0.1-0.4,0.2-0.2,0.2,0c0,0.2-0.1,0.3-0.2,0.4v0.3c0.1,0.1,0.2,0.2,0.2,0.4c0,0.2-0.1,0.3-0.2,0.4v0.3c0.1,0,0.2,0.2,0.2,0.4
	c0,0.2-0.1,0.3-0.2,0.8v-0.1c0.1,0.1,0.2,0.2,0.2,0.4c0,0.2-0.1,1.1-0.2,0.4v0.3c0.1,0.1,0.2,0.2,0.2,0.4c0,0.4-0.1,0.3-0.2,0.4v0.3
	c0.1,0.1,0.2,0.2,0.2,0.4c0,0.2-0.1,0.3-0.2,0.4v0.3c0.1,0.1,0.2,0.2,0.2,0.7c0-0.1-0.1,0.1-0.2,0.1V53c0.1,0.1,0.2,0.2,0.2,0.4
	s-0.1,0.3-0.2,0.4V54c0.1,0.1,0.2,0.6,0.2,0.4c0,0.2-0.1,0.3-0.2,0.4v0.3c0.1,0.1,0.2,0.2,0.2,0.4c0,0.2-0.1,0.3-0.2,0.4v0.5
	c0.1,0.5,0.2,0,0.2,0.2c0,0.2-0.1,0.3-0.2,0.4v0.5l0-0.1c0.1-0.8,0.7-0.9,0.7-0.9s0.2,0-0.1,0.3c-0.2,0.2-0.4,0.6-0.5,0.9h0.9V36.1z
	 M21.4,57c-0.5-0.1-0.6-0.2-0.6-0.4c0-0.2,0.1,0.6,0.6-0.1v-0.7c-0.5-0.1-0.6-0.2-0.6-0.4c0-0.2,0.1-0.3,0.6-0.4v-0.3
	c-0.5-0.1-0.6-0.2-0.6-0.4c0,0.3,0.1-0.3,0.6-0.4v-0.3c-0.5-0.1-0.6-0.2-0.6-0.4c0-0.2,0.1-0.3,0.6-0.4v-0.3
	c-0.5-0.1-0.6-0.2-0.6-0.1c0-0.5,0.1-0.6,0.6-0.7v-0.3c-0.5-0.1-0.6-0.2-0.6-0.4s0.1-0.3,0.6-0.4v-0.3c-0.5-0.1-0.6-0.1-0.6-0.4
	c0-0.2,0.1-0.3,0.6-0.4v-0.3c-0.5,0.5-0.6-0.2-0.6-0.4c0-0.2,0.1-0.3,0.6-0.4v-0.1c-0.5-0.3-0.6-0.5-0.6-0.6c0-0.2,0.1-0.3,0.6-0.4
	v-0.3c-0.5-0.1-0.6-0.2-0.6-0.4c0-0.2,0.1-0.3,0.6-0.4v-0.3c-0.5-0.1-0.6-0.2-0.6-0.4c0-0.2,0.1-0.3,0.6,0.2V45
	c-0.5-0.1-0.6-0.2-0.6-0.4c0-0.2,0.1-0.1,0.6-0.4v-0.3c-0.5-0.1-0.6-0.2-0.6-0.4c0,0.5,0.1-0.3,0.6-0.4v-0.3
	c-0.5-0.1-0.6-0.2-0.6-0.4c0-0.2,0.1-0.3,0.6-0.4v-0.3c-0.5-0.1-0.6-0.2-0.6,0.1c0-0.7,0.1-0.9,0.6-0.9v-0.3
	c-0.5-0.1-0.6-0.2-0.6-0.4c0-0.2,0.1-0.3,0.6-0.4v-0.3c-0.5-0.1-0.6,0.1-0.6-0.4c0-0.2,0.1-0.3,0.6-0.4v-0.3
	c-0.5,0.7-0.6-0.2-0.6-0.4c0-0.2,0.1-0.3,0.6-0.4v0.2c-0.5-0.6-0.6-0.7-0.6-0.9c0-0.2,0.1-0.3,0.6-0.4v-0.4h-0.5v21.5h0
	c-0.1-0.2-0.4-0.7-0.5-0.9c-0.2-0.3-0.1-0.3-0.1-0.3s0.6,0.1,1.1,0.9V57z M22,36.1h-0.9v0.4c0.1,0.1,0.2,0.2,0.2,0.4
	c0,0.2-0.1,0.5-0.2,1v-0.3c0.1,0.1,0.2,0.2,0.2,0.4c0,0.2-0.1,0.3-0.2,0.4v0.3c0.1,0.1,0.2,0.2,0.2,0.4c0,0.7-0.1,0.3-0.2,0.4v0.3
	c0.1,0.1,0.2,0.2,0.2,0.4c0,0.2-0.1,0.3-0.2,0.4v0.3c0.1,0.1,0.2,0.2,0.2,0.9c0-0.3-0.1-0.2-0.2-0.1V42c0.1,0.1,0.2,0.2,0.2,0.4
	c0,0.2-0.1,0.3-0.2,0.4v0.3c0.1,0.1,0.2,0.8,0.2,0.4c0,0.2-0.1,0.3-0.2,0.4v0.3c0.1,0.4,0.2,0.2,0.2,0.4c0,0.2-0.1,0.3-0.2,0.4v0.7
	c0.1-0.4,0.2-0.2,0.2,0c0,0.2-0.1,0.3-0.2,0.4v0.3c0.1,0.1,0.2,0.2,0.2,0.4c0,0.2-0.1,0.3-0.2,0.4v0.3c0.1,0,0.2,0.2,0.2,0.4
	c0,0.2-0.1,0.3-0.2,0.8v-0.1c0.1,0.1,0.2,0.2,0.2,0.4c0,0.2-0.1,1.1-0.2,0.4v0.3c0.1,0.1,0.2,0.2,0.2,0.4c0,0.4-0.1,0.3-0.2,0.4v0.3
	c0.1,0.1,0.2,0.2,0.2,0.4c0,0.2-0.1,0.3-0.2,0.4v0.3c0.1,0.1,0.2,0.2,0.2,0.7c0-0.1-0.1,0.1-0.2,0.1V53c0.1,0.1,0.2,0.2,0.2,0.4
	s-0.1,0.3-0.2,0.4V54c0.1,0.1,0.2,0.6,0.2,0.4c0,0.2-0.1,0.3-0.2,0.4v0.3c0.1,0.1,0.2,0.2,0.2,0.4c0,0.2-0.1,0.3-0.2,0.4v0.5
	c0.1,0.5,0.2,0,0.2,0.2c0,0.2-0.1,0.3-0.2,0.4v0.4v0c0.1-0.8,0.7-0.9,0.7-0.9s0.6,0-0.1,0.3c-0.2,0.2-0.4,0.6-0.5,0.9H22V36.1z
	 M23.4,57c-0.1-0.1-0.2-0.2-0.2-0.4c0-0.2,0.1,0.6,0.2-0.1v-0.7c-0.1-0.1-0.2-0.2-0.2-0.4c0-0.2,0.1-0.3,0.2-0.4v-0.3
	c-0.1-0.1-0.2-0.2-0.2-0.4c0,0.3,0.1-0.3,0.2-0.4v-0.3c-0.1-0.1-0.2-0.2-0.2-0.4c0-0.2,0.1-0.3,0.2-0.4v-0.3
	c-0.1-0.1-0.2-0.2-0.2-0.1c0-0.5,0.1-0.6,0.2-0.7v-0.3c-0.1-0.1-0.2-0.2-0.2-0.4s0.1-0.3,0.2-0.4v-0.3c-0.1-0.1-0.2-0.1-0.2-0.4
	c0-0.2,0.1-0.3,0.2-0.4v-0.3c-0.1,0.5-0.2-0.2-0.2-0.4c0-0.2,0.1-0.3,0.2-0.4v-0.1c-0.1-0.3-0.2-0.5-0.2-0.6c0-0.2,0.1-0.3,0.2-0.4
	v-0.3c-0.1-0.1-0.2-0.2-0.2-0.4c0-0.2,0.1-0.3,0.2-0.4v-0.3c-0.1-0.1-0.2-0.2-0.2-0.4c0-0.2,0.1-0.3,0.2,0.2V45
	c-0.1-0.1-0.2-0.2-0.2-0.4c0-0.2,0.1-0.1,0.2-0.4v-0.3c-0.1-0.1-0.2-0.2-0.2-0.4c0,0.5,0.1-0.3,0.2-0.4v-0.3
	c-0.1-0.1-0.2-0.2-0.2-0.4c0-0.2,0.1-0.3,0.2-0.4v-0.3c-0.1-0.1-0.2-0.2-0.2,0.1c0-0.7,0.1-0.9,0.2-0.9v-0.3
	c-0.1-0.1-0.2-0.2-0.2-0.4c0-0.2,0.1-0.3,0.2-0.4v-0.3c-0.1-0.1-0.2,0.1-0.2-0.4c0-0.2,0.1-0.3,0.2-0.4v-0.3
	c-0.1,0.7-0.2-0.2-0.2-0.4c0-0.2,0.1-0.3,0.2-0.4v0.2c-0.1-0.6-0.2-0.7-0.2-0.9c0-0.2,0.1-0.3,0.2-0.4v-0.4h-1v21.5h1
	c-0.1-0.2,0.4-0.7-0.5-0.9c-0.2-0.3-0.1-0.3-0.1-0.3s0.6,0.1,0.7,0.9V57z M24.4,36.1h-0.9v0.4c0.1,0.1,0.2,0.2,0.2,0.4
	c0,0.2-0.1,0.5-0.2,1v-0.3c0.1,0.1,0.2,0.2,0.2,0.4c0,0.2-0.1,0.3-0.2,0.4v0.3c0.1,0.1,0.2,0.2,0.2,0.4c0,0.7-0.1,0.3-0.2,0.4v0.3
	c0.1,0.1,0.2,0.2,0.2,0.4c0,0.2-0.1,0.3-0.2,0.4v0.3c0.1,0.1,0.2,0.2,0.2,0.9c0-0.3-0.1-0.2-0.2-0.1V42c0.1,0.1,0.2,0.2,0.2,0.4
	c0,0.2-0.1,0.3-0.2,0.4v0.3c0.1,0.1,0.2,0.8,0.2,0.4c0,0.2-0.1,0.3-0.2,0.4v0.3c0.1,0.4,0.2,0.2,0.2,0.4c0,0.2-0.1,0.3-0.2,0.4v0.7
	c0.1-0.4,0.2-0.2,0.2,0c0,0.2-0.1,0.3-0.2,0.4v0.3c0.1,0.1,0.2,0.2,0.2,0.4c0,0.2-0.1,0.3-0.2,0.4v0.3c0.1,0,0.2,0.2,0.2,0.4
	c0,0.2-0.1,0.3-0.2,0.8v-0.1c0.1,0.1,0.2,0.2,0.2,0.4c0,0.2-0.1,1.1-0.2,0.4v0.3c0.1,0.1,0.2,0.2,0.2,0.4c0,0.4-0.1,0.3-0.2,0.4v0.3
	c0.1,0.1,0.2,0.2,0.2,0.4c0,0.2-0.1,0.3-0.2,0.4v0.3c0.1,0.1,0.2,0.2,0.2,0.7c0-0.1-0.1,0.1-0.2,0.1V53c0.1,0.1,0.2,0.2,0.2,0.4
	s-0.1,0.3-0.2,0.4V54c0.1,0.1,0.2,0.6,0.2,0.4c0,0.2-0.1,0.3-0.2,0.4v0.3c0.1,0.1,0.2,0.2,0.2,0.4c0,0.2-0.1,0.3-0.2,0.4v0.5
	c0.1,0.5,0.2,0,0.2,0.2c0,0.2-0.1,0.3-0.2,0.4v0.4l0,0c0.1-0.8,0.7-0.9,0.7-0.9s0.2,0-0.1,0.3c-0.2,0.2-0.4,0.6-0.5,0.9h0.8V36.1z
	 M25.7,57c-0.1-0.1-0.2-0.2-0.2-0.4c0-0.2,0.1,0.6,0.2-0.1v-0.7c-0.1-0.1-0.2-0.2-0.2-0.4c0-0.2,0.1-0.3,0.2-0.4v-0.3
	c-0.1-0.1-0.2-0.2-0.2-0.4c0,0.3,0.1-0.3,0.2-0.4v-0.3c-0.1-0.1-0.2-0.2-0.2-0.4c0-0.2,0.1-0.3,0.2-0.4v-0.3
	c-0.1-0.1-0.2-0.2-0.2-0.1c0-0.5,0.1-0.6,0.2-0.7v-0.3c-0.1-0.1-0.2-0.2-0.2-0.4s0.1-0.3,0.2-0.4v-0.3c-0.1-0.1-0.2-0.1-0.2-0.4
	c0-0.2,0.1-0.3,0.2-0.4v-0.3c-0.1,0.5-0.2-0.2-0.2-0.4c0-0.2,0.1-0.3,0.2-0.4v-0.1c-0.1-0.3-0.2-0.5-0.2-0.6c0-0.2,0.1-0.3,0.2-0.4
	v-0.3c-0.1-0.1-0.2-0.2-0.2-0.4c0-0.2,0.1-0.3,0.2-0.4v-0.3c-0.1-0.1-0.2-0.2-0.2-0.4c0-0.2,0.1-0.3,0.2,0.2V45
	c-0.1-0.1-0.2-0.2-0.2-0.4c0-0.2,0.1-0.1,0.2-0.4v-0.3c-0.1-0.1-0.2-0.2-0.2-0.4c0,0.5,0.1-0.3,0.2-0.4v-0.3
	c-0.1-0.1-0.2-0.2-0.2-0.4c0-0.2,0.1-0.3,0.2-0.4v-0.3c-0.1-0.1-0.2-0.2-0.2,0.1c0-0.7,0.1-0.9,0.2-0.9v-0.3
	c-0.1-0.1-0.2-0.2-0.2-0.4c0-0.2,0.1-0.3,0.2-0.4v-0.3c-0.1-0.1-0.2,0.1-0.2-0.4c0-0.2,0.1-0.3,0.2-0.4v-0.3
	c-0.1,0.7-0.2-0.2-0.2-0.4c0-0.2,0.1-0.3,0.2-0.4v0.2c-0.1-0.6-0.2-0.7-0.2-0.9c0-0.2,0.1-0.3,0.2-0.4v-0.4h-0.9v21.5h0.9
	c-0.1-0.2-0.4-0.7-0.5-0.9c-0.2-0.3-0.1-0.3-0.1-0.3s0.6,0.1,0.7,0.9V57z M26.8,36.1h-1v0.4c0.9,0.1,0.2,0.2,0.2,0.4
	c0,0.2,0.7,0.5-0.2,1v-0.3c0.9,0.1,0.2,0.2,0.2,0.4c0,0.2,0.7,0.3-0.2,0.4v0.3c0.9,0.1,0.2,0.2,0.2,0.4c0,0.7,0.7,0.3-0.2,0.4v0.3
	c0.9,0.1,0.2,0.2,0.2,0.4c0,0.2,0.7,0.3-0.2,0.4v0.3c0.9,0.1,0.2,0.2,0.2,0.9c0-0.3,0.7-0.2-0.2-0.1V42c0.9,0.1,0.2,0.2,0.2,0.4
	c0,0.2,0.7,0.3-0.2,0.4v0.3c0.9,0.1,0.2,0.8,0.2,0.4c0,0.2,0.7,0.3-0.2,0.4v0.3c0.9,0.4,0.2,0.2,0.2,0.4c0,0.2,0.7,0.3-0.2,0.4v0.7
	c0.9-0.4,0.2-0.2,0.2,0c0,0.2,0.7,0.3-0.2,0.4v0.3c0.9,0.1,0.2,0.2,0.2,0.4c0,0.2,0.7,0.3-0.2,0.4v0.3c0.9,0,0.2,0.2,0.2,0.4
	c0,0.2,0.7,0.3-0.2,0.8v-0.1c0.9,0.1,0.2,0.2,0.2,0.4c0,0.2,0.7,1.1-0.2,0.4v0.3c0.9,0.1,0.2,0.2,0.2,0.4c0,0.4,0.7,0.3-0.2,0.4v0.3
	c0.9,0.1,0.2,0.2,0.2,0.4c0,0.2,0.7,0.3-0.2,0.4v0.3c0.9,0.1,0.2,0.2,0.2,0.7c0-0.1,0.7,0.1-0.2,0.1V53c0.9,0.1,0.2,0.2,0.2,0.4
	s0.7,0.3-0.2,0.4V54c0.9,0.1,0.2,0.6,0.2,0.4c0,0.2,0.7,0.3-0.2,0.4v0.3c0.9,0.1,0.2,0.2,0.2,0.4c0,0.2,0.7,0.3-0.2,0.4v0.5
	c0.9,0.5,0.2,0,0.2,0.2c0,0.2,0.7,0.3-0.2,0.4v0.4c0.5-0.8,0.7-0.9,0.7-0.9s0.2,0-0.1,0.3c-0.2,0.2-0.4,0.6,0,0.9h0.4V36.1z
	 M28.1,57C28,57,28,56.8,28,56.6c0-0.2,0.1,0.6,0.2-0.1v-0.7C28,55.9,28,55.7,28,55.5c0-0.2,0.1-0.3,0.2-0.4v-0.3
	C28,54.8,28,54.6,28,54.4c0,0.3,0.1-0.3,0.2-0.4v-0.3C28,53.7,28,53.5,28,53.4c0-0.2,0.1-0.3,0.2-0.4v-0.3C28,52.6,28,52.4,28,52.5
	c0-0.5,0.1-0.6,0.2-0.7v-0.3C28,51.5,28,51.3,28,51.2s0.1-0.3,0.2-0.4v-0.3C28,50.4,28,50.4,28,50.1c0-0.2,0.1-0.3,0.2-0.4v-0.3
	C28,49.9,28,49.1,28,49c0-0.2,0.1-0.3,0.2-0.4v-0.1C28,48.2,28,48,28,47.9c0-0.2,0.1-0.3,0.2-0.4v-0.3C28,47.1,28,46.9,28,46.8
	c0-0.2,0.1-0.3,0.2-0.4v-0.3C28,46,28,45.8,28,45.7c0-0.2,0.1-0.3,0.2,0.2V45C28,44.9,28,44.7,28,44.6c0-0.2,0.1-0.1,0.2-0.4v-0.3
	C28,43.8,28,43.6,28,43.5c0,0.5,0.1-0.3,0.2-0.4v-0.3C28,42.7,28,42.6,28,42.4c0-0.2,0.1-0.3,0.2-0.4v-0.3C28,41.6,28,41.5,28,41.8
	c0-0.7,0.1-0.9,0.2-0.9v-0.3C28,40.5,28,40.4,28,40.2c0-0.2,0.1-0.3,0.2-0.4v-0.3C28,39.4,28,39.6,28,39.1c0-0.2,0.1-0.3,0.2-0.4
	v-0.3C28,39.1,28,38.2,28,38c0-0.2,0.1-0.3,0.2-0.4v0.2C28,37.2,28,37.1,28,36.9c0-0.2,0.1-0.3,0.2-0.4v-0.4h-1v21.5h0.9
	c0.6-0.3-0.4-0.7-0.5-0.9c-0.2-0.3-0.1-0.3-0.1-0.3s0.6,0.1,0.7,0.9V57z M29.2,36.1h-0.9v0.4c0.1,0.1,0.2,0.2,0.2,0.4
	c0,0.2-0.1,0.5-0.2,1v-0.3c0.1,0.1,0.2,0.2,0.2,0.4c0,0.2-0.1,0.3-0.2,0.4v0.3c0.1,0.1,0.2,0.2,0.2,0.4c0,0.7-0.1,0.3-0.2,0.4v0.3
	c0.1,0.1,0.2,0.2,0.2,0.4c0,0.2-0.1,0.3-0.2,0.4v0.3c0.1,0.1,0.2,0.2,0.2,0.9c0-0.3-0.1-0.2-0.2-0.1V42c0.1,0.1,0.2,0.2,0.2,0.4
	c0,0.2-0.1,0.3-0.2,0.4v0.3c0.1,0.1,0.2,0.8,0.2,0.4c0,0.2-0.1,0.3-0.2,0.4v0.3c0.1,0.4,0.2,0.2,0.2,0.4c0,0.2-0.1,0.3-0.2,0.4v0.7
	c0.1-0.4,0.2-0.2,0.2,0c0,0.2-0.1,0.3-0.2,0.4v0.3c0.1,0.1,0.2,0.2,0.2,0.4c0,0.2-0.1,0.3-0.2,0.4v0.3c0.1,0,0.2,0.2,0.2,0.4
	c0,0.2-0.1,0.3-0.2,0.8v-0.1c0.1,0.1,0.2,0.2,0.2,0.4c0,0.2-0.1,1.1-0.2,0.4v0.3c0.1,0.1,0.2,0.2,0.2,0.4c0,0.4-0.1,0.3-0.2,0.4v0.3
	c0.1,0.1,0.2,0.2,0.2,0.4c0,0.2-0.1,0.3-0.2,0.4v0.3c0.1,0.1,0.2,0.2,0.2,0.7c0-0.1-0.1,0.1-0.2,0.1V53c0.1,0.1,0.2,0.2,0.2,0.4
	s-0.1,0.3-0.2,0.4V54c0.1,0.1,0.2,0.6,0.2,0.4c0,0.2-0.1,0.3-0.2,0.4v0.3c0.1,0.1,0.2,0.2,0.2,0.4c0,0.2-0.1,0.3-0.2,0.4v0.5
	c0.1,0.5,0.2,0,0.2,0.2c0,0.2-0.1,0.3-0.2,0.4v0.5l0-0.1c0.1-0.8,0.7-0.9,0.7-0.9s0.2,0,0.2,0.3c-0.4,0.2-0.7,0.6-0.8,0.9h0.8V36.1z
	 M29.2,58H17.5v0.9c0-0.1,0.1-0.3,0.2-0.4c0.4-0.2,0.4-0.4,0.7-0.5c0.1,0,0.1,0,0.2,0c0,0,0,0,0,0c0.2,0,0.4,0.1,0.7,0.2
	c0.2,0.1,0.4,0.3,0.5,0.5c0.3,0.4,0.5,0.8,0.7,1.2c0.1,0.1,0.1,0.2,0.2,0.3c0.2,0.3,0.4,0.6,0.6,0.8c0.2,0.2,0.5,1.1,1.5,1.1
	c0,0,0.3-1.5,0.4-2.1c0.1,0-0.3-1.3-0.9-1.4c-0.2,0,0.1,0-0.5,0.2c-0.2,0.2-0.3,0.4-0.3,0.6c0,0.2,0,0.4,0.1,0.6
	c0.1,0.2,0.2,0.3,1.1,0.3c-0.6,0-0.5,0-0.4-0.1c0.1-0.1,0.2-0.2,0.2-0.4c0-0.1,0-0.2-0.1-0.3c0,0,0-0.1-0.1-0.1c0,0-0.1,0.1-0.1,0.1
	c-0.1,0,0.5,0.6,0.5-0.2c0-0.1-0.6-0.2-0.5-0.2c0,0,0,0,0,0l0,0c0.3,0.1,0.5,0.4,0.5,0.8c0,0.2-0.1,0.4-0.3,0.6
	c-0.2,0.1-0.3,0.2-0.3,0.2c-0.5,0-0.7,0.7-0.8-0.4c-0.1-0.2-0.2-0.5-0.2,0c0-1.1,0.2-1.4,0.4-1.6c0.2,0.1,0.5-0.3,0.8-0.2
	c0.3,0.6,0.6,0.3,0.8,0.6c0.1,0.1,0.2,0.3,0.2,1.1c0-0.9,0.1-1,0.2-1.1c0.2-0.3,0.5,0,0.8-0.6c0.3-0.1,0.5,0.3,0.8,0.2
	c0.2,0.2,0.4,0.5,0.4,1.6c0-0.5,0-0.2-0.1,0c-0.1,1.1-0.3,0.4-0.4,0.4c-0.4,0-0.6,0-0.7-0.2c-0.1-0.1-0.2-0.3-0.3-0.6
	c0-0.4,0.2-0.8,0.5-0.8l0,0c0,0,0,0,0,0c0.1,0,0.2,0.1,0.2,0.2c0,0.8-0.1,0.2-0.2,0.2c-0.1,0-0.1,0-0.1-0.1c0,0,0,0.1-0.1,0.1
	c-0.1,0.1-0.1,0.2-0.1,0.3c0,0.2,0.1,0.3,0.2,0.4c0.1,0.1,0.2,0.1,0.3,0.1c0.1,0,0.3-0.1,0.4-0.3c0.1-0.2,0.1-0.4,0.1-0.6
	c0-0.3-0.1-0.5-0.3-0.6c-0.2-0.1-0.3-0.2-0.5-0.2c0,0.1-0.9,1.4-0.9,1.4c0.1,0.6,1.1,2.1,1.2,2.1c0.2,0,0.4-0.9,0.7-1.1
	c0.2-0.2,1.2-0.5,0.6-0.8c0-0.1,0.1-0.2,0.2-0.3l0,0c0.2-0.4,0.4-0.8,0.7-1.2c0.2-0.2,0.3-0.4,0.5-0.5c0.2-0.1,1.3-0.2,0.7-0.2
	c0,0,0,0,0,0c0.1,0,0.1,0,0.2,0c0.3,0,0.7,0.3,0.7,0.5c0.1,0.1,0.1,0.3,0.2,0.4V58z M29.2,59.6c0,0.2-0.1,0.4-0.3,0.5
	c-0.2,0.2-0.4,0.3-0.6,0.2c-0.2,0-0.4,0.1-0.4-0.3c-0.2-0.2-0.3-0.4-0.2-0.6c0,0.5,0.1-0.4,0.8-0.5c-0.5-0.1-0.3-0.2-0.2-0.2
	c0.1,0,0.3,0.1,0.3,0.2c0.1,0.1,0.1,0.8,0.1,0.4c0,0.1-0.1,0.3-0.1,0.4c-0.1,0.1-0.2,0.1-0.3,0.1c0,0,0,0-0.1,0
	c-0.1,0-0.1-0.1-0.1-0.2c0-0.1,0.1-0.2,0.2-0.2c0.1,0,0.1,0,0.1,0.1c0,0,0-0.1,0-0.1c0-0.1,0,0.1-0.1-0.2c0-0.1-0.1-0.1-0.1-0.1
	c-0.1,0-0.1,0-0.2,0.1c-0.1,0.2-0.1,0.2-0.1,0.3c0,0.2,0,0.3,0.1,0.4c0.1,0.1,0.2,0.2,0.3,0.2c0.1,0,0.3,0,0.4-0.2
	c0.4-0.1,0.2-0.3,0.2-0.5c0-0.3,0.7-0.5-0.2-0.7c-0.1-0.2-0.3-0.3-0.5-0.3c-0.2,0.8-0.5,0.1-0.7,0.3c-0.2,0.2-0.3,0.5-0.4,0.8
	c-0.1,0.9,0.4,1.7,1.1,1.8h0.8c0,0,0,0.2,0,0.1V59.6z M29.5,61.2C29.5,61.2,29.6,61.1,29.5,61.2l1.1,0c0.8-0.1,1.4-0.3,2.2-1.7
	c-0.3-0.3-1-0.6-1.3-0.8c-0.2-0.2-0.5,0.4-0.9-0.3c-0.2,0-0.5,0.1-0.6,0.3c0.3,0.2-0.2,0.4-0.1,0.7c0.1,0.2,0,0.4,0.2,0.5
	c0.1,0.1,0.3,0.2,0.5,0.2c0.1,0,0.4-0.1,0.3-0.2c0.1-0.1,0.1-0.3,0.1-0.4c0,0.7-0.1-0.2,0.6-0.3c-0.6-0.1-0.9-0.1-1-0.1
	c-0.1,0-0.1,0-0.2,0.1c0,0.5-0.1,0.8-0.1,0.2c0,0,0,0.1,0.1,0.1c0-0.1,0.1-0.1,0.2-0.1c0.1,0,0.6,0.1,0.6,0.2c0,0.1-0.5,0.2-0.6,0.2
	h0c0,0,0,0,0,0c-0.1,0-0.3,0-0.4-0.1c-0.1-0.1-0.2-0.2-0.2-0.4c0,0,0-0.3,0.1-0.5c0.1-0.1,0.2-0.2,0.4-0.2c0.2,0,0.4,0,0.5,0.2
	c0.1,0.1,0.2,0.3,0.3,0.5c0,0.2,0,0.5-0.2,0.6c-0.1,0.2-0.2,0.3-0.6,0.3c-0.3,0-0.5,0.7-0.4-0.2c-0.6-0.2-0.7-0.4-0.8-0.7
	c0-0.3,0.1-0.7,0.3-0.9c0.2-0.3,0.5-0.4,0.8-0.5c0.4,0,0.8,0.1,1.1,0.3c0.2,0.2,0.4,0.5,0.5,0.8V58h-2.7V61.2z M29.6,51.9L29.6,51.9
	C29.6,51.9,29.6,51.9,29.6,51.9c0.2-1.1,1-1.8,1.5-2.2c0.1-0.1,0.2-0.2,0.3-0.2c0.4-0.4,0.6-0.7,0.6-1.1c0-0.6-0.3-1.2-0.8-1.2
	c-0.9,0-1.4,0.4-1.4,1c0,0.4,0.4,0.8,0.8,0.8c0.3,0,0.6-0.3,0.6-0.6c0-0.2-0.2-0.4-0.5-0.4c-0.2,0-0.3,0.1-0.3,0.8
	c0-0.3,0.1-0.2,0.2-0.2c0,0,0.1,0,0.1,0c0,0-0.1-0.1-0.1-0.1c0,0,0.1-0.2,0.2-0.2c0.1,0,0.2,0.1,0.2,0.8c0,0.1,0-0.6,0-0.6
	c0,0.2-0.2,0.4-0.5,0.4c-0.3,0-0.6-0.2-0.6-0.1c0-0.8,0.3-1.1,0.7-1.1c0.4,0,0.8,0.3,0.8,0.7c0,0.5-0.4,1.3-0.9,1.3
	c-0.6,0-1.1-0.9-1.1-0.6v8.6h0.8c-0.1-0.1-0.3-0.1,0.2-0.2c-0.8-0.2-1-0.5-1-0.8c0-0.5,0.5-1,1.1-1c0.5,0,0.9,0.4,0.9,0.8
	c0,0.4-0.3,0.7-0.7,0.7c-0.3,0-0.6-0.3-0.6-0.6c0,0,0.2-0.5,0.5-0.5c0.7,0,0.5,0.2,0.5,0.4c0,0,0,0,0,0.1c0,0.1-0.1,0.2,0,0.2
	c-0.4,0-0.5-0.1-0.5-0.2c0,0,0-0.1,0.1-0.1c0,0,0,0-0.1,0c-0.1,0-0.2,0.1-0.2,0.2c0,0.2,0.1,0.3,0.3,0.3c0.2,0,0.4-0.2,0.4-0.4
	c0-0.3,0.2-0.5-0.5-0.5c-0.4,0-0.6,0.3-0.6,0.7c0,0.4,0.1,0.8,0.6,0.9c0,0,0,0,0,0c0,0.6,0.1-0.2,0.2-0.2c0.1,0,0.2,0.9,0.2,0.2
	c0,0,0,0,0,0c0.6-0.1,1-0.6,1-0.3c0-1.3-0.3-1.7-0.8-2.1c-0.3-0.2-0.7-0.6-1.1-1c-0.4-0.6-0.7-1.2-0.7-1.1
	C29.5,52.1,29.6,52,29.6,51.9z M29.5,47v1.1c0-0.3,0.1-0.6,0.9-0.2c-0.3-0.8-0.2-0.8,0-0.9H29.5z M30.3,46.7
	c-0.1-0.1-0.3-0.1,0.1-0.2c-0.7,0.3-0.8-0.5-0.9-0.8v1H30.3z M30.8,36.6c-0.1,0-0.2-0.1-0.2-0.2c0,0,0,0,0,0
	c-0.4,0.1-0.6,0.5-0.6,0.9c0,0.4,0.2,0.7,0.6,0.7c0.8,0,0.5-0.2,0.5-0.5c0-0.2-0.2-0.4-0.4-0.4c-0.2,0-0.3,0.1-0.3,0.8
	c0-0.4,0.1-0.3,0.2-0.3c0,0,0,0,0.1,0c0,0-0.1-0.1-0.1-0.1c0-0.1,0.1-0.2,0.5-0.2c-0.1,0,0,0.1,0,0.8c0,0.2,0-0.6,0-0.6
	c0,0.2,0.2,0.4-0.5,0.4c-0.3,0-0.5-0.2-0.5,0c0-0.8,0.3-1.1,0.6-1.1c0.4,0,0.7,0.3,0.7,0.7c0,0.4-0.4,0.8-0.9,0.8
	c-0.6,0-1.1-0.4-1.1-1c0-0.3,0.1-0.6,1-0.8c-0.5,0.3-0.4-0.2-0.2-0.3h-0.8v9.4c0.1-0.5,0.5-1,1.1-1c0.5,0,0.9,0.4,0.9,0.9
	c0,0.4-0.4,0.7-0.8,0.7c-0.4,0-0.7-0.3-0.7-0.6c0,0.6,0.3-0.5,0.6-0.5c0.3,0,0.5,0.2,0.5,0.4c0,0,0,0,0,0.1c0,0.1-0.1,0.1-0.2,0.1
	c-0.1,0-0.2-0.1-0.2-0.2c0,0,0-0.1,0.1,0.7c0-0.2-0.1-0.3-0.1-0.3c-0.1,0-0.2-0.5-0.2-0.4c0,0.2,0.2,0.3,0.3,0.3
	c0.3,0,0.5-0.2,0.5-0.4c0-0.3-0.3-0.6-0.6-0.6c-0.5,0-0.8,0.3-0.8,0.8c0,0.6,0.5,1,1.4,1c0.4,0,0.8-0.6,0.8-1.2
	c0-0.4-0.2-0.7-0.6-0.6c-0.1-0.6-0.2-0.6-0.3-0.7c-0.5-0.4-1.3-1.1-1.5-2.1c0,0,0,0,0-0.1v0c0-0.1,0-0.2,0-0.3
	c0-0.7,0.2-0.8,0.7-1.9c0.3-0.2,0.8-0.8,1.1-1c0.5-0.4,0.8-0.8,0.8-1.2c0-0.6-0.4-1-1-1.1c0,0,0,0,0,0C31.1,36.5,31,36.6,30.8,36.6z
	 M32.2,36.1h-0.9c0.2,0.1,0.4,0.8,1.2,0.3c-0.5,0.1-0.4,0.2-0.3,0.4V36.1z M32.2,38.1c0,0.1,0,0.1-0.1,0.3c-0.2,0.1-0.4,0.4-0.7,0.6
	c-0.3,0.2-0.9,0.7-1.3,2.3c0.3-1.2,1.3-1.3,1-1.3c0.5,0,1,0.8,1,0.9c0,0.4-0.4,0.7-0.8,0.7c-0.4,0-0.7-0.3-0.7-0.6
	c0-0.3,1-0.5,0.6-0.5c0.3,0,0.5,0.2,0.5,0.5c0,0,0,0,0,0.1c0,0.1-0.1,0.2-0.2,0.2c-0.1,0-0.2-0.1-0.2-0.2c0,0,0-0.1,0.1-0.1
	c0,0-0.1,0-0.1,0c-0.1,0-0.2,0.1-0.2,0.2c0,0.2,0.2,0.3,0.3,0.3c0.3,0,0.5-0.2,0.5-0.4c0-0.3-0.3-0.6-0.6-0.6
	c-0.2,0-0.5,0.5-0.8,0.4c-0.2,0.2-0.1,0.6-0.2,1.3c-0.2,0.6,0.2,1.1,0.5,2.3c-0.1-0.9-0.1-1-0.2-1.1c-0.2-0.4-0.1-0.9,0-1.1
	c0,0,0-0.1,0-0.1c0-0.1-0.1-0.4-0.1-0.5l0-0.1l0.1,0.7c0,0,0.3-0.8,0.6-0.5c0.3,0.3,0.3,0.7,0.2,1c0,0.3,0.2,0.9,0.3,1
	c0,0.1,0.1,0.2,0.2,0.4l-0.2-0.3c-0.1-0.9,0.2-1.1,0.2-1.1l0,0l0.1,0c0.3,0.2,0.3,0.6,0.3,0.7c0,0.3,0,0.2,0,0.4c0,0.3,0,0.7,0,1
	l0,0.2V38.1z M32.2,44.9L32.2,44.9C32.2,44.8,32.2,44.8,32.2,44.9C32.2,44.9,32.2,44.9,32.2,44.9L32.2,44.9z M32.2,45.9
	c-0.1,0.2-0.1,0.8,0.6,0.5c-1,0.1-1.2,0.2-1.3,0.3h0.7V45.9z M32.2,47h-0.8c0.2,0.1,0.4,0.2,1.4,0.4c-0.8,0.1-0.7,0.3-0.6,0.5V47z
	 M32.2,48.8c0,0,0,0.1,0,0.1c0,0,0,0,0,0L32.2,48.8L32.2,48.8z M32.2,49l0,0.2c0,0.3,0,0.7,0,1c0,0.2,0,0.4,0,0.4
	c0,0.1,0,0.5-0.3,1.5l-0.1-0.7l0,0.7c0-0.1-0.3-1-0.2-1.5l0.2-0.7c-0.1,0.2-0.2,0.3-0.2,0.9c-0.1-0.4-0.3,0.2-0.3,0.5
	c0,0.3,0.1,0.7-0.2,1c-0.3,0.3-0.6,0.2-0.6,0.2l-0.1,0l0-0.1c0,0,0.2-0.3,0.1-0.5c0,0,0-0.1,0-0.1c-0.1-0.2-0.2-0.7,0-1.1
	c0-0.1,0.1-0.2,0.2-0.3c-0.4,0.4-0.7,0.9-0.5,1.5c0.1,0.6,0,1.1,0.2,1.4c0.3,0.2,0.6,0.3,0.8,0.3c0.3,0,0.6-0.3,0.6-0.6
	c0-0.2-0.2-0.4-0.5-0.4c-0.2,0-0.3,0.1-0.3,0.3c0,0.1,0.1,0.2,0.2,0.2c0,0,0.1,0,0.1,0c0,0-0.1-0.1-0.1-0.1c0-0.1,0.1-0.2,0.2-0.2
	c0.1,0,0.2,0.1,0.2,0.2c0,0,0,0,0,0c0,0.5-0.2,0.5-0.5,0.5c0.5,0-0.6-0.2-0.6-0.5c0-0.3,0.3,0,0.7,0c0.4,0,0.8-0.3,0.8,0.1
	c0,0.5-0.4,0.9-1,0.9c0.3,0-0.7-0.2-1-0.5c0.4,0.7,1,1.2,1.3,1.4c0.3,0.2,0.5,1.3,0.7,0.7c0,0.1,0,0.1,0.1,0.2V49z M32.2,57
	c-0.1,0.1-0.2,0.9,0.3,0.4c-0.8,0.2-1,0.3-1.2,0.3h0.8V57z M32.3,62.5c0-0.1,0.1,0.7,0.2,0.1c0.3-0.5,0.6-0.7,1-0.7h-1.2V62.5z
	 M32.4,36.1v0.7c0.1-0.1,0.2-0.2,0.3-0.3c0.3,0.5,0.4-0.3,0.6-0.3H32.4z M32.5,55.6c0.2,0.6,0.6-0.5,0.7-0.7
	c0.3-0.2,0.9-0.7,1.3-1.4c-0.3,0.3-0.7,0.5-1,0.5c-0.1,0-1-0.4-1-0.9c0-0.4,0.4-0.1,0.8-0.1c0.4,0,1.4-0.4,1.4,0
	c0,0.3-1,0.5-1.3,0.5c-0.3,0-0.2,0-0.2-0.5c0,0,0,0,0.1-0.1c0.1-0.1-0.3-0.2-0.2-0.2c0.1,0,0.2,0.1,0.2,0.2c0,0,0,0.1-0.1,0.1
	c0,0,0.1,0,0.1,0c0.1,0,0.2-0.1,0.2-0.2c0-0.2-0.2-0.3-0.3-0.3c-0.3,0-0.5,0.2-0.5,0.4c0,0.3,0.3,0.6,0.6,0.6c0.2,0,0.5-0.1,0.8-0.3
	c0.2-0.3,0.5-0.7,0.5-1.4c-0.1-0.6-0.4-1.1,0.1-1.5c-0.8,0.1-0.8,0.2-0.7,0.3c0.2,0.4,0.1,0.8,0,1.1c0,0,0,0.1,0,0.1
	c0,0.2,0.1,0.5,0.1,0.5l0,0.1l-0.1,0c0,0-0.3,0.1-0.6-0.2c-0.3-0.3-0.3-0.7-0.2-1c0-0.3-0.2-0.9-0.3-0.5c0-0.6,0.6-0.7-0.2-0.9
	l0.2,0.7c0.1,0.5,0.1,1.4,0,1.5l-0.2-0.7l0,0.7c-0.3-1-0.3-1.3-0.3-1.5c0,0,0-0.2,0-0.4c0-0.3,0-0.7,0-1l0-0.1v6.6
	C32.5,55.6,32.5,55.6,32.5,55.6z M32.4,57v0.7h0.8c-0.2-0.1,0.2-0.2-0.6-0.3C32.6,57.4,32.5,57.1,32.4,57z M32.5,49
	C32.5,49,32.5,49,32.5,49C32.5,48.9,32.5,48.9,32.5,49L32.5,49L32.5,49z M32.7,47.4c0.1-0.2,0.3-0.3,0.5-0.4h-0.7v0.8
	C32.5,47.6,32.6,47.5,32.7,47.4z M33.1,46.7c0.6-0.1-0.3-0.2-0.4-0.3c-0.1,0.5-0.2-0.3-0.2-0.4v0.7H33.1z M32.5,44.8
	C32.5,44.8,32.5,44.8,32.5,44.8L32.5,44.8L32.5,44.8C32.5,44.9,32.5,44.9,32.5,44.8z M32.5,44.7c0-0.3,0-0.7,0-1c0-0.2,0-0.1,0-0.4
	c0-0.1,0-0.5,0.3-0.7l0,0l0.2,0c0.1,0,0.1,0.3,0,0.7l-0.2,0.7c0.8-0.2,0.2-0.3,0.2-0.4c0.1-0.2,0.3-0.7,0.3-1c0-0.3-0.1-0.7,0.2-1
	c0.3-0.3,0.6,0.5,0.6,0.5l0.1-0.7l0,0.1c0,0.1-0.2,0.3-0.1,0.5c0,0,0,0.1,0,0.1c0.1,0.2,0.2,0.7,0,1.1c0,0.1-0.1,0.2,0.7,1.1
	c-0.5-1.2-0.2-1.7-0.1-2.3c0-0.6-0.3-1.1-0.5-1.3c-0.3,0.1-0.6-0.4-0.8-0.4c-0.3,0-0.6,0.3-0.6,0.6c0,0.2,0.2,0.4,0.5,0.4
	c0.2,0,0.3-0.1,0.3-0.3c0-0.1-0.1-0.2-0.2-0.2c0,0-0.1,0-0.1,0c0,0,0.1,0.1,0.1,0.1c0,0.1-0.1,0.2-0.2,0.2c-0.1,0,0.3-0.1,0.2-0.2
	c0,0-0.1,0-0.1,0c0-0.2-0.1-0.5,0.2-0.5c0.3,0,1.3,0.2,1.3,0.5c0,0.3-1.1,0.6-1.4,0.6c-0.4,0-0.8-0.3-0.8-0.7c0-0.1,0.9-0.9,1-0.9
	c0.3,0,0.7,0.2,1,1.3c-0.4-1.6-1-2.1-1.3-2.3c-0.1-0.2-0.5-0.4-0.7-0.6c0-0.2,0-0.2,0-0.2L32.5,44.7L32.5,44.7z M35,36.1h-0.7
	c0.2,0.1,0.3,0.5,0.4,0.3C35,36.5,35,36.7,35,37V36.1z M35,37.5c0.3,0.4-0.5,0.7-1,0.7c-0.5,0-0.9-0.4-0.9-0.8c0-0.4,0.3-0.7,1-0.7
	c0.1,0,0.4,0.3,0.4,1.1c0-0.2-0.2,0-0.5,0c-0.2,0-0.5-0.2-0.5-0.4c0,0,0,0.7,0,0.6c0-0.7,0.1-0.8,0.2-0.8c1,0,0.2,0.1,0.2,0.2
	c0,0,0.8,0.1,0.4,0.1c0.2,0,0.4,0-0.4,0c0.1,0,0.2-0.1,0.2,0.3c0-0.6-0.1-0.8-0.1-0.8c-0.5,0-0.6,0.2-0.6,0.4c0,0.3,0.2,0.5,0.6,0.5
	c0.4,0,0.7-0.3,0.7-0.7c0-0.4-0.3-0.8-0.7-0.9c0,0,0,0,0,0c0,0.1,0.8,0.2-0.2,0.2c-0.1,0-0.2-0.1-0.2-0.2c0,0,0,0,0,0
	c-0.6,0.1-1,0.6-1,1.1c0,0.4,1,0.9,0.8,1.2c0.3,0.2,0.7,0.8,1.1,1c0.3,0.4,1.2,0.8,0.6,1.3V37.5z M35,42.1c-0.2,1-1,1.6-1.4,2
	c-0.1,0.1-0.2,0.2-0.3,0.7c-0.1-0.1-0.6,0.2-0.6,0.6c0,0.6,0.3,1.2,1.1,1.2c0.6,0,1.1-0.5,1.1-1c0-0.4-0.4-0.8-0.8-0.8
	c-0.3,0-0.6,0.3-0.6,0.6c0,0.2,0.2,0.4,0.5,0.4c0.2,0,0.3-0.1,0.3-0.3c0-0.1-0.1,0.4,0.4,0.4c-0.4,0-0.1,0.1-0.8,0.3
	c0.1-0.8,0.3-0.8,0.3-0.7c0,0.1-0.4,0.2-0.5,0.2c-0.1,0-0.2-0.1-0.2-0.1c0,0,0,0,0-0.1c0-0.2,0.2-0.4,1.1-0.4
	c-0.3,0-0.1,1.1-0.1,0.5c0,0.3-0.3,0.6-0.7,0.6c-0.4,0-0.8-0.3-0.8-0.7c0-0.5,0.4-0.9,0.9-0.9c0.5,0,0.9,0.3,1,0.6V42.1z M35,46.1
	c0.8,0.3-0.2,0.3-0.3,0.4c-0.1,0.1-0.2,0.2-0.4,0.2H35V46.1z M35,47h-0.7c0.2,0.1,0.3,0.2,0.4,0.9c0.1-0.5,1.1-0.4,0.3-0.2V47z
	 M35,48.6c-0.2,0.4-0.6,1.1-1,1.1c-0.5,0-0.9-0.9-0.9-1.3c0-0.4,0.4-0.7,0.8-0.7c0.4,0,0.7,0.3,0.7,1.1c0-0.2-0.3,0.1,0.1,0.1
	c-0.9,0-1.1-0.2-1.1-0.4c0,0,0,0.7,0,0.5c0-0.6,0.1-0.7,0.2-0.7c0.1,0,0.5,0.2,0.5,0.2c0,0-0.2,0.1-0.3,0.1c0.6,0,0.4,0,0.8,0
	c-0.5,0-0.4-0.1-0.4,0.2c0-0.6-0.2-0.8-0.3-0.8c-0.3,0-0.5,0.2-0.5,0.4c0,0.3,0.3,0.6,0.6,0.6c0.5,0,0.8-0.3,0.8-0.8
	c0-0.6-0.5-1-1.1-1c-0.7,0-1.1,0.6-1.1,1.2c0,0.4,0.6,0.7,0.6,1.1c0.1,0.1,0.2,0.1,0.3,0.2c0.5,0.4,1.2,1,1.4,2V48.6z M35,52.8
	c0.6,0.7-0.3,0.9-0.6,1.3c-0.3,0.5-0.8,0.8-1.1,1c0.2,0.4-0.8,0.8-0.8,2.1c0-0.3,0.4,0.2,1,0.3c0,0,0,0,0,0c0,0.6,0.1-0.2,0.2-0.2
	c1,0,0.2,0.9,0.2,0.2c0,0,0,0,0,0c0.4-0.1,0.7-0.5,0.7-0.9c0-0.4-0.3-0.7-0.7-0.7c-0.3,0-0.6,0.2-0.6,0.5c0,0.2,0.2,0.4,0.6,0.4
	c-0.1,0,0.1-0.1,0.1-0.3c0-0.1-0.1-0.2-0.2-0.2c0.8,0,0.6,0,0.4,0c0.3,0-0.4,0.1-0.4,0.1c0,0.1,0.8,0.2-0.2,0.2
	c-0.1,0-0.2-0.1-0.2-0.2c0,0,0,0,0-0.1c0-0.2,0.2-0.4,0.5-0.4c0.3,0,0.5,0.5,0.5,0.5c0,0.3-0.3,0.6-0.4,0.6c-0.6,0-1-0.3-1-0.7
	c0-0.4,0.4-0.8,0.9-0.8c0.5,0,1.3,0.3,1,0.7V52.8z M35,56.8c-0.1,0.2,0,0.7-0.3,0.6c-0.1,0.1-0.3,0.2-0.4,0.2H35V56.8z M35,58h-2.6
	v2.2c0.1-1.2,0.2-1.6,1.1-1.8c-0.3-0.3,0-0.4,1.2-0.3c-0.5,0-0.3,0.2-0.1,0.5c0.7,0.3,0.3,0.6,0.3,0.9c0.8,0.3-0.2,0.5-0.3,0.7
	c-0.2,0.9-0.4,0.3,0,0.2c-0.9,0-1.1-0.1-1.2-0.3c-0.1-0.2-0.2-0.4-0.2-0.6c0-0.2,0.1-0.4,0.2-0.5c0.1-0.1,0.3-0.2,1.4-0.2
	c-0.7,0-0.6,0.1-0.5,0.2c0.1,0.1,0.1,0.5,0.1,0.5c0,0.1-0.1,0.3-0.2,0.4c-0.1,0.1-0.2,0.1,0.3,0.1l-0.1,0c-0.7,0-0.8-0.1-0.8-0.2
	c0-0.1,0.1-0.2,0.7-0.2c-0.5,0-0.4,0-0.4,0.1c0,0,0.1-0.1,0.1-0.1c0,0.6,0,0.4-0.1-0.2c0-0.1-0.1-0.1,0.4-0.1c-0.7,0-0.8,0-0.9,0.1
	c-0.1,0.1-0.1,1-0.1,0.3c0,0.1,0,0.3,0.1,0.4c0.1,0.1,0.2,0.2,0.3,0.2c0.2,0,0.3,0,0.5-0.2c0.1-0.1,0.2-0.3,0.2-0.5
	c0-0.2,0-0.5-0.2-0.7c-0.1-0.2-0.3-0.3,0-0.3c-0.8,0.7-1.1,0.1-1.4,0.3c0.1,0.2-0.4,0.5-0.4,0.8c-0.1,1.4,0.5,1.6,1.2,1.7h1.1
	c0.7,0-0.1,0.1-0.1,0.7V58z M35,61.4c0,0.1,0.8,0.1,0.1,0.1h-0.3c-1.3-0.1-1.7-0.3-2-0.7c-0.2-0.3-0.3-0.3-0.4-0.9v1.6H35V61.4z
	 M35,61.8h-1.3c0.3,0,0.6,0.2,0.9,0.4c0.3,0.3,0.4,0.6,0.4,1c0,0.6-0.5,1.2-1,1.2c-0.6,0-0.2-0.4-0.2-1c0-0.4-0.4-0.8,0-0.8
	c0.4,0,0.6,0.3,0.6,1.2c0-0.2-0.2,0-0.5,0c-0.3,0-0.5-0.2-0.5-0.5c0,0,0,0.8,0,0.6c0-0.8,0.1-0.8,0.2-0.8c0.1,0,0.2,0.3,0.2,0.2
	c0,0.1,0,0.1-0.1,0.2c0,0,0,0,0.1,0c1,0,0.3-0.1,0.3,0.3c0-0.8,0.3-0.9-0.4-0.9c-0.3,0-0.5,0.2-0.5,0.5c0,0.4,0.3,0.7,0.7,0.7
	c0.4,0,0.7-0.4,0.7-0.9c0-0.5-0.3-0.4,0.2-1.1c-0.9,0-0.9,0-0.9,0c0,0.7,0.6,0.2-0.2,0.2c-0.1,0-0.2,0.5-0.2-0.2c0,0,0-0.1,0-0.1
	c0.1,0-1.1,0.4-1.2,1c0,0,0,0.1,0,0.1c0.1,0.1,0.2,0.7,0.2,0.2c0,0.1-0.1,0.1-0.1,0.1c0,0.1,0,0.2,0,0.3c0.1,0.3,0.3,0.7,0.7,0.8
	c0.1,0,0.1,0,0.2,0.1c0.3,0.1,0.7,0.2,1.1,0.5c0.2,0.2,0.3,0.3,0.4,0.5c0.8,0.2,0.2,0.8,0.2,0.8c0,0.4,0.1,1.3-0.4,1
	c-0.2,0.2-0.5,0.4-0.8,0.5v4.3c0.4,0.3,0.2,0.6,0.2,0c-0.1-0.2,0.7-0.3,0.7-0.5c0-0.3-0.7-0.4-0.6-0.5c0.1,0.2,0.1-0.1,0.1-0.3
	c0-0.2,0-0.3-0.1-0.4c0-0.1-0.1-0.2-0.1,0.3c0-0.8,0.1-1,0.1-1.2c0-0.1,0.1-0.2,0.1-0.3c0-0.1,0-0.1,0-0.1c0,0,0,0.6,0-0.1
	c0-0.1,0-0.4,0.5-0.7l0.1,0l0,0.1c0,0,0,0.3,0.1,0.5c0.2,0.2,0.4,0.8,0,0.9c-0.1,0.1-0.1,0.5,0,0.6c0.1,0.2,0.7,1.4,0,1
	c0,0,0,0.1,0,0.1c-0.1,0.2-0.2,0.4-0.1,0.7c0.1,0.3,0.4,0.6,1,1C35,73.5,35,73.6,35,73.7c0,0.1,0,0.3-0.2,0.6
	c-0.1,0.2-0.3,0.4-0.5,0.6c-0.3,0.6-0.6,0.5-1.1,0.8c-0.4,0.2-0.6,0.6-0.6,0.9c0.1,0,0.1,0.1,0.1,0.1c0,0,0,0.1-0.1,0.1
	c0.1,0.5,0.3,1,0.9,1.1c0,0,0,0,0-0.1c0-0.1,0.1-0.2,0.2-0.2c0.8,0,0.2,0.1,0.2,0.2c0,0,0,0,0.9,0.1c-0.4-0.1-0.1-0.6-0.1-1.1
	c0-0.5-0.4-0.9,0-0.9c-1.1,0-1.4,0.9-1.4,0.7c0,0.3,0.2,0.5,0.5,0.5c0.2,0,0.3-0.2,0.3-0.4c0-0.1-0.1-0.3,0-0.3c0.3,0-0.3,0-0.3,0
	c0.1,0,0.4,0.1,0.4,0.2c0,0.1-0.4,0.2-0.6,0.2c-0.1,0-0.2-0.1-0.2-0.2c0,0,0-0.1,0-0.1c0-0.2,0.2-0.4,0.7-0.4c0,0,0.3,0.2,0.3,0.6
	c0,0.4-0.3,0.7-0.6,0.7c-0.4,0-0.8-0.3-0.8-0.8c0-0.5,0.4-0.9,1.7-0.9c-0.2,0,0.3,0.5,0.3,1V61.8z M35,77c0,0.6-0.5,1.1-1,1.2h1V77z
	 M20.7,22.2l-1.5-6.4l8.2,0L26,22.2L20.7,22.2z M19.2,13.6h8.4v1.9h-8.4V13.6z M27.8,8.5c0,0-0.1,0.2-0.3,0.5
	c-0.3,0.7-0.9,1.4-2.2,1.8v0.6c1.6,0.4,2.1,1.4,2.2,1.7h-8.2c0.1-0.4,1.1-1.4,2.5-1.6v-0.8c-1.7-0.5-2.2-1.7-2.4-2.4
	c-0.4-0.3-1.1-0.6-0.8-1.3c0,0,0.2-0.4,1.1-0.5c0.2,0.2,0.5,0.5,0.9,0.5c0.7-0.1,1-0.4,1.6-0.7c0.2,0,0.5,0,1,0
	c4.1-0.1,4.7,0.5,5.6,0.9c0,0,0,0.2,0,0.5C28.6,7.9,27.8,8.5,27.8,8.5z M28.3,4.8C28.3,4.8,28.3,4.7,28.3,4.8c0,0,0,0,0.2,0
	c0,0,0.1,0,0.1,0.1c0.1,0.2-0.1,0.7-0.2,0.8c-0.1,0.1-0.1,0.1-0.2,0.2c-0.1,0-0.1,0.1-0.1,0.1c0,0.1,0,0.2,0,0.7
	c0.5-0.5-0.3-0.6-0.5-0.6c-0.2,0-0.9-0.1-1.3-0.2l0.3-0.2c0.1,0,0.1,0.1,0.2,0.1c0.4,0,0.2-0.1,0.3-0.1c0-0.1,0.2-0.3,0.2,0.2
	c0.1-0.3,0.4-0.7,0.4-0.8c0,0,0.1-0.1,0.1-0.2C28.1,4.8,28,4.6,28,4.6C28.1,4.6,28.2,4.7,28.3,4.8L28.3,4.8z M28,3.1
	c0.2,0.5,0.6,0.3,0.5,0.6c0,0.3-0.3,0.9-0.4,1c-0.1,0.1,0.4-0.4,0-0.4c-0.2,0.6-0.6-0.4-0.6-0.7l0-0.3h-0.2c0,0.4-0.1-0.2-0.1-0.4
	l0.1,0C27.2,3,27.8,3.1,28,3.1z M27.2,3.6c0,0.3,0.4,0.8,0.5,0.9c0,0.1-0.2,0.2-0.3,0.4C27.3,5.1,27,5.2,27,5.2l0,0l0,0
	c0,0,0.5,0.3,0.5,0.4c0,0-0.1,0.1-0.3,0.1c-0.1,0,0.5,0-0.4,0c0,0,0,0,0,0c-0.2,0-0.3-0.1-0.4-0.2l0,0l0,0c-0.1,0.1,0.1,0.3-0.6,0.3
	c-0.1,0-0.6,0-0.7,0c-0.1,0-0.2-0.1-0.2-0.2c0,0,0.9,0,0.8,0c-0.3,0-0.7-0.3-0.3-0.5C25,5,25.2,4.8,25.3,4.7c0,0,0.1-0.1,0.1-0.1
	c0,0,0.1-0.1,0.2-0.2C25.8,4.8,26,4.1,26,4.1c0-0.1,0.3-0.2,0.4-0.3l0.1-0.1C26.6,3.7,27.8,3.6,27.2,3.6C27.2,3.6,27.2,3.6,27.2,3.6
	z M25.8,4.9c-0.1,0-0.1,0.1-0.1,0.1c0,0.1,0,0.1,0.1,0.1c0.4,0,0.9-0.1,0.9-0.1C26.7,4.9,26.2,4.9,25.8,4.9z M26.2,5.4
	c-0.6,0.3-1.1,0-1.1,0s0.3,0.2,0,0.1c0.1-0.1,1,0,1,0L26.2,5.4z M25.8,2.4c0.3,0,0.4,0,0.6,0.2c0.3,0.2,1,0.5,1.4,0.8
	c-1,0-1.5,0.2-1.6,0.3c0,0-0.1,0-0.1,0.1l0-0.1c0,0-0.1,0.1-0.3-0.5C25.7,3,25.4,3,25.4,3l0,0c0.2,0.1,0.8,0.5,0.7,0.6l0,0.1
	c-0.1,0-0.3,0.2-0.4,0.2c-0.1,0-0.1-0.1-0.2-0.2c0,0,0.1-0.1,0.1-0.1c0,0,0.1-0.1,0-0.2c0-0.1-0.3-0.3-0.5-0.4
	C25.2,2.9,25.5,2.6,25.8,2.4L25.8,2.4z M26.5,3.3c0,0,0.1,0.3,0.1-0.2c0-0.1,0-0.2-0.1-0.2s-0.1,0.1-0.1,0.2
	C26.5,3.6,26.5,3.3,26.5,3.3z M22.1,2.9C22.5,2.5,22,2.3,22.1,2.9c0.1-0.5,0.2-0.6,0.2-0.6s0-0.2,0-0.3c0.1-0.1,0.8,0,1,0.1
	c0.3,0.1,0.9,0.6,1,0.7c0.1,0.1,0.2,0.2,0.5,0.3c0.3,0.2,0.7,0.3,0.7,0.4c0,0-0.3,0.2-0.3,0.2s0.3,0.4,0.3,0.4c0,0-0.3,0.2-0.5,0.4
	c-0.2,0.2-0.4,0.5-0.4,1.3c0-0.4,0.1-0.2,0.1-0.2S23.8,5,23.6,4.8c-0.2-0.2-0.5-0.4-0.6-0.5c0.5,0.2-0.3,0.1-0.3,0.1s-0.3,0.3-0.2,0
	c0.1-0.4,0.1-0.6,0.1-0.6S22.2,3.6,22.1,2.9z M23,2.8c0.1,0,0.1-0.1,0.1-0.1c0-0.1-0.1-0.1-0.1-0.1c0.3,0-0.1,0.1-0.1,0.1
	C22.8,2.7,23.3,2.8,23,2.8z M20.7,6.4c-0.9,0-0.9,0-0.9,0.4c0-0.7,0.4-1.4,1.5-1.8c0.5-0.5,0.9-0.6,1,0.1c0-0.1,0-0.1,0.1-0.1
	c0,0,0.1,0.1,0.1-0.5c0,0,0,0.2,0.1,0.2c0,0,0,0,0,0c0.1,0,1-0.1,0.4-0.1c0.1,0.1,0.4,0.4,0.5,0.4c0,0,0.1,0.1,0.3,0.2
	c0.3,0.2,0.7,0.5,1,0.7c-0.3,0-1,0-1.4,0c-0.1,0-0.2,0-0.3,0c0.4,0-0.1,0-0.2,0c-0.3,0-0.6,0-0.8,0c-0.2,0-0.6,0.2-0.8,0.9
	c-0.1,0.3-0.1-0.6-0.2-0.5c-0.2,0.1-0.4,0.2-0.6,0.3c-0.2,0-0.4-0.1-0.4-0.1c0,0,0.2,0.6,0.3,0.4L20,6.4C20,6.4,20,6.4,20.7,6.4z
	 M20.6,5.7c0.1,0,0.1-0.1,0.1-0.1c0-0.1-0.1-0.1-0.1-0.1c-0.1,0-0.1,0.1-0.1,0.1C20.5,5.6,20.6,5.7,20.6,5.7z M28.8,6.8
	C28.8,6.8,28.8,6.8,28.8,6.8c0,0-0.1,0-0.2-0.1c-0.1-0.1-0.4-0.3-0.5-0.3l0.1-0.2c0,0,0.2-0.1,0.3-0.2c0.1-0.1,0.1-0.2,0.2-0.3
	L29,5.8C29.1,5.9,29.1,7,29.1,7c0-0.6-0.1-0.6-0.1-0.6c0,0-0.1,0-0.1,0c0.5,0,0.1,0,0,0c-0.1,0-0.1,0,0.1,0.1
	C29.1,6.6,28.9,6.7,28.8,6.8z M11.3,34.8c0-1.6,0.3-3.2,0.9-4.7c0.9-1.4,1.5-2.7,2.9-3.8c0.8-0.9,2.1-2,3.5-2.6
	c1.5-0.6,3.1-0.9,4.7-0.9c1.6,0,3.2,0.3,4.7,0.9c1.4,0.6,2.7,1.7,4.7,2.6c0.2,1.1,1.1,2.4,1.7,3.8c0.6,1.5,0.9,3.1,0.9,4.7l0,0.3
	h-24L11.3,34.8z M17,25.1l0.5,0.8c0.1,0.2,0.6,0.6,0.6,0.6c0.2,0,0.3-0.3,0.4-0.4c0.3-0.2,0.6-0.5,0.1,0c-0.1-1.1-0.4-1.1-0.6-1
	c0.6,0.8,0.2,0.3-0.1,0.5c0.1,0.1,0.2,0.1,0.3,0.1c0,0,0.1,0,0-0.2c0,0,0-0.1,0-0.1c0,0,0-0.1,0.1,0.7c0.1-0.5,0.2-0.3,0.2-0.7
	c0.1,0.1,0.1,0.2,0.1,0.3c0,0.1-0.1,0.2-0.2,0.3c-0.2,0.1-0.5,0.1-0.7-0.1c-0.2-0.3-0.1-0.6,0.9-0.8c-0.7-0.1-0.5-0.1-0.4-0.1
	c0.2,0,0.4,0.1,1.3,0.3c-0.6,1-0.6,0.4-0.6,0.6c0,0.2,0.2,0.4-0.3,0.5c-0.2,0.2-0.5,0.2,0,0.2c-0.2,0-0.3,0-0.5,0
	C18,26.6,18.5,27,19.4,27l0.3,0l-0.3,0.2c0,0-0.3,0.9-0.7,0.9c-0.1,0-0.3-0.2-0.4,0c0-0.2,0.1-0.8,0.1-0.8c0.1,0.1,0.1,0.2,0.2,0.2
	c0.1,0.1,0.5,0.2,1,0.3c-0.7,0.2,0.1,0.3,0.1,0.4l-0.4,0.3l-0.2,0.1c0,0-0.5,0.4-0.6-0.5c-0.1-0.1-0.1-0.2-0.2-0.3
	c0-0.1-0.1-0.2-0.1-0.3c0,0,0-0.1-0.1-0.2c0,0.6-0.4,1-0.4,1l-0.3,0.2l0.1-0.1c1-1,0.1-1.6,0.1-1.8c0,0,0,0,0,0
	c0,0.3-0.2,0.5-0.4,0.7c-0.2,0.1-0.4,0.2-0.6,0.1c-0.2,0-0.4-0.2-0.6-0.3c0.3-0.2,0.6-0.3,0.3-0.5c0.4-0.2-0.2,0.5-0.1-0.5
	c0.1-0.1,0.2-0.1,0.3-0.1c0.2,0,0.8,0.1,0.5,0.3c0.1,0.1,0.1,0.2,0.1,0.4c0,0.1-0.1,0.2,0.2,0.3c-0.6,0.1-0.9,0.1-1-0.1
	c0-0.1,0-0.2,0.1-0.2c0,0,0.1,0,0.1,0c0.1,0,0.1,0,0.1,0.1c0.1,0.1,0.1,0.1,0.1,0.1c0,0,0,0,0,0c0.2-0.1,0.5-0.2,0.1-0.3
	c-0.1-0.1-0.3,0.5-0.5-0.1c-0.2,0.1-0.2,0.4-0.1,0.6c0.1,0.2,0.3,0.7,0.5,0.7c0.5,0,0.2-0.4,0.3-0.6c0.3-0.2,0.4-0.7,0.2-1.1
	l-0.6-0.8c-0.5,0.3-1,0.7-1.4,1.2l6.6,6.6c0.2,0,0.2,0,0.3,0c-0.4-0.2-0.6-0.4-0.7-0.6c-0.1,0.4-0.2-0.2-0.3-0.3
	C21,32.1,21.8,32,21,31.9c-0.3-0.2-0.3-0.4-0.4-0.6c0-0.1-0.1-0.2-0.1-0.3c-0.1-0.1-0.2-0.2-0.3-0.2c-0.1-0.1,0.3-0.1-0.3-0.3
	c-0.3-0.4-0.1-0.8-0.1-0.8l0-0.1l0.4,0c0.1,0,0,0.2,0,0.4c0,0.2,0.1,0.4,0.2,0.5l0,0c0.1,0.1,0.2,0.2,0.5,1c0-0.1,0.1,0.1,0.4,0.3
	c0,0,0,0,0.1,0.1c0.1,0.1,0.2,0.1,0.3,0.4c0.1,0.2,0.3,0.4,0.4,0.5c0,0,0.1-0.1,0.1-0.1l-3.6-8.6C18.1,24.5,17.5,24.8,17,25.1z
	 M25.8,23.5l-0.2,1c-0.1,0.3,0.2,1,0.6,1.6c0.3-0.7,0.6-0.9,0.8-1.2c0.4-0.2-0.2-0.5-0.5,0.3c-0.2-0.3-0.4-0.7-0.4-0.5
	c0,0.1,0,0.1,0,0.2c0,0.1,0.1,0.1,0.2,0.1c0,0,0,0,0,0c0,0,0.1,0,0.1-0.2c0-0.1,0.1-0.1,0.2-0.1c0.1,0,0.2,0.1,0.1,0.2
	c0,0.2-0.3,0.4-0.5,0.3c-0.3,0,0.3-0.3,0.1-0.6c-0.4-0.3-0.1-0.5,0.2-0.5c0.2,0,1.2,0.1,0.5,0.3c0.1,0.1,0.1,0.3,0.1,0.5
	c0,0.2-0.2,0.8-0.4,0.5c-0.2,0.1-0.4,0.2-0.6,0.1c-0.1-0.1-0.5-0.2-0.7-0.4c0,0,0,0,0,0c0,0.5,0,0.8,0.7,1.4l0.3,0.2l-0.3-0.1
	c0,0-0.6-0.2-0.8-0.7c0,0.1,0,0.1,0,0.2c0,0.1,0,0.2,0,0.3c0,0.1,0,0.3,0,0.4c0,0.2-0.2,0.3-0.2,0.3l0,0l0.6,0
	c-0.1,0-0.8-0.1-0.8-0.3c0-0.1,0.1-0.2,0.5-0.3c0.4,0.3-0.3-0.2-0.2-0.3c0,0,0-0.1,0-0.2c-0.3,0.6-0.8,0.8-1,0.8c0,0,0,0,0,0
	l-0.3-0.2l0.3-0.4c0.8-0.4,1.1-0.2,1.1-1.1c0,0,0,0,0,0c0.4,0.1-0.5,0.7-0.8,0.6c-0.2-0.5,0.5-0.7-0.5-0.8c-0.1-0.2-0.2-0.4-0.2-0.5
	c0.1-0.6,0.4-0.8,0.8-0.7c0.3,0.1,0.5,0.4,1.3,0.7c-0.5,0.3-1.1,0.4-1.4,0.4c-0.2,0-0.4-0.3-0.3,0c0-0.6,0.1-0.7,0.2-0.6
	c0.1,0,0.1,0.4,0.1,0.2c0,0.2,0,0.2,0.1,0.2c0.1,0,0.3-0.1,0.3-0.2c0-0.2-0.1-0.4-0.3-0.4c-0.2,0-0.5,0.1,0.4,1.1
	c-0.6-0.4-0.7-0.1-0.4,0c0,0,0.1,0,0.1,0c0.6,0,0.7-0.3,0.8-0.6l0.1-1c-0.6,0.5-1.2,0.3-1.9-0.2v9.3c0,0,0.1,0,0.1,0
	c0-0.2,0-0.5,0.1-0.8c0-0.2,0-0.3,0-0.4c0,0.2,0-0.2,0-0.4c0-0.3,0.5-0.4,0.2-0.6c0.1-0.1,0.1,0.1,0.1-0.3c0-0.1,0-0.3-0.1-0.4
	c0-0.1-0.1-0.3-0.1,0.4c0.1-1.4,0.5-1.5,0.5-1.5l0.1,0l0,0.1c0,0,0.1,0.4-0.1,0.6c-0.1,0.2-0.2,0.4-0.2,0.5l0,0.1
	c0,0.2,0,0.9-0.2,0.6c-0.1,0.3-0.2,0.5-0.1,0.8c0,0,0,0.1,0,0.1c0,0.1,0,0.2-0.1,0.5c0.7,0.2,0.5,0.5,0.5,0.6c-0.5,0-0.4,0-0.3,0.1
	l3.6-8.6C27.1,23.8,26.5,23.6,25.8,23.5z M30,26.1l-0.6,0c-0.2,0.3-0.1,0.8,0.2,1.1c0.1,0.3,0.4,0.7,0.3,0.7c0.2,0,0.4-0.7,0.5-0.9
	c0.1-0.1,0.1-0.2,0.1-0.3c0-0.1-0.1-0.2-0.2-0.3c-0.2,0.6-0.4-0.1-0.1,0.1c0.1,0.1-0.4,0.1,0.5,0.2c-0.7,0.1-0.3,0.1-0.8,0.2
	c0.1,0,0.1,0,0.2-0.1c0,0,0.1-0.1,0.1-0.1c0,0,0.1,0,0.1,0c0,0,0.1,0.1,0.1,0.1c0,0,0,0.1,0,0.1c-0.1,0.1-0.2,0.2-0.4,0.2
	c-0.1,0,0.3,0-0.2-0.1c-0.2-0.1-0.3-0.4-0.1-0.7c0.1-0.2,0.3-0.3,0.5-0.3c0.1,0,0.2,0,0.3,0.1c0.3,0.2,1.3,0.6,0.2,1
	c-0.1,0.2-0.3,0.3-0.6,0.4c-0.2,0-0.4,0-0.6-0.1c-0.2,0.1-0.4-0.4-0.5-0.6c0,0,0,0,0-0.1c-0.1,0.1-0.3,0.7,0.1,2.2l0.1-0.3l-0.3-0.2
	c0,0-0.5-0.4-0.5-1c0,0.1-0.1,0.1-0.1,0.2c0,0.1-0.1,0.2-0.1,0.3c-0.1,0.1-0.1,0.2-0.1,0.3c-0.1,0.1-0.2,0.1,0.4,0.1
	c-0.2,0-0.4,0-0.4,0l-0.4,0l0,0.8c0-0.1-0.1-1,0-1.2c0.2-0.1,0.1-0.2,0.2-0.3c0.1-0.1,0.2-0.2,0.2-0.2c0,0,0.1-0.1,0.1,0.6
	c-0.1-0.7-0.3-0.6,0.1-0.6c-0.9,0-1.1,0.3-1.1,0.2L27,27.1l0.3,0c0.9,0,1.3-0.4,1.5-0.5c0,0,0,0,0,0c-0.3,0.1-0.5,0-0.8-0.2
	c-0.2,0.6-0.3-0.3-0.4-0.5c-0.1-0.2,0-0.5,0.1-0.5c0.6-0.4,0.3-0.5,0.6-0.5c0.1,0,0.3,0,0.4,0.1c0.3,0.3,0.3,0.5,0.4,0.8
	c-0.3,0.1-0.5,0.2-0.6,0.2c-0.1,0-0.2,0-0.3-0.1c-0.2-0.1-0.2-0.4-0.1-0.6c0-0.1,0.2-0.1,0.2,0c0,0,0.1,0.1,0.1,0.1c0,0,0,0.1,0,0.1
	c-0.1,0.1,0,0.2,0,0.2c0.1,0.1,0.3,0,0.3-0.1c0-0.1,0.1-0.2,0-0.2c0-0.1-0.1,0.6-0.1,0.1c-0.2-0.5-0.5-0.4-0.6-0.2
	c-0.2,0.3,0.1,0.6,0.2,0.8c0.1,0.6,0.2,1,0.4,1c0.3,0,0.5-1,0.7-1.2l0.5-0.9c-0.5-0.3-1.1-0.6-1.6-0.9l-3.6,8.6c0,0,0.1,0,0.1,0.1
	c0.1-0.2,0.3-0.5,0.4-0.5c0.1-0.2,0.1-0.4,0.2-0.5c0-0.1,0.1-0.2,0.1-0.3c0.1,0.3,0.3-0.3,0.4-0.4c0.1-0.1,0.4-0.1,1-0.2
	C26,30.7,26,30.6,26,30.5c0,0.7,0-0.3,0.1-0.4c0.2-0.3,0.5-0.4,0.7-0.4c0,0,0.3,0,0.3,0l0.7,0l-0.1,0.1c0,0-0.5,0.4-1,1
	c-0.2-0.4-0.3-0.2-0.4-0.1l0,0c-0.1,0.2-0.1,0.3-0.4,1c-0.2-0.3-0.4-0.1-0.4,0.2c0,0,0,0.1,0,0.1c0,0.1-0.1,1.1-0.2,0.4
	c-0.1,0.1,0.2,0.4-0.3,0.5c0.5,0,0.3,0,0.6,0.1l6.1-6.6C31,26.1,30.5,25.7,30,26.1z M25.7,34.3c0.4,0.4,0.5-0.2,0.7-0.2
	c0.2,0,0.3-0.1,0.4-0.2c0.5-0.1,0.2-0.1,0.3-0.2c0.2-0.1,0.4,0,0.6,0c0.1,0,0.2,0,0.3,0c0.1,0,0.2-0.1,0.3-0.2
	c0.1-0.1,0.2-0.2,0.4-0.2c0.1,0,0.5,0,0.2,0c0.4,0,0.6,0.3,0.6,0.3l0,0.1l-0.1,0c0,0-0.2,0.2-0.5,0.2c0,0-0.1,0-0.1,0
	c-0.2-0.1-0.4,0-0.6,0l0,0c-0.2,0.1-0.3,0.1-0.7,0.1c-0.3,0-0.6,0-0.6,0.6c-0.3,0.1-0.3,0.3-0.3,0.4c-0.1-0.7-0.2-0.6-0.4-0.6h0
	c-0.2,0-0.2,0.1-0.6,0.2c0,0,0,0.1,0,0.1H35c0-0.6,0.6-1.3-0.2-1.9l-1,0.2c-0.2,0-0.3,0.2-0.5,1.2c-0.1-0.7-0.2-0.5-0.1-0.3
	c0.1,0.3,0.3,0.4,0.6,0.4c0.2,0,0.6,0,0.1,0c0.2,0.4,0.4-0.3,0.3-0.5c0-0.2-0.2-0.3,0.1-0.3c-0.6,0-0.7,0.2-0.7,0.3
	c0,0.1,0.1,0.1,0.7,0l0.3,0c-0.7,0-0.6,0-0.6,0.1c0,0,0,0.1,0,0.1c0,0-0.1,0.1-0.1,0.2c0.8,0.8,0.5,0,0.2,0c-0.5,0-0.7-0.2-0.7-0.4
	c0-0.1,0-0.3,0.1-0.4c0.1-0.1,0.2-0.2,0.7-0.2c0.1,0,0.5,0.9-0.3,0.9c0.3,0,0.5-0.7,0.6-0.4c0.1,0.4-0.1,0.8-0.5,0.9
	c-0.2,0-0.4,0-0.6-0.1c-0.2-0.1-0.3-0.3-0.4-0.5c-0.1-0.3,0-0.6,0.1-0.8c0,0,0,0,0,0c-0.2,0.1-0.7,0.3-1,1.2L32,34.6l0,0.4
	c0-0.1,0.6-1.4,0.3-1.2c-0.1,0.2-0.1-0.6-0.2-0.6c-0.1,0,0.6,0.1-0.3,0.1c-0.1,0.1-0.2,0.1-0.3,0.1c0,0,0,0-0.1,0
	c-0.2,0-0.3-0.1-0.3-0.1l0-0.1l0,0c0,0,0.1-0.2,0.2-0.3c0.1,0,0.2,0,0.4,0c0.3,0,0.2,0,0.3,0c0,0,0.1,0,0.2,0
	c-0.5-0.2-0.7-0.2-0.7-0.3L31.4,32l0.2,0.2c0.6,0.6,1.1,0.7,1.4,0.7c0,0,0,0,0.1,0c0,0,0,0,0,0c-0.2-0.1-0.4-0.4-0.4-0.7
	c0-0.2,0-0.4,0.1-0.6c0.3-0.2,0.3-0.4,0.5-0.4c0.1,0,0.1,0,0.2,0c0.3,0,0.6,0.2,0.7,0.6c0,0.2,0,0.3-0.1,0.4
	c0.6,0.5-0.2,0.2-0.4,0.2c-0.3,0.1-0.5,0.4-0.6-0.4c0-0.1,0-0.2,0.1-0.3c0.1-0.1,0.2-0.2,0.3-0.2l0,0c0.1,0,0.1,0,0.2,0.1
	c0,0.1,0,0.1,0,0.1c0,0-0.1,0-0.1,0.1c-0.1,0-0.1,0-0.1,0c0,0,0,0,0,0.1c0,0.1,0.2,0.2,0.3,0.2c0.2,0,0.6-0.2,0.3-0.4
	c-0.1-0.2-0.3-0.4-0.5-0.3c-0.2,0-0.3,0.1,0.5,0.3c-0.1,0.1-1,0.3-0.8,0.4c0.7,0.3,0.3,0.6,0.6,0.6c0,0,0.1,0,0.1,0l1-0.3
	c-0.1-0.6-0.3-1-0.5-1.8l-8.6,3.5C25.7,34.6,25.7,35,25.7,34.3z M25.5,33.9l8.6-2.7c-0.2-1.4-0.5-2-0.9-2.5l-0.8,0.5
	c-0.3,0.2,0.3,0.7-0.2,1.8c0.1-0.5,0.3-0.5,0.5-0.5c0.1,0,0.6,0,0.3-0.1c0.1,0.5,0.2-0.2,0.2-0.3c0-0.1,0-0.2-0.1-0.3
	c-0.1-0.1-0.3-0.2-0.5-0.1c-0.1,0-0.1,0.1-0.1,0.2c0,0.1,0,0.1,0,0.2c0,0,0,0,0.1,0c0,0,0.1,0,0.1-0.1c0.1,0,1.1,0,0.2,0
	c0,0,0,0.1,0,0.1c0,0,0,0.2-0.1,0.4c-0.2-0.2-0.5-0.2-0.6-0.4c-0.2-0.2-0.1-0.5,0.1-0.7c0.1-0.1,0.2-0.1,1.2-0.1
	c-0.7,0-0.5,0.1-0.4,0.2c0.2,0.3,0.2,0.8-0.2,1c-0.2,0.1-0.4,0.2-0.6,0.1c-0.2,0-0.4-0.2-0.5-0.3c-0.2-0.2-0.2-0.5-0.2-0.8
	c0,0,0,0,0-0.1c-0.1,0.1-0.5,0.6-0.5,1.5l0,0.3l-0.2-0.3c0,0-0.1-0.5-0.1-1.1c-0.1,0.1-0.1,0.1,0.7,0.1c-0.8,0.1-0.9,0.7-1,0.2
	c-0.1,0.1-0.2,0.2-0.3,0.2c-0.1,0-0.1,0.1-0.2,0.1c-0.1,0-0.2,0-0.2,0l0,0l0,0c0,0,0-0.2,0.1-0.3c0.1-0.1,0.2-0.1,0.3-0.2
	c0.1,0,0.2-0.1,0.3-0.1c0,0,0.3-0.1,1-0.1c-0.1,0-0.1,0-0.2,0c-1.2,0-1.6-0.4-1.7-0.4l-0.2-0.3l0.3,0.5c0.3-0.2,0.6-0.1,0.9-0.1
	c0.3,0,0.6-0.1,0.7,0.7c0,0,0,0,0-0.1c-0.3-0.4-0.5-1,0.1-1.2c-0.9-0.2-0.9-0.4-0.9-0.4c0-0.5,0.2-0.7,0.3-0.8
	c0.1-0.1,0.3-0.1,0.4-0.1c0.2,0,0.4,0.1,0.6,0.3c0.1,0.1,0.1,0.3,0.1,1.2c0-0.7-0.1-0.5-0.2-0.4c0.1,0.1-0.2,0.1-0.3,0.1
	c-0.2,0-0.3-0.1-0.4-0.2c-0.1-0.1-0.1-0.2-0.1,0c0-0.4,0.1-0.5,0.2-0.6c0.1,0,0.2,0,0.2,0.1c0,0,0,0.1,0,0.1c0,0,0,0.2-0.1,0.4
	c-0.1-0.2-0.1-0.2-0.1-0.2c0.1,0.1,0.2,0.1,0.3,0.1c0.5,0,1-0.1,0.1,0.3c0-0.6,0-0.6,0.5-0.7c-0.7-0.2-0.9-0.2-1.1-0.1
	c-0.1,0.1-0.2,0.2-0.2,1.1c0-0.6,0-0.4,0.1-0.3c0.1,0.2,0.4,0.3,0.6,0.3c1,0,0.3,0,0.4-0.1l0.8,0.2c-0.4-1.4-0.8-1.5-1.2-2.4
	l-6.6,6.6c0,0,0.1,0.1,0.1,0.1c0.2-0.1,0.4-0.3,0.8-0.4c-0.1-0.1,0-0.2,0.1-0.3c0.1-0.1,0.1-0.2,0.2-0.3c0.2-0.2,0.4,0.4,0.6,0
	c0.1-0.2,0.2-0.3,0.3-0.3c0.1-0.1,0.2-0.2,0.2-0.3c0.1-0.1,0.1-0.3,0.3-0.3c0.8-0.1,0.3,0.7,0.5,0.7c0.2,0,0.3-0.7,0.3-0.7l0.1,0
	l0,0.1c0,0-0.2,0.3-0.4,0.4c0.4,0-0.4,0.1-0.5,0.2l0,0c-0.1,0.6-0.2,0.2-0.6,0.3c-0.3,0.1-0.5,0.3-0.7,0.5c0,0,0,0,0,0.1
	c-0.1,0.1-0.1,0.4,0.2,0.3c-0.8,0.1-1,0.3-1.1,0.4C25.5,33.8,25.5,33.8,25.5,33.9z M25.4,34.7c0-0.1,0-0.2-0.1-0.4l-0.9,0.4H25.4z
	 M25.2,34c-0.1-0.1-0.2-0.3,0.2-0.4l-1.3,0.8L25.2,34z M24.6,33.4c-0.1,0.5-0.2,0.5-0.3-0.2l-0.3,0.8L24.6,33.4z M23.6,32.9v1.2
	c0,0,0,0,0,0L24,33C24,33,23.7,32.9,23.6,32.9z M23.8,34.7c0-0.1-0.1-0.1-0.1-0.2l0,0c-0.1-0.1-0.3-0.1-0.5,0l0,0
	C23,34.6,23,34.7,23.8,34.7L23.8,34.7z M23.2,34v-1.1c-0.1,0,0,0-0.4,0.1L23.2,34z M22.8,31.8c0.1,0.2,0.6,0.5,0.9,0.7
	c-0.7,0-0.6,0-0.5,0v-9.3c-0.7,0.5-1.3,0.7-2,0.2l0.2,1c0.1,0.4,0.9,0.7,0.9,0.6c0.3-0.1,0.5-0.4,0.4-0.3c-0.1-0.6-0.3-0.8-0.5-0.7
	c-0.2,0,0.1,0.2,0.5,1.2c-0.8-0.7-0.6-0.6-0.5-0.6c0,0,0.1,0,0.1,0c0,0,0-0.1,0,0.7c0-0.6,0-1,0.1-1c0.1,0,0.2,0,0.2,0.3
	c0-0.1,0,0-0.1,0.1c-0.1,0.1-0.2,0.2-0.3,0.2c-0.3,0.1-0.5-0.1-0.6-0.4c0-0.2,0-0.3,0.1-0.4c0.2-0.1,0.2-0.2,0.4-0.3
	c0.4-0.1,1.4,0.1,0.9,0.5c0,0.2,0,0.4,0,0.6c-0.2,0.2-0.4,0.3-0.6,0.4c-0.3,0.5-0.6,0-0.8-0.1c0,0,0,0,0,0c0.1,0.2,0.3,0.7,1.2,1
	l0.3,0.1l-0.3,0.2c0,0,0,0-0.1,0c-0.2,0-0.6-0.2-0.9-0.5c0,0.1,0,0.1,0,0.2c0,0.1,0.1,0.7,0.1,0.3c0.4,0.1,1,0.2,0.1,0.3
	c0,0.2-0.1,0.3-0.1,0.3l0,0l0,0c0,0-0.2,0-0.3-0.2c0-0.1,0-0.2,0-0.4c0-0.1,0,0.3,0-0.3c0,0,0-0.1,0-0.2c-0.2,0.5-0.8,0.7-0.8,0.7
	l-0.3,0.1l0.2-0.2c0.6-0.7,0.7-0.4,0.7-1.4c0,0,0,0,0,0c-0.1,0.2-0.4,0.4-0.7,0.4c-0.2,0-0.4,0,0-0.1c-0.8-0.1-1-0.3-1-0.5
	c0-0.2,0-0.4,0.1-0.5c0.1,0.4,0.5-0.3,0.5-0.3c0.3-0.1,0.6,0.5,0.7,0.4c0,0.1,0,0.3-0.1,0.4c-0.1,0.1-0.2,0.2-0.3,0.2
	c-0.2,0-0.5-0.1,0-0.3c-0.1,0,0-0.1,0.2-0.1c-0.7,0-0.6-0.1-0.6-0.1c0.1,0,0.2,0,0.2,0.1c0,0.1,0.1,0.1,0.1,0.1c0,0,0,0,0,0
	c0.1,0,0.2-0.2,0.2-0.3c0-0.2-0.2-0.3-0.4-0.3c-0.1,0,0.5,0.1-0.1,0.2c-0.2,0.1-0.2,0.2-0.2,0.3c0.4,0.3,0.4,0.5,0.7,0.5
	c0.7,0.3,0.7-0.5,0.6-0.9l-0.3-1c-0.6,0.1-1.2,0.3-1.8,0.6l3.6,8.6c0,0,0.1,0,0.1,0c0-0.2-0.1-0.4-0.1-0.6c-0.1-0.2-0.1-0.3-0.1-0.5
	c0,0,0-0.1,0-0.1c0-0.3-0.1-0.6-0.2-0.8C22,31.2,22,30.2,22,30l0-0.1c0-0.2,0.5-0.3-0.3-0.5c-0.2,0-0.1-0.6-0.1-0.6l0-0.1l0.1,0
	c0,0,0.4,0.1,0.6,0.6c0,0.1,0,0.3,0,0.4c0,0.1-0.1,0.3,0,0.4c0,0.1,0.1,0.2,0.2,0.3c0.1,0.1,0.2,0.3,0.3,0.5c0,0.1,0,0.8,0,0.4
	C22.7,31.5,22.7,31.7,22.8,31.8z M22.4,33.1c-0.1,0.1-0.2,0.5-0.3,0.2l0.6,0.6L22.4,33.1z M22.7,34.4l-0.8-0.8
	c-0.1,0.1-0.2,0.2-0.3,0.4L22.7,34.4C22.7,34.4,22.7,34.4,22.7,34.4z M22.4,34.7l-0.9-0.4c0,0.1-0.1,0.3-0.1,0.4H22.4z M21.3,33.7
	c-0.1-0.1,0.1-0.3-0.5-0.3c-0.2,0.8-0.3,0-0.4-0.3c0,0,0,0-0.1-0.1c-0.2-0.2-0.4-0.4-0.7-0.4c-0.4-0.1-0.5-0.2,0.3-0.3l-0.4,0.8
	c-0.7-0.9-0.8-1-1.1-1c-0.3,0,0-0.3-0.1-0.3l-0.4-0.1l0.6,0c0.1,0-0.3-0.1-0.1-0.1c0.1,0,0.3,0,0.4,0.1c0.3,0.1,1,0.2,0.3,0.3
	c0.1,0.1,0.1,0.4,0.3,1c0.1-0.7,0.2-0.6,0.3-0.6c0.2,0,1.2,0,0.6,0.2c0.1,0.1,0.2,0.2,0.3,0.2c0.1,0.1,0.2,0.2,0.3,0.3
	c0.2,0.1,0.5,0.3,0.7,0.4c0-0.1,0.1-0.1,0.1-0.2L15,26.8c-0.5,0.6-0.9,1-1.3,2.3l0.8-0.2c0.1,0.1,0.2,0.1,1.1,0.1
	c-0.4,0-0.2-0.1,0-0.3c0.2-0.3,0.1-0.6-0.2-0.8c-0.1,0-0.2-0.1-0.3-0.1c-0.1,0-0.1,0.1-0.4,0.2c-0.1,0.2-0.1,1.3,0.5,0.5
	c-0.3,0.1-0.1,0-0.1-0.1c0,0.7,0,0.3-0.1-0.2c-0.1,0-0.1-0.1,0-0.2c0-0.1,0.2-0.1,0.2-0.1c0.1,0.1,0.2,0.2,0.2,0.3
	c0,0.5,0,0.2-0.1,0.3c-0.1,0.1-0.2,0.2-0.4,0.2c0.8,0,0.1,0-0.3-0.1c-0.1-0.1-0.2-0.2-0.3-0.1c0-0.4,0-0.6,0.1-0.7
	c0.1-0.2,1.2-0.4,0.6-0.4c0.1,0,0.3,0,0.4,0.1c0.2,0.1,0.4,0.3,1,0.6c-0.6,0.2,0.1,0.4-0.7,0.6c-0.2,0.2-0.4,0.4-0.6,1.2
	c0,0.2,0-0.6-0.1-0.6c0.1,0.4,0.3,0,0.6,0c0.3,0,0.6,0.4,1-0.2L17,29l-0.2,0.5c0,0.2-0.4,0.2-1,0.2c0.5,0,0.1,0.1,0.2,0.1
	c0.1,0,0.2,0.1,0.3,0.1c0.1,0.1,0.2,0.1,0.3,0.1c0.2,0.1,0.1,0.3,0.1,0.3l0,0l0,0c0,0-0.1,0.1-0.2,0.1c-0.1,0-0.1,0-0.2,0
	c-0.1,0-0.2-0.1-0.3,0.1c-0.1-0.4,0.5-0.5-0.2-0.5c0,0-0.1-0.1-0.1-0.1c0.8,0.5,0,1.1,0,1.1l-0.2,1l0-1.1c0-0.9-0.4-1.3-0.5-1.5
	c0,0,0,0,0,0c0.1,0.3,0,0.5-0.2,1.5c-0.1-0.5-0.3-0.4-0.5-0.4c-0.2,0-0.5,0-0.7-0.1c-0.2-0.1-0.3,0.6-0.3-0.4c0-0.2,0-0.4,0.1-0.5
	c0.1-0.2,0.3-0.3,1.1-0.3c-0.5,0-0.4,0-0.3,0.1c0.1,0.1,0.2,0.2,0.2,0.3c0,0.1,0,0.3-0.1,0.4c-0.1,0.1-0.2,0.8-0.4,0.8
	c-0.1,0,0.2-0.2-0.2-0.5c-0.1-0.2-0.1-0.3,0-0.4c0-0.1,0.9-0.1,0.2-0.1c0.1,0,0.1,0.1,0.1,0.1c0,0,0,0,0.1,0c0-0.1,0-0.1,0-0.2
	c0-0.1,0-0.1-0.1-0.2c-0.1-0.1-0.4,0-0.5,0.1c-0.1,0.2-0.1,0.5,0.1,0.6c0.6,0.1,0.2,0.1,0.3,0.1c0.2,0,0.4-0.1,0.5-0.3
	c0.1-0.2,0.1-0.4,0.1-0.6c0-0.2-0.2-0.4-0.3-0.5l-0.9-0.5c-0.3,0.5-0.3,1.1-0.9,2.3l8.6,2.9C21.2,33.8,21.3,33.8,21.3,33.7z
	 M21,34.7c0-0.1,0-0.1,0-0.2c-0.2,0-0.4-0.1-0.6-0.1c-0.3,0-0.3,0-0.5-0.1c0.8,0,0.5,0,0.2,0c-0.6-0.1-0.9-0.2-1.2-0.1
	c0.5,0.2-0.2,0.3-0.3,0.3c-0.1,0-0.2-0.2-0.3-0.3l0,0c-0.2,0-0.3,0-0.6,0c0,0-0.1,0.5-0.1,0.5c-0.2,0-0.4-0.6-0.4-0.6l-0.1,0l0-0.1
	c0,0,0.2-0.4,1.4-0.3c-0.5,0-0.4,0.1-0.2,0.2c0.1,0.1,0.2,0.2,0.4,0.2c0.1,0,0.5,0,0.3,0c0.1,0,0.2-0.1,0.4-0.1c0.1,0,0.1,0,0.2,0
	c0.1,0,0.2,0.1,1.1,0.1c-0.7,0.1-0.5,0.1-0.4,0.1c0.2,0,0.5,0.4,0.7,0.8c0-0.3,0,0.1,0-0.8l-8.6-3.5c-0.2,0.8-0.4,1.2-0.5,1.8
	l1.7,0.2c-0.7,0-0.7,0-0.7,0c0.3,0,0.7-0.2,0.8-0.6c0-0.2,0-0.3-0.1-0.4c-0.1-0.1-0.2-0.2-0.4-0.2c-0.2,0-0.4,0.1-0.5,0.3
	c0,0.2,0.6,0.4,0.3,0.4c0.1,0,0.3-0.1,0.3-0.2c0,0,0-0.1,0-0.1c0,0,0,0-0.1-0.1c0,0-0.1,0-0.1-0.1c0,0,0-0.1,0-0.1
	c0-0.1,0.1-0.1,0.2-0.1l0,0c0.1,0,0.2,0.1,0.3,0.2c0.1,0.1,0.1,0.2,0.1,0.3c0,0.5-0.3,0.4-0.6,0.4c-0.3,0.8-0.5-0.3-0.5-0.7
	c0.1-0.4,0.9-0.6,0.7-0.6c0,0,0.1,0,0.1,0c0.2,0,0.4,0.8,1.2,0.4c-0.5,0.2-0.5,0.4-0.5,0.6c-0.1,0.3-0.1,0.5-0.4,0.7c0,0,0,0,0,0
	c0.2,0,0.8,0,1.4-0.7l0.2-0.2l-0.1,0.3c0,0-0.2,0.6-0.7,0.8c0.1,0,0.1,0,0.2,0c0.1,0,0.2,0,0.3,0c0,0,0.1,0,0.1,0c0.1,0,0.2,0,0.2,0
	c0.2,0,0.3,0.7,0.3,0.8l0,0.2l0-0.7c0,0-0.1,0.2-0.3,0.1c-0.1,0-0.2-0.1,0-0.1c-0.5,0-0.6,0.7-0.7,0.4c0-0.1-0.1-0.3-0.2-0.4
	c0.4,0.3,0.4,1.7,0.4,1l0,0.2l-0.1,0.1c-0.4-1.2-0.9-1.5-1.1-1.5c0,0,0,0,0,0c0.1,0.2,0.2,0.5,0.2,0.8c0,0.2-0.2,0.4-0.3,0.5
	c-0.2,0.1-0.4,0.2-0.6,0.2c-0.2,0-0.3-0.1-0.4-0.3c-0.1-0.2-0.1-0.3-0.1-0.5c0.1-0.3,0.3,0,0.9-0.5c-0.1,0,0,0.1,0.1,0.2
	c0.1,0.1,0.1,0.2,0.1,0.4c0,0.2-0.3,0.8-0.5,0.8c-0.1-0.5-0.1-0.6-0.1-0.7c0-0.1,0.1-0.1,0.2-0.1l0,0c0.3,0,0.6,0,0.9,0
	c-0.7,0-0.7,0-0.7-0.1c0-0.1-0.1-0.3-0.2-0.3c-0.2,0-0.4,0.1-0.4,0.3c0,0.2,0.1,1,0.4,0.5c0,0,0.4,0,0.8,0c-0.4,0-0.1-0.2-0.1-0.5
	c0-0.2,0-0.4-0.1,0.2c-0.1-1-0.3-1.1-0.2-1.1l-1-0.1c-0.4,0.6-0.5,1.2-0.5,1.9H21z M43,42.9h-6.6v-7.1H43V42.9z M43,56.7h-6.6v-6.1
	H43V56.7z M43,71.2h-6.6v-6.5H43V71.2z"/>
</svg>
