<svg xmlns="http://www.w3.org/2000/svg" viewBox="0 0 263.07 150"><defs><style>.cls-1{fill:#fff;}</style></defs><g id="Layer_2" data-name="Layer 2"><g id="Layer_1-2" data-name="Layer 1"><path class="cls-1" d="M142.48,28.87a11.87,11.87,0,0,0-22.81,4.62v.27h23.74v-.27A11.78,11.78,0,0,0,142.48,28.87Zm-8,4.22h0A.74.74,0,0,0,135,33l.07-.05a1.34,1.34,0,0,1,.81-.19,1.1,1.1,0,0,0,.65-.08l.05,0a.89.89,0,0,1,.57,0h.09a.84.84,0,0,0,.46-.18l0,0,0-.06a.72.72,0,0,0-.59-.28l-.17,0a.71.71,0,0,0-.37.22.81.81,0,0,1-.34.21.93.93,0,0,1-.33,0,1.74,1.74,0,0,0-.6,0,1,1,0,0,0-.31.15.85.85,0,0,1-.39.16,5.42,5.42,0,0,0-.72.19l0-.12,8.46-3.5a11.61,11.61,0,0,1,.52,1.74l-1,.27h-.13a.81.81,0,0,1-.76-.6.57.57,0,0,1,.08-.42.59.59,0,0,1,.37-.25.43.43,0,0,1,.52.32.33.33,0,0,1-.25.4.26.26,0,0,1-.28-.19s0-.06,0-.07a.23.23,0,0,1,.12,0l.09-.05a.17.17,0,0,0,0-.14.17.17,0,0,0-.16-.13h0a.4.4,0,0,0-.26.18.37.37,0,0,0-.05.31.48.48,0,0,0,.57.36.58.58,0,0,0,.36-.25.5.5,0,0,0,.08-.43.68.68,0,0,0-.66-.57l-.16,0a.9.9,0,0,0-.52.39.82.82,0,0,0-.11.63,1,1,0,0,0,.43.64.05.05,0,0,0,0,0h-.06a2,2,0,0,1-1.35-.65l-.24-.24.11.32a1.39,1.39,0,0,0,.72.77l-.18,0-.32,0a1.83,1.83,0,0,0-.35,0,.34.34,0,0,0-.24.26v0l0,0a.36.36,0,0,0,.26.13h.06a2.8,2.8,0,0,0,.33-.12l.3-.12.17-.05a1.43,1.43,0,0,0-.34,1l0,.34.12-.32a1.87,1.87,0,0,1,1-1.18l0,0a1,1,0,0,0-.12.77.77.77,0,0,0,.36.52.89.89,0,0,0,.64.14.69.69,0,0,0,.51-.85A.56.56,0,0,0,142,32l-.13,0a.47.47,0,0,0-.31.2.46.46,0,0,0-.06.36.42.42,0,0,0,.4.33H142a.17.17,0,0,0,.11-.2.16.16,0,0,0-.15-.13h0c-.13,0-.17,0-.18-.05a.24.24,0,0,1,.18-.29.33.33,0,0,1,.39.26.42.42,0,0,1-.34.5l-.13,0a.57.57,0,0,1-.56-.44.78.78,0,0,1,.56-.91l1-.17a12.1,12.1,0,0,1,.18,1.9H133.9a.71.71,0,0,0,0-.14A2.2,2.2,0,0,1,134.49,33.09ZM123,28.3a.75.75,0,0,1-.08.57.57.57,0,0,1-.47.26.64.64,0,0,1-.33-.1.42.42,0,0,1-.14-.59.35.35,0,0,1,.46-.11.27.27,0,0,1,.1.15.22.22,0,0,1,0,.18s0,0,0,0a.36.36,0,0,1-.13-.05.15.15,0,0,0-.22.05.16.16,0,0,0,0,.22.36.36,0,0,0,.22.07.42.42,0,0,0,.35-.19.48.48,0,0,0-.15-.66.62.62,0,0,0-.32-.09.55.55,0,0,0-.47.25.71.71,0,0,0-.11.54.63.63,0,0,0,.3.43.87.87,0,0,0,.64.1.8.8,0,0,0,.52-.37,1,1,0,0,0,.16-.76s0,0,0,0a1.94,1.94,0,0,1,.53,1.45V30l.14-.3a1.38,1.38,0,0,0,0-1.06l.14.11.25.21a1.3,1.3,0,0,0,.26.23.3.3,0,0,0,.16.05.33.33,0,0,0,.19-.06h0l0-.05a.36.36,0,0,0-.14-.32,1.67,1.67,0,0,0-.32-.14l-.3-.13-.15-.08a1.43,1.43,0,0,0,1-.48l.21-.26-.31.14a2.3,2.3,0,0,1-1,.22,1.38,1.38,0,0,1-.59-.11h0a1.06,1.06,0,0,0,.63-.46.84.84,0,0,0,.11-.62.83.83,0,0,0-.36-.55.66.66,0,0,0-.36-.11.71.71,0,0,0-.6.35.52.52,0,0,0-.07.42.6.6,0,0,0,.26.36.5.5,0,0,0,.27.08.47.47,0,0,0,.39-.22.42.42,0,0,0-.13-.57.18.18,0,0,0-.22.06.16.16,0,0,0,.05.22c.14.09.11.13.09.16a.25.25,0,0,1-.33.08.34.34,0,0,1-.1-.46.42.42,0,0,1,.35-.19.45.45,0,0,1,.25.07.57.57,0,0,1,.19.79.79.79,0,0,1-.66.34.77.77,0,0,1-.38-.1L122,27a12.19,12.19,0,0,1,1.24-1.53L129.77,32l-.14.18a4.33,4.33,0,0,0-.66-.41.94.94,0,0,1-.32-.27,1.15,1.15,0,0,0-.25-.24,1.27,1.27,0,0,0-.57-.18,1.28,1.28,0,0,1-.32-.09.94.94,0,0,1-.26-.3.68.68,0,0,0-.28-.32.9.9,0,0,0-.41-.11.76.76,0,0,0-.4.12l-.06.05,0,.06a.78.78,0,0,0,.48.32.92.92,0,0,1,.53.19l0,0a1,1,0,0,0,.6.28,1.35,1.35,0,0,1,.71.43l.06.06a.67.67,0,0,0,.39.26,2.23,2.23,0,0,1,.54.33s0,.08-.07.12L121,29a12.86,12.86,0,0,1,.87-1.64l.86.48A.73.73,0,0,1,123,28.3Zm7.57,5.08h-1a1.61,1.61,0,0,1,.08-.38Zm.76-.21a.48.48,0,0,1,.49,0l0,0a.51.51,0,0,1,.13.16h-.83a.42.42,0,0,1,.16-.19Zm-.46-.09h0l-1.08-.45a2.33,2.33,0,0,1,.26-.38Zm-5.53-7.18A.56.56,0,0,1,125,26a.59.59,0,0,1-.48-.26.42.42,0,0,1,.1-.6.33.33,0,0,1,.46.07.25.25,0,0,1-.07.34l0,0s-.06,0-.12-.11a.17.17,0,0,0-.13-.07.16.16,0,0,0-.09,0,.17.17,0,0,0,0,.23.42.42,0,0,0,.58.1.46.46,0,0,0,.19-.31.52.52,0,0,0-.08-.36.62.62,0,0,0-.48-.25.63.63,0,0,0-.32.1.8.8,0,0,0-.31.46.67.67,0,0,0,.12.51.89.89,0,0,0,1.18.2,1,1,0,0,0,.43-.65.08.08,0,0,1,0,0,2,2,0,0,1-.06,1.55l-.13.31.25-.22a1.41,1.41,0,0,0,.44-1,.71.71,0,0,1,.09.15,2,2,0,0,1,.14.29,2.86,2.86,0,0,0,.16.31.35.35,0,0,0,.33.13h0l0,0a.37.37,0,0,0,0-.35,2.51,2.51,0,0,0-.24-.26,1.58,1.58,0,0,1-.22-.23.88.88,0,0,1-.11-.13A1.07,1.07,0,0,0,127,26a1.44,1.44,0,0,0,.64-.15l.3-.16h-.34a1.87,1.87,0,0,1-1.48-.49h0a1,1,0,0,0,.76-.18.85.85,0,0,0,.34-.54.86.86,0,0,0-.12-.64.65.65,0,0,0-.54-.29.82.82,0,0,0-.44.14.56.56,0,0,0-.12.79.47.47,0,0,0,.66.13.41.41,0,0,0,.1-.57.16.16,0,0,0-.23,0,.13.13,0,0,0-.06.1.13.13,0,0,0,0,.11c.1.14.06.17,0,.19a.26.26,0,0,1-.34-.06.34.34,0,0,1,.09-.46.45.45,0,0,1,.6.12.57.57,0,0,1-.13.8.7.7,0,0,1-.42.13.78.78,0,0,1-.63-.3l-.52-.82a10.91,10.91,0,0,1,1.68-.91l3.52,8.49-.14.08a1.81,1.81,0,0,1-.37-.49.73.73,0,0,0-.29-.37l-.07-.05a1.38,1.38,0,0,1-.49-.68,1.07,1.07,0,0,0-.33-.57l0,0a1,1,0,0,1-.24-.52.73.73,0,0,0-.36-.44l-.06,0-.05.06a.75.75,0,0,0,.4,1.06.67.67,0,0,1,.44.55,1.5,1.5,0,0,0,.23.55,1,1,0,0,0,.27.23.89.89,0,0,1,.29.29,3.91,3.91,0,0,0,.45.6l-.05,0-6.49-6.49a11.52,11.52,0,0,1,1.38-1.13l.59.76A.78.78,0,0,1,125.33,25.9Zm5.26,5.91.32.78-.6-.6Zm-1.87-7.7a.59.59,0,0,1-.68-.45.46.46,0,0,1,.06-.33.36.36,0,0,1,.26-.19.33.33,0,0,1,.4.25.24.24,0,0,1-.19.28h0s-.06,0-.1-.14a.15.15,0,0,0-.18-.12.18.18,0,0,0-.11.07.18.18,0,0,0,0,.12.43.43,0,0,0,.5.31.45.45,0,0,0,.29-.21.46.46,0,0,0,.06-.36.56.56,0,0,0-.67-.44.71.71,0,0,0-.46.3.67.67,0,0,0-.09.52.82.82,0,0,0,.39.52.8.8,0,0,0,.62.11,1,1,0,0,0,.65-.43s0,0,0,0a1.88,1.88,0,0,1-.65,1.41l-.24.24.33-.11a1.42,1.42,0,0,0,.77-.72c0,.08,0,.14,0,.18a1.62,1.62,0,0,1,0,.32,3.06,3.06,0,0,0,0,.35.33.33,0,0,0,.25.24h0l0,0a.33.33,0,0,0,.13-.32,2.8,2.8,0,0,0-.12-.33,2.34,2.34,0,0,1-.12-.3s0-.09-.05-.17a1.36,1.36,0,0,0,.92.34h.08l.34,0-.32-.12a1.84,1.84,0,0,1-1.17-1l0,0a1,1,0,0,0,.76.12.87.87,0,0,0,.53-.36.85.85,0,0,0,.13-.64.68.68,0,0,0-.84-.51.55.55,0,0,0-.36.25.59.59,0,0,0-.07.43.48.48,0,0,0,.57.37.4.4,0,0,0,.31-.49.16.16,0,0,0-.32.07.36.36,0,0,1,0,.14s0,0-.06,0a.25.25,0,0,1-.29-.18.34.34,0,0,1,.26-.39.44.44,0,0,1,.51.34.57.57,0,0,1-.43.69.8.8,0,0,1-.9-.57l-.17-.95a10.55,10.55,0,0,1,1.94-.2v9.2l-.23,0a3.85,3.85,0,0,0-.17-.73,1,1,0,0,1,0-.42,1,1,0,0,0,0-.35,1.31,1.31,0,0,0-.27-.53.75.75,0,0,1-.16-.29.79.79,0,0,1,0-.4.76.76,0,0,0,0-.42.76.76,0,0,0-.58-.56h-.08v.07a.79.79,0,0,0,.1.57.84.84,0,0,1,.25.51v0a1.09,1.09,0,0,0,.22.62,1.39,1.39,0,0,1,.21.8.28.28,0,0,0,0,.09.67.67,0,0,0,.1.46,1.79,1.79,0,0,1,.13.59l-.08,0-3.52-8.49a11,11,0,0,1,1.77-.55l.26.95A.8.8,0,0,1,128.72,24.11Zm2.63,7.47v1.09l-.42-1A2.07,2.07,0,0,1,131.35,31.58Zm1.34-7.83h-.11a.56.56,0,0,1-.45-.67.42.42,0,0,1,.49-.36.33.33,0,0,1,.27.38.23.23,0,0,1-.28.19s-.09,0-.06-.18a.15.15,0,0,0-.13-.18.16.16,0,0,0-.19.13.42.42,0,0,0,.33.48.48.48,0,0,0,.55-.4.55.55,0,0,0-.45-.66.67.67,0,0,0-.82.54.84.84,0,0,0,.16.63.79.79,0,0,0,.53.34,1,1,0,0,0,.76-.15l0,0a1.86,1.86,0,0,1-1.13,1.05l-.31.13.34,0h0a1.39,1.39,0,0,0,1-.37l-.05.18a2.11,2.11,0,0,1-.1.3,1.8,1.8,0,0,0-.11.33.35.35,0,0,0,.14.33h.07a.33.33,0,0,0,.24-.26,1.78,1.78,0,0,0,0-.34c0-.12,0-.23,0-.33s0-.09,0-.17a1.37,1.37,0,0,0,.8.69l.32.1-.24-.23a1.86,1.86,0,0,1-.7-1.4l0,0a1,1,0,0,0,.66.4.8.8,0,0,0,.62-.14.84.84,0,0,0,.37-.53.68.68,0,0,0-.11-.51.77.77,0,0,0-.48-.29.57.57,0,0,0-.65.47.47.47,0,0,0,.38.56.41.41,0,0,0,.48-.33.17.17,0,0,0-.14-.19.17.17,0,0,0-.19.13c0,.15-.06.15-.09.15h0a.27.27,0,0,1-.16-.1.3.3,0,0,1,0-.18.35.35,0,0,1,.39-.27.44.44,0,0,1,.34.51.58.58,0,0,1-.66.48.79.79,0,0,1-.62-.87l.21-.94a11.53,11.53,0,0,1,1.92.59l-3.51,8.49-.25-.08a1.88,1.88,0,0,1,.09-.61.68.68,0,0,0,.05-.47s0-.06,0-.09a1.36,1.36,0,0,1,.13-.82,1.12,1.12,0,0,0,.17-.63v-.05a1,1,0,0,1,.2-.54.81.81,0,0,0,.06-.57l0-.07-.07,0a.73.73,0,0,0-.53.61.69.69,0,0,0,.06.42.89.89,0,0,1,.06.39,1,1,0,0,1-.14.31,1.36,1.36,0,0,0-.22.55,1,1,0,0,0,0,.35.94.94,0,0,1,0,.41,5,5,0,0,0-.11.75h-.11V22a11.25,11.25,0,0,1,1.84.18l-.12,1A.8.8,0,0,1,132.69,23.75Zm-1,9V31.58a1.88,1.88,0,0,1,.47.1l-.45,1.08Zm4.92-7.69a.73.73,0,0,1-.39-.1.58.58,0,0,1-.16-.8.44.44,0,0,1,.6-.14.34.34,0,0,1,.14.21.32.32,0,0,1,0,.25.25.25,0,0,1-.33.06s-.07,0,0-.18a.16.16,0,0,0,0-.12.19.19,0,0,0-.08-.1.17.17,0,0,0-.22,0,.42.42,0,0,0,.12.57.5.5,0,0,0,.26.08.48.48,0,0,0,.4-.23.56.56,0,0,0-.16-.79.78.78,0,0,0-.41-.12.65.65,0,0,0-.56.31.86.86,0,0,0-.09.64.79.79,0,0,0,.36.53,1,1,0,0,0,.76.15h0a1.89,1.89,0,0,1-1.45.54h-.34l.31.15a1.62,1.62,0,0,0,.59.12,1.14,1.14,0,0,0,.46-.09.73.73,0,0,1-.11.15l-.21.24a2.39,2.39,0,0,0-.23.26.32.32,0,0,0,0,.35v0l.05,0h0a.33.33,0,0,0,.28-.14,1.67,1.67,0,0,0,.14-.32c.05-.1.09-.21.13-.29l.09-.16a1.45,1.45,0,0,0,.47.95l.26.21-.14-.31a1.91,1.91,0,0,1-.11-1.55v.05a1.06,1.06,0,0,0,.46.63.81.81,0,0,0,.63.11.86.86,0,0,0,.54-.35.68.68,0,0,0-.23-1,.55.55,0,0,0-.3-.09.58.58,0,0,0-.49.27.48.48,0,0,0,.14.66.43.43,0,0,0,.22.06.42.42,0,0,0,.35-.19.15.15,0,0,0,0-.1.2.2,0,0,0-.08-.12.15.15,0,0,0-.09,0,.14.14,0,0,0-.13.07c-.06.1-.1.13-.16.09a.28.28,0,0,1-.11-.15.28.28,0,0,1,0-.18.35.35,0,0,1,.46-.1.43.43,0,0,1,.19.27.44.44,0,0,1-.07.33.59.59,0,0,1-.49.28.55.55,0,0,1-.3-.09.79.79,0,0,1-.23-1l.57-.82a12.64,12.64,0,0,1,1.44,1.19l-6.49,6.49-.07-.06a2.17,2.17,0,0,1,.31-.53.64.64,0,0,0,.23-.41s0-.05,0-.08A1.32,1.32,0,0,1,134,30a1.11,1.11,0,0,0,.4-.52l0-.05a.94.94,0,0,1,.39-.41.77.77,0,0,0,.27-.51V28.4h-.15a.81.81,0,0,0-.65.36.84.84,0,0,0-.1.42.76.76,0,0,1-.1.39.85.85,0,0,1-.24.22,1.43,1.43,0,0,0-.42.43,1.07,1.07,0,0,0-.11.33.84.84,0,0,1-.16.38,4.13,4.13,0,0,0-.37.63l-.1-.05,3.52-8.5a10.26,10.26,0,0,1,1.59.87l-.5.88A.76.76,0,0,1,136.65,25.06Zm-4.41,7.53.3-.75a1.51,1.51,0,0,1,.26.18Zm.83-.3a1.85,1.85,0,0,1,.25.37l-1.06.44Zm6.8-4.53a.78.78,0,0,1-.64-.31.55.55,0,0,1-.09-.43.58.58,0,0,1,.24-.37.45.45,0,0,1,.61.1.31.31,0,0,1,0,.25.32.32,0,0,1-.13.21.26.26,0,0,1-.34-.06s0-.07.09-.17a.15.15,0,0,0,.07-.1.27.27,0,0,0,0-.12.19.19,0,0,0-.23-.05.41.41,0,0,0-.17.27.42.42,0,0,0,.07.31.48.48,0,0,0,.38.2.58.58,0,0,0,.29-.09.62.62,0,0,0,.24-.37.52.52,0,0,0-.09-.42.67.67,0,0,0-1-.2.85.85,0,0,0-.33.56.8.8,0,0,0,.14.62,1,1,0,0,0,.64.43h0a1.63,1.63,0,0,1-.64.13,2.6,2.6,0,0,1-.91-.19l-.31-.13.22.25a1.4,1.4,0,0,0,1,.44h0l-.15.1-.29.13a2.86,2.86,0,0,0-.31.16.36.36,0,0,0-.13.33l0,.05h0a.59.59,0,0,0,.18,0,.25.25,0,0,0,.17-.05,1.79,1.79,0,0,0,.26-.24,2.34,2.34,0,0,1,.23-.22l.14-.11a1.43,1.43,0,0,0,.07,1.05l.16.3v-.34a1.93,1.93,0,0,1,.49-1.48.13.13,0,0,1,0,.06,1,1,0,0,0,.19.75.8.8,0,0,0,.53.34.86.86,0,0,0,.64-.12.68.68,0,0,0,.15-1,.54.54,0,0,0-.45-.24.67.67,0,0,0-.34.1.48.48,0,0,0-.13.67.42.42,0,0,0,.57.1.14.14,0,0,0,.07-.1.31.31,0,0,0,0-.13.17.17,0,0,0-.22,0,.28.28,0,0,1-.13.06h0a.08.08,0,0,1-.06,0,.28.28,0,0,1,0-.18.25.25,0,0,1,.1-.16.34.34,0,0,1,.46.09.41.41,0,0,1,.07.32.49.49,0,0,1-.19.28.62.62,0,0,1-.34.11.55.55,0,0,1-.46-.24.78.78,0,0,1,.18-1.05l.82-.53a11.93,11.93,0,0,1,.87,1.66l-8.46,3.51c0-.05,0-.11-.08-.16a1.89,1.89,0,0,1,.48-.36.64.64,0,0,0,.37-.29l.05-.07a1.36,1.36,0,0,1,.68-.48,1.13,1.13,0,0,0,.57-.34l0,0a.9.9,0,0,1,.52-.23.73.73,0,0,0,.44-.37l0-.06-.06,0a.63.63,0,0,0-.35-.09.91.91,0,0,0-.46.14.78.78,0,0,0-.25.34.81.81,0,0,1-.24.33.76.76,0,0,1-.31.11,1.39,1.39,0,0,0-.55.24.94.94,0,0,0-.23.26.89.89,0,0,1-.29.29,4.75,4.75,0,0,0-.59.44.64.64,0,0,0-.1-.13l6.49-6.49A12.78,12.78,0,0,1,141.05,27l-.78.6A.68.68,0,0,1,139.87,27.76ZM133.46,33a2.25,2.25,0,0,1,.06.36h-.94Zm-5.62-.43-.2,0a1.89,1.89,0,0,0-.39.06,1,1,0,0,1-.33,0,.82.82,0,0,1-.36-.18.84.84,0,0,0-.39-.19.73.73,0,0,0-.73.33l0,.06.06,0a.83.83,0,0,0,.43.14l.13,0a1,1,0,0,1,.57,0h0a1,1,0,0,0,.34.06l.31,0a1.4,1.4,0,0,1,.83.12l.07,0a.76.76,0,0,0,.47.09,1.68,1.68,0,0,1,.54.08c0,.06,0,.12,0,.18h-9.13a11.24,11.24,0,0,1,.17-1.84l1,.12a.74.74,0,0,1,.46.31.78.78,0,0,1,.14.56.56.56,0,0,1-.57.46h-.11a.42.42,0,0,1-.36-.49.34.34,0,0,1,.38-.27.25.25,0,0,1,.2.28s0,.07-.1.07h-.11a.15.15,0,0,0-.15.14.17.17,0,0,0,.12.19.41.41,0,0,0,.48-.33.5.5,0,0,0-.08-.36.51.51,0,0,0-.32-.19.55.55,0,0,0-.66.45.71.71,0,0,0,.1.54.65.65,0,0,0,.45.28.84.84,0,0,0,.63-.16.85.85,0,0,0,.34-.53,1,1,0,0,0-.15-.76l0,0a2,2,0,0,1,1.05,1.14l.13.31,0-.34a1.41,1.41,0,0,0-.37-1l.17.05.31.1a1.41,1.41,0,0,0,.33.11.34.34,0,0,0,.32-.14l0-.05v0a.33.33,0,0,0-.25-.24l-.21,0h-.46l-.18,0a1.48,1.48,0,0,0,.7-.8l.09-.32-.23.24a1.84,1.84,0,0,1-1.39.7l0,0a1,1,0,0,0,.41-.66.85.85,0,0,0-.14-.62.86.86,0,0,0-.54-.37h-.12a.68.68,0,0,0-.67.59.57.57,0,0,0,.46.66.47.47,0,0,0,.56-.38.42.42,0,0,0-.06-.31.44.44,0,0,0-.27-.17h0a.16.16,0,0,0-.16.14.17.17,0,0,0,0,.12.14.14,0,0,0,.1.06.38.38,0,0,1,.15.06.11.11,0,0,1,0,.06.25.25,0,0,1-.28.2.35.35,0,0,1-.26-.39.43.43,0,0,1,.51-.34.63.63,0,0,1,.38.23.6.6,0,0,1,.09.43.8.8,0,0,1-.76.62h-.11l-1-.21a10.17,10.17,0,0,1,.53-1.81l8.46,3.5,0,.1a5.22,5.22,0,0,0-.69-.11.81.81,0,0,1-.39-.12A.88.88,0,0,0,127.84,32.59Z"/><rect class="cls-1" x="144.4" y="41.61" width="8.86" height="6.41"/><rect class="cls-1" x="144.4" y="55.87" width="8.86" height="6.41"/><rect class="cls-1" x="144.4" y="70.14" width="8.86" height="6.41"/><rect class="cls-1" x="144.4" y="48.69" width="6.41" height="6.41"/><rect class="cls-1" x="144.4" y="63.01" width="6.41" height="6.41"/><rect class="cls-1" x="109.81" y="41.61" width="8.86" height="6.41"/><rect class="cls-1" x="109.81" y="55.87" width="8.86" height="6.41"/><rect class="cls-1" x="109.81" y="70.14" width="8.86" height="6.41"/><rect class="cls-1" x="112.26" y="48.69" width="6.41" height="6.41"/><rect class="cls-1" x="112.26" y="63.01" width="6.41" height="6.41"/><path class="cls-1" d="M119.64,56.32v3.52h3.09V56.32ZM121,59.71l.11-.56a.19.19,0,0,1-.09-.16.18.18,0,1,1,.26.16l.12.56Zm.16-1.09a.81.81,0,1,1,.8-.81A.8.8,0,0,1,121.19,58.62Z"/><path class="cls-1" d="M127,36.6a.44.44,0,0,0-.18-.4v-.29a.43.43,0,0,0,.18-.4.42.42,0,0,0-.18-.39v-.41h-.16v.42a.44.44,0,0,0-.16.38.43.43,0,0,0,.16.38v.33a.53.53,0,0,0,0,.76v.32a.44.44,0,0,0-.16.38.43.43,0,0,0,.16.38v.33a.43.43,0,0,0-.16.38.44.44,0,0,0,.16.38v.32a.53.53,0,0,0,0,.76v.32a.46.46,0,0,0-.16.39.44.44,0,0,0,.16.38v.32a.53.53,0,0,0,0,.76v.32a.46.46,0,0,0-.16.39.44.44,0,0,0,.16.38v.32a.53.53,0,0,0,0,.76v.32a.44.44,0,0,0-.16.38.46.46,0,0,0,.16.39V46a.53.53,0,0,0,0,.76v.32a.44.44,0,0,0-.16.38.46.46,0,0,0,.16.39v.32a.53.53,0,0,0,0,.76v.32a.44.44,0,0,0-.16.38.43.43,0,0,0,.16.38v.33a.43.43,0,0,0-.16.38.44.44,0,0,0,.16.38v.32a.53.53,0,0,0,0,.76v.32a.46.46,0,0,0-.16.39.44.44,0,0,0,.16.38v.32a.53.53,0,0,0,0,.76v.32a.46.46,0,0,0-.16.39.44.44,0,0,0,.16.38v.8h.16v-.79A.42.42,0,0,0,127,55a.43.43,0,0,0-.18-.4v-.29A.44.44,0,0,0,127,54a.41.41,0,0,0-.18-.39v-.3a.42.42,0,0,0,.18-.39.43.43,0,0,0-.18-.4v-.29a.44.44,0,0,0,.18-.4.42.42,0,0,0-.18-.39v-.3a.42.42,0,0,0,.18-.39.43.43,0,0,0-.18-.4V50a.43.43,0,0,0,.18-.4.42.42,0,0,0-.18-.39v-.3a.41.41,0,0,0,.18-.39.44.44,0,0,0-.18-.4v-.29a.43.43,0,0,0,.18-.4.42.42,0,0,0-.18-.39v-.3a.51.51,0,0,0,0-.78v-.3a.43.43,0,0,0,.18-.4.42.42,0,0,0-.18-.39v-.3a.51.51,0,0,0,0-.78v-.3a.42.42,0,0,0,.18-.39.43.43,0,0,0-.18-.4v-.3a.51.51,0,0,0,0-.78v-.3a.42.42,0,0,0,.18-.39.43.43,0,0,0-.18-.4v-.29a.44.44,0,0,0,.18-.4.41.41,0,0,0-.18-.39v-.3a.42.42,0,0,0,.18-.39.43.43,0,0,0-.18-.4v-.29a.43.43,0,0,0,.18-.4.42.42,0,0,0-.18-.39V37A.42.42,0,0,0,127,36.6Z"/><path class="cls-1" d="M129.47,36.6a.46.46,0,0,0-.18-.4v-.29a.45.45,0,0,0,.18-.4.44.44,0,0,0-.18-.39v-.41h-.17v.42a.47.47,0,0,0-.16.38.45.45,0,0,0,.16.38v.33a.53.53,0,0,0,0,.76v.32a.47.47,0,0,0-.16.38.45.45,0,0,0,.16.38v.33a.45.45,0,0,0-.16.38.47.47,0,0,0,.16.38v.32a.53.53,0,0,0,0,.76v.32a.49.49,0,0,0-.16.39.47.47,0,0,0,.16.38v.32a.53.53,0,0,0,0,.76v.32a.49.49,0,0,0-.16.39.47.47,0,0,0,.16.38v.32a.53.53,0,0,0,0,.76v.32a.47.47,0,0,0-.16.38.49.49,0,0,0,.16.39V46a.53.53,0,0,0,0,.76v.32a.47.47,0,0,0-.16.38.49.49,0,0,0,.16.39v.32a.53.53,0,0,0,0,.76v.32a.47.47,0,0,0-.16.38.45.45,0,0,0,.16.38v.33a.45.45,0,0,0-.16.38.47.47,0,0,0,.16.38v.32a.53.53,0,0,0,0,.76v.32a.49.49,0,0,0-.16.39.47.47,0,0,0,.16.38v.32a.53.53,0,0,0,0,.76v.32A.49.49,0,0,0,129,55a.47.47,0,0,0,.16.38v.8h.17v-.79a.44.44,0,0,0,.18-.39.45.45,0,0,0-.18-.4v-.29a.46.46,0,0,0,.18-.4.43.43,0,0,0-.18-.39v-.3a.44.44,0,0,0,.18-.39.45.45,0,0,0-.18-.4v-.29a.46.46,0,0,0,.18-.4.44.44,0,0,0-.18-.39v-.3a.44.44,0,0,0,.18-.39.45.45,0,0,0-.18-.4V50a.45.45,0,0,0,.18-.4.44.44,0,0,0-.18-.39v-.3a.43.43,0,0,0,.18-.39.46.46,0,0,0-.18-.4v-.29a.45.45,0,0,0,.18-.4.44.44,0,0,0-.18-.39v-.3a.51.51,0,0,0,0-.78v-.3a.45.45,0,0,0,.18-.4.44.44,0,0,0-.18-.39v-.3a.51.51,0,0,0,0-.78v-.3a.44.44,0,0,0,.18-.39.45.45,0,0,0-.18-.4v-.3a.51.51,0,0,0,0-.78v-.3a.44.44,0,0,0,.18-.39.45.45,0,0,0-.18-.4v-.29a.46.46,0,0,0,.18-.4.43.43,0,0,0-.18-.39v-.3a.44.44,0,0,0,.18-.39.45.45,0,0,0-.18-.4v-.29a.45.45,0,0,0,.18-.4.44.44,0,0,0-.18-.39V37A.44.44,0,0,0,129.47,36.6Z"/><path class="cls-1" d="M131.89,36.6a.46.46,0,0,0-.18-.4v-.29a.45.45,0,0,0,.18-.4.44.44,0,0,0-.18-.39v-.41h-.17v.42a.47.47,0,0,0-.15.38.45.45,0,0,0,.15.38v.33a.56.56,0,0,0,0,.76v.32a.47.47,0,0,0-.15.38.45.45,0,0,0,.15.38v.33a.45.45,0,0,0-.15.38.47.47,0,0,0,.15.38v.32a.56.56,0,0,0,0,.76v.32a.49.49,0,0,0-.15.39.47.47,0,0,0,.15.38v.32a.56.56,0,0,0,0,.76v.32a.49.49,0,0,0-.15.39.47.47,0,0,0,.15.38v.32a.56.56,0,0,0,0,.76v.32a.47.47,0,0,0-.15.38.49.49,0,0,0,.15.39V46a.56.56,0,0,0,0,.76v.32a.47.47,0,0,0-.15.38.49.49,0,0,0,.15.39v.32a.56.56,0,0,0,0,.76v.32a.47.47,0,0,0-.15.38.45.45,0,0,0,.15.38v.33a.45.45,0,0,0-.15.38.47.47,0,0,0,.15.38v.32a.56.56,0,0,0,0,.76v.32a.49.49,0,0,0-.15.39.47.47,0,0,0,.15.38v.32a.56.56,0,0,0,0,.76v.32a.49.49,0,0,0-.15.39.47.47,0,0,0,.15.38v.8h.17v-.79a.44.44,0,0,0,.18-.39.45.45,0,0,0-.18-.4v-.29a.46.46,0,0,0,.18-.4.43.43,0,0,0-.18-.39v-.3a.44.44,0,0,0,.18-.39.45.45,0,0,0-.18-.4v-.29a.46.46,0,0,0,.18-.4.44.44,0,0,0-.18-.39v-.3a.44.44,0,0,0,.18-.39.45.45,0,0,0-.18-.4V50a.45.45,0,0,0,.18-.4.44.44,0,0,0-.18-.39v-.3a.43.43,0,0,0,.18-.39.46.46,0,0,0-.18-.4v-.29a.45.45,0,0,0,.18-.4.44.44,0,0,0-.18-.39v-.3a.51.51,0,0,0,0-.78v-.3a.45.45,0,0,0,.18-.4.44.44,0,0,0-.18-.39v-.3a.51.51,0,0,0,0-.78v-.3a.44.44,0,0,0,.18-.39.45.45,0,0,0-.18-.4v-.3a.51.51,0,0,0,0-.78v-.3a.44.44,0,0,0,.18-.39.45.45,0,0,0-.18-.4v-.29a.46.46,0,0,0,.18-.4.43.43,0,0,0-.18-.39v-.3a.44.44,0,0,0,.18-.39.45.45,0,0,0-.18-.4v-.29a.45.45,0,0,0,.18-.4.44.44,0,0,0-.18-.39V37A.44.44,0,0,0,131.89,36.6Z"/><path class="cls-1" d="M134.17,36.6a.46.46,0,0,0-.18-.4v-.29a.45.45,0,0,0,.18-.4.44.44,0,0,0-.18-.39v-.41h-.17v.42a.47.47,0,0,0-.15.38.45.45,0,0,0,.15.38v.33a.56.56,0,0,0,0,.76v.32a.47.47,0,0,0-.15.38.45.45,0,0,0,.15.38v.33a.45.45,0,0,0-.15.38.47.47,0,0,0,.15.38v.32a.56.56,0,0,0,0,.76v.32a.49.49,0,0,0-.15.39.47.47,0,0,0,.15.38v.32a.56.56,0,0,0,0,.76v.32a.49.49,0,0,0-.15.39.47.47,0,0,0,.15.38v.32a.56.56,0,0,0,0,.76v.32a.47.47,0,0,0-.15.38.49.49,0,0,0,.15.39V46a.56.56,0,0,0,0,.76v.32a.47.47,0,0,0-.15.38.49.49,0,0,0,.15.39v.32a.56.56,0,0,0,0,.76v.32a.47.47,0,0,0-.15.38.45.45,0,0,0,.15.38v.33a.45.45,0,0,0-.15.38.47.47,0,0,0,.15.38v.32a.56.56,0,0,0,0,.76v.32a.49.49,0,0,0-.15.39.47.47,0,0,0,.15.38v.32a.56.56,0,0,0,0,.76v.32a.49.49,0,0,0-.15.39.47.47,0,0,0,.15.38v.8H134v-.79a.44.44,0,0,0,.18-.39.45.45,0,0,0-.18-.4v-.29a.46.46,0,0,0,.18-.4.43.43,0,0,0-.18-.39v-.3a.44.44,0,0,0,.18-.39.45.45,0,0,0-.18-.4v-.29a.46.46,0,0,0,.18-.4.44.44,0,0,0-.18-.39v-.3a.44.44,0,0,0,.18-.39.45.45,0,0,0-.18-.4V50a.45.45,0,0,0,.18-.4.44.44,0,0,0-.18-.39v-.3a.43.43,0,0,0,.18-.39.46.46,0,0,0-.18-.4v-.29a.45.45,0,0,0,.18-.4.44.44,0,0,0-.18-.39v-.3a.51.51,0,0,0,0-.78v-.3a.45.45,0,0,0,.18-.4.44.44,0,0,0-.18-.39v-.3a.51.51,0,0,0,0-.78v-.3a.44.44,0,0,0,.18-.39.45.45,0,0,0-.18-.4v-.3a.51.51,0,0,0,0-.78v-.3a.44.44,0,0,0,.18-.39.45.45,0,0,0-.18-.4v-.29a.46.46,0,0,0,.18-.4.43.43,0,0,0-.18-.39v-.3a.44.44,0,0,0,.18-.39.45.45,0,0,0-.18-.4v-.29a.45.45,0,0,0,.18-.4.44.44,0,0,0-.18-.39V37A.44.44,0,0,0,134.17,36.6Z"/><path class="cls-1" d="M136.59,36.6a.44.44,0,0,0-.18-.4v-.29a.43.43,0,0,0,.18-.4.42.42,0,0,0-.18-.39v-.41h-.17v.42a.47.47,0,0,0-.15.38.45.45,0,0,0,.15.38v.33a.56.56,0,0,0,0,.76v.32a.47.47,0,0,0-.15.38.45.45,0,0,0,.15.38v.33a.45.45,0,0,0-.15.38.47.47,0,0,0,.15.38v.32a.56.56,0,0,0,0,.76v.32a.49.49,0,0,0-.15.39.47.47,0,0,0,.15.38v.32a.56.56,0,0,0,0,.76v.32a.49.49,0,0,0-.15.39.47.47,0,0,0,.15.38v.32a.56.56,0,0,0,0,.76v.32a.47.47,0,0,0-.15.38.49.49,0,0,0,.15.39V46a.56.56,0,0,0,0,.76v.32a.47.47,0,0,0-.15.38.49.49,0,0,0,.15.39v.32a.56.56,0,0,0,0,.76v.32a.47.47,0,0,0-.15.38.45.45,0,0,0,.15.38v.33a.45.45,0,0,0-.15.38.47.47,0,0,0,.15.38v.32a.56.56,0,0,0,0,.76v.32a.49.49,0,0,0-.15.39.47.47,0,0,0,.15.38v.32a.56.56,0,0,0,0,.76v.32a.49.49,0,0,0-.15.39.47.47,0,0,0,.15.38v.8h.17v-.79a.42.42,0,0,0,.18-.39.43.43,0,0,0-.18-.4v-.29a.44.44,0,0,0,.18-.4.41.41,0,0,0-.18-.39v-.3a.42.42,0,0,0,.18-.39.43.43,0,0,0-.18-.4v-.29a.44.44,0,0,0,.18-.4.42.42,0,0,0-.18-.39v-.3a.42.42,0,0,0,.18-.39.43.43,0,0,0-.18-.4V50a.43.43,0,0,0,.18-.4.42.42,0,0,0-.18-.39v-.3a.41.41,0,0,0,.18-.39.44.44,0,0,0-.18-.4v-.29a.43.43,0,0,0,.18-.4.42.42,0,0,0-.18-.39v-.3a.51.51,0,0,0,0-.78v-.3a.43.43,0,0,0,.18-.4.42.42,0,0,0-.18-.39v-.3a.51.51,0,0,0,0-.78v-.3a.42.42,0,0,0,.18-.39.43.43,0,0,0-.18-.4v-.3a.51.51,0,0,0,0-.78v-.3a.42.42,0,0,0,.18-.39.43.43,0,0,0-.18-.4v-.29a.44.44,0,0,0,.18-.4.41.41,0,0,0-.18-.39v-.3a.42.42,0,0,0,.18-.39.43.43,0,0,0-.18-.4v-.29a.43.43,0,0,0,.18-.4.42.42,0,0,0-.18-.39V37A.42.42,0,0,0,136.59,36.6Z"/><path class="cls-1" d="M126.86,75.68a.45.45,0,0,0,0-.72v-.27a.35.35,0,0,0,.18-.35.38.38,0,0,0-.18-.36v-.27a.37.37,0,0,0,.18-.36.36.36,0,0,0-.18-.35v-.27a.38.38,0,0,0,.18-.36.35.35,0,0,0-.18-.35v-.27a.45.45,0,0,0,0-.72v-.26a.45.45,0,0,0,0-.72v-.27a.35.35,0,0,0,.18-.35.38.38,0,0,0-.18-.36V68.8a.35.35,0,0,0,.18-.35.38.38,0,0,0-.18-.36v-.27a.38.38,0,0,0,.18-.36.35.35,0,0,0-.18-.35v-.27a.38.38,0,0,0,.18-.36.35.35,0,0,0-.18-.35v-.27a.45.45,0,0,0,0-.72v-.26a.45.45,0,0,0,0-.72v-.27a.35.35,0,0,0,.18-.35.38.38,0,0,0-.18-.36v-.27a.37.37,0,0,0,.18-.36.36.36,0,0,0-.18-.35v-.27a.38.38,0,0,0,.18-.36.35.35,0,0,0-.18-.35V61a.45.45,0,0,0,0-.72v-.36h-.16v.38a.36.36,0,0,0-.16.34.39.39,0,0,0,.16.35v.29a.38.38,0,0,0-.16.34.39.39,0,0,0,.16.35v.29a.38.38,0,0,0-.16.34.39.39,0,0,0,.16.35v.29a.39.39,0,0,0-.16.35.38.38,0,0,0,.16.34v.29a.39.39,0,0,0-.16.35.36.36,0,0,0,.16.34v.29a.46.46,0,0,0,0,.7v.29a.38.38,0,0,0-.16.34.39.39,0,0,0,.16.35v.29a.38.38,0,0,0-.16.34.39.39,0,0,0,.16.35v.29a.39.39,0,0,0-.16.35.38.38,0,0,0,.16.34v.29a.39.39,0,0,0-.16.35.38.38,0,0,0,.16.34v.29a.46.46,0,0,0,0,.7v.29a.38.38,0,0,0-.16.34.39.39,0,0,0,.16.35V72a.38.38,0,0,0-.16.34.39.39,0,0,0,.16.35V73a.39.39,0,0,0-.16.34.39.39,0,0,0,.16.35V74a.39.39,0,0,0-.16.35.38.38,0,0,0,.16.34V75a.39.39,0,0,0-.16.35.38.38,0,0,0,.16.34v.73h.16Z"/><path class="cls-1" d="M129.29,75.68a.45.45,0,0,0,0-.72v-.27a.37.37,0,0,0,.18-.35.4.4,0,0,0-.18-.36v-.27a.39.39,0,0,0,.18-.36.38.38,0,0,0-.18-.35v-.27a.4.4,0,0,0,.18-.36.37.37,0,0,0-.18-.35v-.27a.45.45,0,0,0,0-.72v-.26a.45.45,0,0,0,0-.72v-.27a.37.37,0,0,0,.18-.35.4.4,0,0,0-.18-.36V68.8a.37.37,0,0,0,.18-.35.4.4,0,0,0-.18-.36v-.27a.4.4,0,0,0,.18-.36.37.37,0,0,0-.18-.35v-.27a.4.4,0,0,0,.18-.36.37.37,0,0,0-.18-.35v-.27a.45.45,0,0,0,0-.72v-.26a.45.45,0,0,0,0-.72v-.27a.37.37,0,0,0,.18-.35.4.4,0,0,0-.18-.36v-.27a.39.39,0,0,0,.18-.36.38.38,0,0,0-.18-.35v-.27a.4.4,0,0,0,.18-.36.37.37,0,0,0-.18-.35V61a.45.45,0,0,0,0-.72v-.36h-.17v.38a.39.39,0,0,0-.16.34.42.42,0,0,0,.16.35v.29a.4.4,0,0,0-.16.34.42.42,0,0,0,.16.35v.29a.4.4,0,0,0-.16.34.42.42,0,0,0,.16.35v.29a.42.42,0,0,0-.16.35.4.4,0,0,0,.16.34v.29a.42.42,0,0,0-.16.35.39.39,0,0,0,.16.34v.29a.46.46,0,0,0,0,.7v.29a.4.4,0,0,0-.16.34.42.42,0,0,0,.16.35v.29a.4.4,0,0,0-.16.34.42.42,0,0,0,.16.35v.29a.42.42,0,0,0-.16.35.4.4,0,0,0,.16.34v.29a.42.42,0,0,0-.16.35.4.4,0,0,0,.16.34v.29a.46.46,0,0,0,0,.7v.29a.4.4,0,0,0-.16.34.42.42,0,0,0,.16.35V72a.4.4,0,0,0-.16.34.42.42,0,0,0,.16.35V73a.41.41,0,0,0-.16.34.42.42,0,0,0,.16.35V74a.42.42,0,0,0-.16.35.4.4,0,0,0,.16.34V75a.42.42,0,0,0-.16.35.4.4,0,0,0,.16.34v.76h.17Z"/><path class="cls-1" d="M131.71,75.68a.45.45,0,0,0,0-.72v-.27a.37.37,0,0,0,.18-.35.4.4,0,0,0-.18-.36v-.27a.39.39,0,0,0,.18-.36.38.38,0,0,0-.18-.35v-.27a.4.4,0,0,0,.18-.36.37.37,0,0,0-.18-.35v-.27a.45.45,0,0,0,0-.72v-.26a.45.45,0,0,0,0-.72v-.27a.37.37,0,0,0,.18-.35.4.4,0,0,0-.18-.36V68.8a.37.37,0,0,0,.18-.35.4.4,0,0,0-.18-.36v-.27a.4.4,0,0,0,.18-.36.37.37,0,0,0-.18-.35v-.27a.4.4,0,0,0,.18-.36.37.37,0,0,0-.18-.35v-.27a.45.45,0,0,0,0-.72v-.26a.45.45,0,0,0,0-.72v-.27a.37.37,0,0,0,.18-.35.4.4,0,0,0-.18-.36v-.27a.39.39,0,0,0,.18-.36.38.38,0,0,0-.18-.35v-.27a.4.4,0,0,0,.18-.36.37.37,0,0,0-.18-.35V61a.45.45,0,0,0,0-.72v-.36h-.17v.38a.38.38,0,0,0-.15.34.41.41,0,0,0,.15.35v.29a.39.39,0,0,0-.15.34.41.41,0,0,0,.15.35v.29a.39.39,0,0,0-.15.34.41.41,0,0,0,.15.35v.29a.41.41,0,0,0-.15.35.39.39,0,0,0,.15.34v.29a.41.41,0,0,0-.15.35.38.38,0,0,0,.15.34v.29a.48.48,0,0,0,0,.7v.29a.39.39,0,0,0-.15.34.41.41,0,0,0,.15.35v.29a.39.39,0,0,0-.15.34.41.41,0,0,0,.15.35v.29a.41.41,0,0,0-.15.35.39.39,0,0,0,.15.34v.29a.41.41,0,0,0-.15.35.39.39,0,0,0,.15.34v.29a.48.48,0,0,0,0,.7v.29a.39.39,0,0,0-.15.34.41.41,0,0,0,.15.35V72a.39.39,0,0,0-.15.34.41.41,0,0,0,.15.35V73a.41.41,0,0,0-.15.34.41.41,0,0,0,.15.35V74a.41.41,0,0,0-.15.35.39.39,0,0,0,.15.34V75a.41.41,0,0,0-.15.35.39.39,0,0,0,.15.34v.76h.17Z"/><path class="cls-1" d="M134,75.68a.45.45,0,0,0,0-.72v-.27a.37.37,0,0,0,.18-.35A.4.4,0,0,0,134,74v-.27a.39.39,0,0,0,.18-.36A.38.38,0,0,0,134,73v-.27a.4.4,0,0,0,.18-.36A.37.37,0,0,0,134,72v-.27a.45.45,0,0,0,0-.72v-.26a.45.45,0,0,0,0-.72v-.27a.37.37,0,0,0,.18-.35.4.4,0,0,0-.18-.36V68.8a.37.37,0,0,0,.18-.35.4.4,0,0,0-.18-.36v-.27a.4.4,0,0,0,.18-.36.37.37,0,0,0-.18-.35v-.27a.4.4,0,0,0,.18-.36.37.37,0,0,0-.18-.35v-.27a.45.45,0,0,0,0-.72v-.26a.45.45,0,0,0,0-.72v-.27a.37.37,0,0,0,.18-.35.4.4,0,0,0-.18-.36v-.27a.39.39,0,0,0,.18-.36.38.38,0,0,0-.18-.35v-.27a.4.4,0,0,0,.18-.36.37.37,0,0,0-.18-.35V61a.45.45,0,0,0,0-.72v-.36h-.17v.38a.38.38,0,0,0-.15.34.41.41,0,0,0,.15.35v.29a.39.39,0,0,0-.15.34.41.41,0,0,0,.15.35v.29a.39.39,0,0,0-.15.34.41.41,0,0,0,.15.35v.29a.41.41,0,0,0-.15.35.39.39,0,0,0,.15.34v.29a.41.41,0,0,0-.15.35.38.38,0,0,0,.15.34v.29a.48.48,0,0,0,0,.7v.29a.39.39,0,0,0-.15.34.41.41,0,0,0,.15.35v.29a.39.39,0,0,0-.15.34.41.41,0,0,0,.15.35v.29a.41.41,0,0,0-.15.35.39.39,0,0,0,.15.34v.29a.41.41,0,0,0-.15.35.39.39,0,0,0,.15.34v.29a.48.48,0,0,0,0,.7v.29a.39.39,0,0,0-.15.34.41.41,0,0,0,.15.35V72a.39.39,0,0,0-.15.34.41.41,0,0,0,.15.35V73a.41.41,0,0,0-.15.34.41.41,0,0,0,.15.35V74a.41.41,0,0,0-.15.35.39.39,0,0,0,.15.34V75a.41.41,0,0,0-.15.35.39.39,0,0,0,.15.34v.73H134Z"/><path class="cls-1" d="M136.41,75.68a.45.45,0,0,0,0-.72v-.27a.35.35,0,0,0,.18-.35.38.38,0,0,0-.18-.36v-.27a.37.37,0,0,0,.18-.36.36.36,0,0,0-.18-.35v-.27a.38.38,0,0,0,.18-.36.35.35,0,0,0-.18-.35v-.27a.45.45,0,0,0,0-.72v-.26a.45.45,0,0,0,0-.72v-.27a.35.35,0,0,0,.18-.35.38.38,0,0,0-.18-.36V68.8a.35.35,0,0,0,.18-.35.38.38,0,0,0-.18-.36v-.27a.38.38,0,0,0,.18-.36.35.35,0,0,0-.18-.35v-.27a.38.38,0,0,0,.18-.36.35.35,0,0,0-.18-.35v-.27a.45.45,0,0,0,0-.72v-.26a.45.45,0,0,0,0-.72v-.27a.35.35,0,0,0,.18-.35.38.38,0,0,0-.18-.36v-.27a.37.37,0,0,0,.18-.36.36.36,0,0,0-.18-.35v-.27a.38.38,0,0,0,.18-.36.35.35,0,0,0-.18-.35V61a.45.45,0,0,0,0-.72v-.36h-.17v.38a.38.38,0,0,0-.15.34.41.41,0,0,0,.15.35v.29a.39.39,0,0,0-.15.34.41.41,0,0,0,.15.35v.29a.39.39,0,0,0-.15.34.41.41,0,0,0,.15.35v.29a.41.41,0,0,0-.15.35.39.39,0,0,0,.15.34v.29a.41.41,0,0,0-.15.35.38.38,0,0,0,.15.34v.29a.48.48,0,0,0,0,.7v.29a.39.39,0,0,0-.15.34.41.41,0,0,0,.15.35v.29a.39.39,0,0,0-.15.34.41.41,0,0,0,.15.35v.29a.41.41,0,0,0-.15.35.39.39,0,0,0,.15.34v.29a.41.41,0,0,0-.15.35.39.39,0,0,0,.15.34v.29a.48.48,0,0,0,0,.7v.29a.39.39,0,0,0-.15.34.41.41,0,0,0,.15.35V72a.39.39,0,0,0-.15.34.41.41,0,0,0,.15.35V73a.41.41,0,0,0-.15.34.41.41,0,0,0,.15.35V74a.41.41,0,0,0-.15.35.39.39,0,0,0,.15.34V75a.41.41,0,0,0-.15.35.39.39,0,0,0,.15.34v.75h.17Z"/><path class="cls-1" d="M143.21,60.09a.16.16,0,0,1-.16-.16V56.22a.16.16,0,0,1,.32,0v3.71A.16.16,0,0,1,143.21,60.09Z"/><rect class="cls-1" x="144.4" y="34.47" width="6.41" height="6.32"/><rect class="cls-1" x="112.26" y="34.47" width="6.41" height="6.32"/><polygon class="cls-1" points="134.17 20.99 135.62 14.68 127.49 14.68 128.93 20.99 134.17 20.99"/><path class="cls-1" d="M143.06,18.71a19.18,19.18,0,0,0-6.92-3.26l-1.31,5.7a12.92,12.92,0,0,1,4.51,2.21Z"/><path class="cls-1" d="M123.23,23.78l-3.73-4.65A19.54,19.54,0,0,0,114.6,25l5.51,2.73A13,13,0,0,1,123.23,23.78Z"/><path class="cls-1" d="M143,27.69,148.48,25a19.44,19.44,0,0,0-4.88-5.82l-3.73,4.66A12.85,12.85,0,0,1,143,27.69Z"/><path class="cls-1" d="M150.82,33.79a19.17,19.17,0,0,0-2-8.24l-5.54,2.76a12.72,12.72,0,0,1,1.12,5.24v.07c0,.06,0,.11,0,.17Z"/><path class="cls-1" d="M127,15.45A19.18,19.18,0,0,0,120,18.71l3.72,4.64a12.83,12.83,0,0,1,4.51-2.21Z"/><path class="cls-1" d="M119.82,28.34l-5.53-2.75a19.3,19.3,0,0,0-2,8.2h6.44c0-.08,0-.16,0-.24A12.74,12.74,0,0,1,119.82,28.34Z"/><rect class="cls-1" x="127.4" y="12.45" width="8.29" height="1.66"/><path class="cls-1" d="M121.36,44.17a.21.21,0,0,0,.21-.14.14.14,0,0,0,0-.06.47.47,0,0,0-.48-.45.55.55,0,0,0-.57.52.64.64,0,0,0,.67.61.75.75,0,0,0,.78-.73.91.91,0,0,0-.94-.87,1.11,1.11,0,0,0-1.14,1.06,1.21,1.21,0,0,0,.4.9,1.47,1.47,0,0,0,1,.38,1.33,1.33,0,0,0,1.07-.47,1.57,1.57,0,0,0,.33-1,1.31,1.31,0,0,0-.12-.56v0l.09.15-.09-.29c0-.3,0-.73,0-1s0-.35,0-.39a.93.93,0,0,0-.26-.72l-.05,0,0,0a.73.73,0,0,0-.18.72l.21.66-.22-.37a2.25,2.25,0,0,1-.27-1,1,1,0,0,0-.22-1,.65.65,0,0,0-.59-.17l-.07,0,0,.06a.84.84,0,0,1,.11.47.51.51,0,0,1,0,.09,1.57,1.57,0,0,0,0,1.08c0,.09.1.18.16.27a2.45,2.45,0,0,1-.79-1.45,1.77,1.77,0,0,1,.49-1.27,1.26,1.26,0,0,1,.82-.4.61.61,0,0,1,.63.59.46.46,0,0,1-.47.45.34.34,0,0,1-.35-.33.24.24,0,0,1,.25-.23.19.19,0,0,1,.1,0,.18.18,0,0,0-.06.13.22.22,0,0,0,.43,0,.11.11,0,0,0,0,0,.47.47,0,0,0-.48-.45.54.54,0,0,0-.57.52.65.65,0,0,0,.67.62.76.76,0,0,0,.79-.74.92.92,0,0,0-1-.88,1.55,1.55,0,0,0-1,.45,4.24,4.24,0,0,1,1.29-1.38,2.64,2.64,0,0,0,.66-.68,1.57,1.57,0,0,0,.18-.37,1.57,1.57,0,0,0,.18.37,2.6,2.6,0,0,0,.65.68,4.25,4.25,0,0,1,1.3,1.38,1.57,1.57,0,0,0-1-.45.92.92,0,0,0-1,.88.77.77,0,0,0,.8.74.65.65,0,0,0,.66-.62.54.54,0,0,0-.56-.52.47.47,0,0,0-.49.45s0,0,0,0a.22.22,0,0,0,.21.16.2.2,0,0,0,.17-.33.17.17,0,0,1,.1,0,.23.23,0,0,1,.24.23.34.34,0,0,1-.34.33.47.47,0,0,1-.48-.45.62.62,0,0,1,.63-.59,1.26,1.26,0,0,1,.82.4,1.77,1.77,0,0,1,.49,1.26,2.43,2.43,0,0,1-.78,1.46,1.82,1.82,0,0,0,.15-.27,1.46,1.46,0,0,0,0-1.08.64.64,0,0,0,0-.09.84.84,0,0,1,.11-.47l0-.06-.07,0a.67.67,0,0,0-.6.17,1,1,0,0,0-.22,1,2.39,2.39,0,0,1-.26,1l-.22.37.21-.66a.7.7,0,0,0-.19-.72l0,0,0,0a.93.93,0,0,0-.26.72s0,.19,0,.39,0,.73,0,1l-.1.29.09-.15v0a1.31,1.31,0,0,0-.12.56,1.52,1.52,0,0,0,.34,1,1.31,1.31,0,0,0,1.06.47,1.45,1.45,0,0,0,1-.38,1.21,1.21,0,0,0,.4-.9,1.11,1.11,0,0,0-1.14-1.06.91.91,0,0,0-.94.87.76.76,0,0,0,.79.73.64.64,0,0,0,.66-.61.55.55,0,0,0-.56-.52.46.46,0,0,0-.48.45.07.07,0,0,0,0,.05.22.22,0,0,0,.21.15.2.2,0,0,0,.17-.33.12.12,0,0,1,.09,0,.24.24,0,0,1,.24.23.33.33,0,0,1-.34.32.45.45,0,0,1-.47-.44.6.6,0,0,1,.62-.58.8.8,0,0,1,.82.77,1,1,0,0,1-1.06,1,1.07,1.07,0,0,1-1.08-1.17,1.55,1.55,0,0,1,.64-1.12l.27-.22a3.4,3.4,0,0,0,1.48-2.09.11.11,0,0,0,0,0v0a2.64,2.64,0,0,0,0-.29,3,3,0,0,0-.66-1.84,5.32,5.32,0,0,0-1.06-1,1.61,1.61,0,0,1-.79-1.2A1.19,1.19,0,0,1,124,35a0,0,0,0,0,0,0,.23.23,0,0,0,.24.22.23.23,0,0,0,.24-.22h0a.91.91,0,0,1,.69.85.71.71,0,0,1-.73.69.54.54,0,0,1-.55-.52.4.4,0,0,1,.41-.38.29.29,0,0,1,.3.27.2.2,0,0,1-.21.2l-.06,0a.19.19,0,0,0,0-.13.2.2,0,0,0-.21-.2.22.22,0,0,0-.22.17.38.38,0,0,0,.44.47.51.51,0,0,0,.53-.49.59.59,0,0,0-.62-.56.7.7,0,0,0-.73.67.85.85,0,0,0,.87.81,1,1,0,0,0,1-1,1.14,1.14,0,0,0-.37-.83,1.32,1.32,0,0,0-.9-.34,1.6,1.6,0,0,0-1.09.42,1.36,1.36,0,0,0-.39.6,1.56,1.56,0,0,0-.39-.6,1.6,1.6,0,0,0-1.1-.42,1.32,1.32,0,0,0-.9.34,1.14,1.14,0,0,0-.37.83,1,1,0,0,0,1.05,1,.85.85,0,0,0,.87-.81.7.7,0,0,0-.73-.67.58.58,0,0,0-.61.56.5.5,0,0,0,.52.49.44.44,0,0,0,.45-.42.07.07,0,0,0,0-.05.22.22,0,0,0-.43,0,.19.19,0,0,0,.05.13l-.06,0a.2.2,0,0,1-.2-.2.28.28,0,0,1,.29-.27.39.39,0,0,1,.41.38.54.54,0,0,1-.55.52.71.71,0,0,1-.73-.69A.91.91,0,0,1,121,35v0a.24.24,0,0,0,.48,0v0a1.16,1.16,0,0,1,1,1.12,1.62,1.62,0,0,1-.78,1.2,5.34,5.34,0,0,0-1.07,1,3,3,0,0,0-.66,1.84,2.64,2.64,0,0,0,0,.29v0a.11.11,0,0,0,0,0,3.44,3.44,0,0,0,1.48,2.09,2.71,2.71,0,0,1,.27.22,1.52,1.52,0,0,1,.64,1.12,1.07,1.07,0,0,1-1.08,1.17,1,1,0,0,1-1.06-1,.8.8,0,0,1,.82-.77.6.6,0,0,1,.62.58.45.45,0,0,1-.46.44.34.34,0,0,1-.35-.32.24.24,0,0,1,.25-.23.16.16,0,0,1,.09,0,.2.2,0,0,0,.16.33Z"/><path class="cls-1" d="M124.07,46.64a.23.23,0,0,0-.21.13.17.17,0,0,0,0,.07.46.46,0,0,0,.48.44.54.54,0,0,0,.56-.52.64.64,0,0,0-.66-.61.76.76,0,0,0-.79.73.91.91,0,0,0,.94.87,1.1,1.1,0,0,0,1.14-1,1.25,1.25,0,0,0-.4-.91,1.44,1.44,0,0,0-1-.37,1.33,1.33,0,0,0-1.06.46,1.55,1.55,0,0,0-.34,1,1.34,1.34,0,0,0,.12.56v0l-.09-.15.1.29c0,.31,0,.73,0,1s0,.35,0,.4a.91.91,0,0,0,.26.71l0,0,0,0a.73.73,0,0,0,.19-.73l-.21-.66.22.38a2.31,2.31,0,0,1,.26,1,1,1,0,0,0,.22,1,.64.64,0,0,0,.6.16l.07,0,0-.06a.81.81,0,0,1-.11-.46s0-.06,0-.09a1.47,1.47,0,0,0,0-1.08c0-.09-.1-.18-.15-.28a2.46,2.46,0,0,1,.78,1.46,1.77,1.77,0,0,1-.49,1.26,1.21,1.21,0,0,1-.82.4.61.61,0,0,1-.63-.59.47.47,0,0,1,.48-.44.33.33,0,0,1,.34.32.24.24,0,0,1-.24.24.18.18,0,0,1-.1,0,.19.19,0,0,0,0-.13.21.21,0,0,0-.22-.2.22.22,0,0,0-.21.16.43.43,0,0,0,0,0,.47.47,0,0,0,.49.45.55.55,0,0,0,.56-.53.64.64,0,0,0-.66-.61.77.77,0,0,0-.8.73.92.92,0,0,0,1,.88,1.57,1.57,0,0,0,1-.45,4.14,4.14,0,0,1-1.3,1.38,2.76,2.76,0,0,0-.65.68,1.79,1.79,0,0,0-.18.37,1.79,1.79,0,0,0-.18-.37,2.81,2.81,0,0,0-.66-.68,4.14,4.14,0,0,1-1.29-1.38,1.55,1.55,0,0,0,1,.45.92.92,0,0,0,1-.88.76.76,0,0,0-.79-.73.65.65,0,0,0-.67.61.55.55,0,0,0,.57.53.47.47,0,0,0,.48-.45s0,0,0,0a.21.21,0,0,0-.21-.17.21.21,0,0,0-.22.2.16.16,0,0,0,.06.13.21.21,0,0,1-.1,0,.25.25,0,0,1-.25-.24.34.34,0,0,1,.35-.32.46.46,0,0,1,.47.44.61.61,0,0,1-.63.59,1.21,1.21,0,0,1-.82-.4,1.77,1.77,0,0,1-.49-1.26,2.47,2.47,0,0,1,.79-1.46l-.16.28a1.57,1.57,0,0,0,0,1.08.29.29,0,0,1,0,.09.81.81,0,0,1-.11.46l0,.06.07,0a.63.63,0,0,0,.59-.16,1,1,0,0,0,.22-1,2.22,2.22,0,0,1,.27-1,4,4,0,0,1,.22-.38L122,49a.75.75,0,0,0,.18.72l0,0,.05,0a.91.91,0,0,0,.26-.71s0-.2,0-.4,0-.72,0-1l.09-.29-.09.15v0a1.34,1.34,0,0,0,.12-.56,1.6,1.6,0,0,0-.33-1,1.35,1.35,0,0,0-1.07-.46,1.46,1.46,0,0,0-1,.37,1.25,1.25,0,0,0-.4.91,1.1,1.1,0,0,0,1.14,1,.91.91,0,0,0,.94-.87.76.76,0,0,0-.78-.73.65.65,0,0,0-.67.61.55.55,0,0,0,.57.52.47.47,0,0,0,.48-.44.11.11,0,0,0,0-.06.21.21,0,0,0-.21-.14.21.21,0,0,0-.21.2.18.18,0,0,0,0,.12l-.09,0a.24.24,0,0,1-.25-.23.34.34,0,0,1,.35-.32.45.45,0,0,1,.46.44.6.6,0,0,1-.62.58.79.79,0,0,1-.82-.76,1,1,0,0,1,1.06-1,1.07,1.07,0,0,1,1.08,1.17,1.5,1.5,0,0,1-.64,1.11l-.27.22a3.46,3.46,0,0,0-1.48,2.1.07.07,0,0,0,0,0v0c0,.1,0,.2,0,.29a2.93,2.93,0,0,0,.66,1.84,5.34,5.34,0,0,0,1.07,1,1.66,1.66,0,0,1,.78,1.2,1.17,1.17,0,0,1-1,1.13v0a.24.24,0,0,0-.48,0v0a.9.9,0,0,1-.71-.86.71.71,0,0,1,.73-.68.54.54,0,0,1,.55.52.39.39,0,0,1-.41.38.28.28,0,0,1-.29-.28.19.19,0,0,1,.2-.19h.06a.24.24,0,0,0-.05.13.21.21,0,0,0,.22.2.22.22,0,0,0,.21-.16.13.13,0,0,0,0-.06.43.43,0,0,0-.45-.41.5.5,0,0,0-.52.48.59.59,0,0,0,.61.57.7.7,0,0,0,.73-.67A.84.84,0,0,0,121,54,1,1,0,0,0,120,55a1.12,1.12,0,0,0,.37.83,1.29,1.29,0,0,0,.9.35,1.52,1.52,0,0,0,1.49-1,1.39,1.39,0,0,0,.39.61,1.6,1.6,0,0,0,1.09.42,1.29,1.29,0,0,0,.9-.35,1.12,1.12,0,0,0,.37-.83,1,1,0,0,0-1-1,.84.84,0,0,0-.87.81.7.7,0,0,0,.73.67.6.6,0,0,0,.62-.57.51.51,0,0,0-.53-.48.43.43,0,0,0-.45.41s0,0,0,.06a.22.22,0,0,0,.22.16.2.2,0,0,0,.21-.2.24.24,0,0,0,0-.13h.06a.2.2,0,0,1,.21.19.29.29,0,0,1-.3.28.4.4,0,0,1-.41-.38.54.54,0,0,1,.55-.52.71.71,0,0,1,.73.68.91.91,0,0,1-.69.86v0a.23.23,0,0,0-.24-.22.23.23,0,0,0-.24.22,0,0,0,0,0,0,0,1.18,1.18,0,0,1-1-1.13,1.64,1.64,0,0,1,.79-1.2,5.32,5.32,0,0,0,1.06-1,2.93,2.93,0,0,0,.66-1.84c0-.09,0-.19,0-.29v0a.07.07,0,0,0,0,0,3.43,3.43,0,0,0-1.48-2.1L123.7,48a1.53,1.53,0,0,1-.64-1.11,1.07,1.07,0,0,1,1.08-1.17,1,1,0,0,1,1.06,1,.79.79,0,0,1-.82.76.6.6,0,0,1-.62-.58.46.46,0,0,1,.47-.44.33.33,0,0,1,.34.32.23.23,0,0,1-.24.23.12.12,0,0,1-.09,0,.18.18,0,0,0,.05-.12A.21.21,0,0,0,124.07,46.64Z"/><path class="cls-1" d="M139.05,44.17a.21.21,0,0,0,.2-.14.14.14,0,0,0,0-.06.47.47,0,0,0-.48-.45.55.55,0,0,0-.56.52.64.64,0,0,0,.66.61.74.74,0,0,0,.77-.73.9.9,0,0,0-.93-.87,1.09,1.09,0,0,0-1.12,1.06,1.21,1.21,0,0,0,.4.9,1.4,1.4,0,0,0,1,.38,1.3,1.3,0,0,0,1.05-.47,1.57,1.57,0,0,0,.33-1,1.31,1.31,0,0,0-.12-.56v0l.08.15-.09-.29c0-.3,0-.73,0-1s0-.35,0-.39a1,1,0,0,0-.25-.72l-.05,0,0,0a.73.73,0,0,0-.18.72l.21.66-.22-.37a2.39,2.39,0,0,1-.26-1,1,1,0,0,0-.22-1,.65.65,0,0,0-.59-.17l-.07,0,0,.06a.84.84,0,0,1,.11.47.2.2,0,0,0,0,.09,1.46,1.46,0,0,0,0,1.08,1.82,1.82,0,0,0,.15.27,2.49,2.49,0,0,1-.78-1.45,1.77,1.77,0,0,1,.49-1.27,1.22,1.22,0,0,1,.81-.4.61.61,0,0,1,.62.59.46.46,0,0,1-.46.45.34.34,0,0,1-.35-.33.23.23,0,0,1,.24-.23.15.15,0,0,1,.1,0,.2.2,0,0,0,.16.33.2.2,0,0,0,.21-.15.11.11,0,0,0,0,0,.46.46,0,0,0-.48-.45.54.54,0,0,0-.55.52.64.64,0,0,0,.66.62.76.76,0,0,0,.78-.74.91.91,0,0,0-.94-.88,1.52,1.52,0,0,0-1,.45,4.23,4.23,0,0,1,1.27-1.38,2.64,2.64,0,0,0,.66-.68,2,2,0,0,0,.17-.37,1.57,1.57,0,0,0,.18.37,2.6,2.6,0,0,0,.65.68,4.35,4.35,0,0,1,1.28,1.38,1.54,1.54,0,0,0-1-.45.91.91,0,0,0-.94.88.76.76,0,0,0,.78.74.65.65,0,0,0,.66-.62.54.54,0,0,0-.56-.52.47.47,0,0,0-.48.45s0,0,0,0a.22.22,0,0,0,.21.16.21.21,0,0,0,.22-.2.18.18,0,0,0-.06-.13.17.17,0,0,1,.1,0,.23.23,0,0,1,.24.23.34.34,0,0,1-.34.33.46.46,0,0,1-.47-.45.61.61,0,0,1,.63-.59,1.26,1.26,0,0,1,.81.4,1.81,1.81,0,0,1,.48,1.26,2.43,2.43,0,0,1-.78,1.46,1.82,1.82,0,0,0,.15-.27,1.52,1.52,0,0,0,0-1.08.51.51,0,0,1,0-.09.77.77,0,0,1,.11-.47l0-.06-.07,0a.65.65,0,0,0-.59.17,1,1,0,0,0-.21,1,2.25,2.25,0,0,1-.27,1l-.21.37.2-.66a.74.74,0,0,0-.17-.72l-.05,0,0,0a.93.93,0,0,0-.26.72s0,.19,0,.39,0,.73,0,1l-.09.29.09-.15v0a1.18,1.18,0,0,0-.13.56,1.52,1.52,0,0,0,.34,1,1.29,1.29,0,0,0,1,.47,1.42,1.42,0,0,0,1-.38,1.25,1.25,0,0,0,.4-.9A1.1,1.1,0,0,0,142,43.05a.9.9,0,0,0-.93.87.75.75,0,0,0,.78.73.63.63,0,0,0,.65-.61.54.54,0,0,0-.55-.52.46.46,0,0,0-.48.45.43.43,0,0,0,0,.05.22.22,0,0,0,.21.15.2.2,0,0,0,.21-.2.17.17,0,0,0-.05-.13.17.17,0,0,1,.1,0,.23.23,0,0,1,.23.23.32.32,0,0,1-.33.32.44.44,0,0,1-.46-.44.59.59,0,0,1,.61-.58.79.79,0,0,1,.81.77,1,1,0,0,1-1.05,1,1.07,1.07,0,0,1-1.07-1.17,1.52,1.52,0,0,1,.64-1.12l.26-.22a3.47,3.47,0,0,0,1.47-2.09.11.11,0,0,0,0,0v0a2.64,2.64,0,0,0,0-.29,3,3,0,0,0-.66-1.84,5,5,0,0,0-1.05-1,1.62,1.62,0,0,1-.78-1.2,1.19,1.19,0,0,1,1-1.13v0a.24.24,0,0,0,.48,0h0a.9.9,0,0,1,.68.85.7.7,0,0,1-.72.69.53.53,0,0,1-.54-.52.39.39,0,0,1,.4-.38.28.28,0,0,1,.29.27.2.2,0,0,1-.2.2l-.06,0a.19.19,0,0,0,0-.13.21.21,0,0,0-.21-.2.2.2,0,0,0-.21.17.08.08,0,0,0,0,.05.44.44,0,0,0,.45.42.5.5,0,0,0,.52-.49.58.58,0,0,0-.61-.56.69.69,0,0,0-.72.67.84.84,0,0,0,.86.81,1,1,0,0,0,1-1,1.14,1.14,0,0,0-.37-.83,1.3,1.3,0,0,0-.89-.34,1.57,1.57,0,0,0-1.08.42,1.36,1.36,0,0,0-.39.6,1.43,1.43,0,0,0-.38-.6,1.6,1.6,0,0,0-1.09-.42A1.32,1.32,0,0,0,138,35a1.17,1.17,0,0,0-.36.83,1,1,0,0,0,1,1,.84.84,0,0,0,.86-.81.7.7,0,0,0-.72-.67.58.58,0,0,0-.61.56.5.5,0,0,0,.51.49.44.44,0,0,0,.45-.42.07.07,0,0,0,0-.05.22.22,0,0,0-.43,0,.16.16,0,0,0,.06.13l-.07,0a.2.2,0,0,1-.2-.2.28.28,0,0,1,.3-.27.39.39,0,0,1,.4.38.54.54,0,0,1-.54.52.71.71,0,0,1-.73-.69.91.91,0,0,1,.71-.86v0a.22.22,0,0,0,.23.22.23.23,0,0,0,.24-.22v0a1.15,1.15,0,0,1,1,1.12,1.62,1.62,0,0,1-.78,1.2,5.59,5.59,0,0,0-1,1,3,3,0,0,0-.65,1.84,1.37,1.37,0,0,0,0,.29v0a.11.11,0,0,0,0,0,3.42,3.42,0,0,0,1.46,2.09l.27.22a1.53,1.53,0,0,1,.63,1.12A1.07,1.07,0,0,1,139,45.1a1,1,0,0,1-1.06-1,.8.8,0,0,1,.81-.77.6.6,0,0,1,.62.58.45.45,0,0,1-.46.44.33.33,0,0,1-.34-.32.24.24,0,0,1,.24-.23.16.16,0,0,1,.09,0,.2.2,0,0,0,.17.33Z"/><path class="cls-1" d="M141.72,46.64a.2.2,0,0,0-.2.13.19.19,0,0,0,0,.07.46.46,0,0,0,.48.44.54.54,0,0,0,.55-.52.63.63,0,0,0-.65-.61.76.76,0,0,0-.78.73.9.9,0,0,0,.93.87,1.09,1.09,0,0,0,1.13-1,1.29,1.29,0,0,0-.4-.91,1.41,1.41,0,0,0-1-.37,1.31,1.31,0,0,0-1,.46,1.55,1.55,0,0,0-.34,1,1.21,1.21,0,0,0,.13.56v0l-.09-.15.09.29c0,.31,0,.73,0,1s0,.35,0,.4a.91.91,0,0,0,.26.71l0,0,.05,0a.77.77,0,0,0,.17-.73l-.2-.66c.09.16.18.31.21.38a2.18,2.18,0,0,1,.27,1,1.05,1.05,0,0,0,.21,1,.63.63,0,0,0,.59.16l.07,0,0-.06a.81.81,0,0,1-.11-.46.29.29,0,0,1,0-.09,1.52,1.52,0,0,0,0-1.08,2.6,2.6,0,0,0-.15-.28,2.46,2.46,0,0,1,.78,1.46,1.81,1.81,0,0,1-.48,1.26,1.21,1.21,0,0,1-.81.4.61.61,0,0,1-.63-.59.46.46,0,0,1,.47-.44.33.33,0,0,1,.34.32.24.24,0,0,1-.24.24.18.18,0,0,1-.1,0,.16.16,0,0,0,.06-.13.21.21,0,0,0-.22-.2.22.22,0,0,0-.21.16.43.43,0,0,0,0,0,.47.47,0,0,0,.48.45.55.55,0,0,0,.56-.53.64.64,0,0,0-.66-.61.76.76,0,0,0-.78.73.91.91,0,0,0,.94.88,1.54,1.54,0,0,0,1-.45,4.24,4.24,0,0,1-1.28,1.38,2.76,2.76,0,0,0-.65.68,1.79,1.79,0,0,0-.18.37,2.39,2.39,0,0,0-.17-.37,2.81,2.81,0,0,0-.66-.68,4.13,4.13,0,0,1-1.27-1.38,1.52,1.52,0,0,0,1,.45.91.91,0,0,0,.94-.88.76.76,0,0,0-.78-.73.64.64,0,0,0-.66.61.54.54,0,0,0,.55.53.46.46,0,0,0,.48-.45s0,0,0,0a.2.2,0,0,0-.21-.17.21.21,0,0,0-.21.2.19.19,0,0,0,.05.13.15.15,0,0,1-.1,0,.24.24,0,0,1-.24-.24.34.34,0,0,1,.35-.32.45.45,0,0,1,.46.44.6.6,0,0,1-.62.59,1.2,1.2,0,0,1-.81-.4A1.77,1.77,0,0,1,138,50.4a2.52,2.52,0,0,1,.78-1.46,2.6,2.6,0,0,0-.15.28,1.47,1.47,0,0,0,0,1.08.29.29,0,0,0,0,.09.81.81,0,0,1-.11.46l0,.06.07,0a.63.63,0,0,0,.59-.16,1,1,0,0,0,.22-1,2.35,2.35,0,0,1,.26-1c0-.07.12-.22.22-.38l-.21.67a.75.75,0,0,0,.18.72l0,0,.05,0a.93.93,0,0,0,.25-.71s0-.2,0-.4,0-.72,0-1l.09-.29-.08.15v0a1.34,1.34,0,0,0,.12-.56,1.6,1.6,0,0,0-.33-1,1.33,1.33,0,0,0-1.05-.46,1.41,1.41,0,0,0-1,.37,1.25,1.25,0,0,0-.4.91,1.09,1.09,0,0,0,1.12,1,.9.9,0,0,0,.93-.87.75.75,0,0,0-.77-.73.64.64,0,0,0-.66.61.54.54,0,0,0,.56.52.47.47,0,0,0,.48-.44.11.11,0,0,0,0-.06.21.21,0,0,0-.2-.14.21.21,0,0,0-.22.2.18.18,0,0,0,0,.12l-.09,0a.23.23,0,0,1-.24-.23.33.33,0,0,1,.34-.32.45.45,0,0,1,.46.44.6.6,0,0,1-.62.58.79.79,0,0,1-.81-.76,1,1,0,0,1,1.06-1A1.07,1.07,0,0,1,140,46.88a1.52,1.52,0,0,1-.63,1.11l-.27.22a3.44,3.44,0,0,0-1.46,2.1.07.07,0,0,0,0,0v0a1.46,1.46,0,0,0,0,.29,3,3,0,0,0,.65,1.84,5.59,5.59,0,0,0,1,1,1.66,1.66,0,0,1,.78,1.2,1.16,1.16,0,0,1-1,1.13v0a.23.23,0,0,0-.24-.22.22.22,0,0,0-.23.22v0A.9.9,0,0,1,138,55a.71.71,0,0,1,.73-.68.53.53,0,0,1,.54.52.39.39,0,0,1-.4.38.28.28,0,0,1-.3-.28.19.19,0,0,1,.2-.19h.07a.19.19,0,0,0-.06.13.21.21,0,0,0,.22.2.22.22,0,0,0,.21-.16.13.13,0,0,0,0-.06.43.43,0,0,0-.45-.41.49.49,0,0,0-.51.48.59.59,0,0,0,.61.57.7.7,0,0,0,.72-.67.84.84,0,0,0-.86-.81,1,1,0,0,0-1,1,1.15,1.15,0,0,0,.36.83,1.28,1.28,0,0,0,.89.35,1.6,1.6,0,0,0,1.09-.42,1.46,1.46,0,0,0,.38-.61,1.39,1.39,0,0,0,.39.61,1.57,1.57,0,0,0,1.08.42,1.26,1.26,0,0,0,.89-.35,1.12,1.12,0,0,0,.37-.83,1,1,0,0,0-1-1,.83.83,0,0,0-.86.81.69.69,0,0,0,.72.67.59.59,0,0,0,.61-.57.5.5,0,0,0-.52-.48.43.43,0,0,0-.45.41.14.14,0,0,0,0,.06.2.2,0,0,0,.21.16.21.21,0,0,0,.21-.2.24.24,0,0,0,0-.13H142a.19.19,0,0,1,.2.19.28.28,0,0,1-.29.28.39.39,0,0,1-.4-.38.53.53,0,0,1,.54-.52.7.7,0,0,1,.72.68.9.9,0,0,1-.68.86v0a.24.24,0,0,0-.48,0v0a1.18,1.18,0,0,1-1-1.13,1.66,1.66,0,0,1,.78-1.2,5,5,0,0,0,1.05-1,3,3,0,0,0,.66-1.84c0-.09,0-.19,0-.29v0a.07.07,0,0,0,0,0,3.49,3.49,0,0,0-1.47-2.1,2.25,2.25,0,0,1-.26-.22,1.5,1.5,0,0,1-.64-1.11,1.07,1.07,0,0,1,1.07-1.17,1,1,0,0,1,1.05,1,.78.78,0,0,1-.81.76.59.59,0,0,1-.61-.58.45.45,0,0,1,.46-.44.33.33,0,0,1,.33.32A.23.23,0,0,1,142,47a.17.17,0,0,1-.1,0,.15.15,0,0,0,.05-.12A.2.2,0,0,0,141.72,46.64Z"/><path class="cls-1" d="M124.36,73.88a.92.92,0,0,0-.92.93.78.78,0,0,0,.77.77.65.65,0,0,0,.64-.65.54.54,0,0,0-.54-.54.46.46,0,0,0-.46.36.36.36,0,0,0,0,.11.24.24,0,0,0,.48,0,.24.24,0,0,0-.07-.17l.07,0a.25.25,0,0,1,.24.26.35.35,0,0,1-.34.36.47.47,0,0,1-.47-.48.64.64,0,0,1,.62-.65.83.83,0,0,1,.81.84,1.07,1.07,0,0,1-.9,1.08.15.15,0,0,0,0-.07.21.21,0,0,0-.23-.19.2.2,0,0,0-.22.19.09.09,0,0,0,0,0,1.15,1.15,0,0,1-.78-1.08s.08-.06.08-.1,0-.08-.09-.11a.93.93,0,0,1,.6-.84,5.44,5.44,0,0,0,1.09-.75,2.47,2.47,0,0,0,.53-.62,1,1,0,0,0,.16-.63,1.19,1.19,0,0,0-.06-.37,4.74,4.74,0,0,0-.27-1,.74.74,0,0,1,.08-.71.59.59,0,0,1,0-.08,1.82,1.82,0,0,0,0-1,.92.92,0,0,1,0-.62,1.55,1.55,0,0,0,0-.88,1.39,1.39,0,0,1-.1-.46v-.06l-.07,0a.79.79,0,0,0-.49.67.21.21,0,0,0,0,.14s0,.05,0,.14a.88.88,0,0,1-.08.27,1.47,1.47,0,0,0-.12.52,1,1,0,0,0,.09.38.73.73,0,0,1,.1.36.42.42,0,0,1-.11.28.83.83,0,0,0-.16.54,1.06,1.06,0,0,0,.11.45l-.25-.1V66.3a2.92,2.92,0,0,0,.83-.5,1.29,1.29,0,0,0,.37-1,1.7,1.7,0,0,0-.18-.79,1.74,1.74,0,0,0-.45-.53,3.49,3.49,0,0,0-1.08-.51l-.22-.08a1.15,1.15,0,0,1-.74-.84,1.24,1.24,0,0,0,0-.27c.09,0,.14-.08.14-.14s-.06-.12-.15-.15,0-.08,0-.12a1.23,1.23,0,0,1,1.09-1,.1.1,0,0,0,0,.07.21.21,0,0,0,.22.2.22.22,0,0,0,.23-.2.13.13,0,0,0,0-.06,1.11,1.11,0,0,1,.85,1.08.85.85,0,0,1-.84.87.65.65,0,0,1-.63-.66.49.49,0,0,1,.48-.51.37.37,0,0,1,.35.38.26.26,0,0,1-.25.27h0a.25.25,0,0,0,.06-.17.23.23,0,0,0-.24-.23.25.25,0,0,0-.23.15s0,0,0,.07a.47.47,0,0,0,.47.47.55.55,0,0,0,.55-.55.65.65,0,0,0-.65-.66.78.78,0,0,0-.78.79.94.94,0,0,0,.93.94,1.14,1.14,0,0,0,1.14-1.15,1.42,1.42,0,0,0-.4-1,1.35,1.35,0,0,0-1-.42,1.66,1.66,0,0,0-1.16.46,1.41,1.41,0,0,0-.27.37,1.6,1.6,0,0,0-.25-.37,1.52,1.52,0,0,0-1.1-.46,1.26,1.26,0,0,0-.93.42,1.44,1.44,0,0,0-.37,1A1.11,1.11,0,0,0,121,62.67a.91.91,0,0,0,.88-.94.76.76,0,0,0-.73-.79.64.64,0,0,0-.62.66.54.54,0,0,0,.52.55.46.46,0,0,0,.45-.47.14.14,0,0,0,0-.06.21.21,0,0,0-.21-.16.23.23,0,0,0-.23.23.25.25,0,0,0,.06.17h0a.26.26,0,0,1-.24-.27.36.36,0,0,1,.34-.38.49.49,0,0,1,.45.51.64.64,0,0,1-.6.66.83.83,0,0,1-.79-.87,1.1,1.1,0,0,1,.75-1.07.09.09,0,0,0,0,0,.21.21,0,0,0,.22.2.22.22,0,0,0,.23-.2.19.19,0,0,0,0-.08,1.18,1.18,0,0,1,1,1s0,.08,0,.12-.2.09-.2.17.08.13.19.16a2.66,2.66,0,0,0,0,.28,1.12,1.12,0,0,1-.68.81l-.21.08a3.24,3.24,0,0,0-1,.51,1.68,1.68,0,0,0-.43.53,1.83,1.83,0,0,0-.17.79,1.32,1.32,0,0,0,.35,1,3,3,0,0,0,.78.5v4.14l-.22.1a1.22,1.22,0,0,0,.1-.45.84.84,0,0,0-.15-.54.4.4,0,0,1-.1-.28.81.81,0,0,1,.09-.37.91.91,0,0,0,.09-.37,1.59,1.59,0,0,0-.12-.51.94.94,0,0,1-.07-.28c0-.09,0-.12,0-.14a.21.21,0,0,0,0-.14.79.79,0,0,0-.46-.67l-.07,0v.07a1.6,1.6,0,0,1-.09.46,1.64,1.64,0,0,0,0,.88,1,1,0,0,1,0,.62,1.89,1.89,0,0,0,0,1,.36.36,0,0,1,0,.09.8.8,0,0,1,.08.71,4.42,4.42,0,0,0-.26,1,1.73,1.73,0,0,0,0,.38,1,1,0,0,0,.15.62,2.7,2.7,0,0,0,.49.63,5.49,5.49,0,0,0,1,.75.94.94,0,0,1,.57.85s-.09.06-.09.1,0,.07.08.1a1.13,1.13,0,0,1-.76,1.09s0,0,0-.06a.21.21,0,0,0-.23-.19A.2.2,0,0,0,121,76a.13.13,0,0,0,0,.06,1.07,1.07,0,0,1-.8-1.07.81.81,0,0,1,.77-.84.62.62,0,0,1,.58.65.46.46,0,0,1-.44.48.34.34,0,0,1-.32-.36.25.25,0,0,1,.23-.26l.06,0a.24.24,0,0,0-.07.17.23.23,0,0,0,.23.23.23.23,0,0,0,.23-.23.25.25,0,0,0,0-.1.44.44,0,0,0-.43-.37.53.53,0,0,0-.52.54.63.63,0,0,0,.61.65.76.76,0,0,0,.73-.77.9.9,0,0,0-.87-.93,1.09,1.09,0,0,0-1,1.12,1.33,1.33,0,0,0,1.27,1.38,1.17,1.17,0,0,0,1-.5,1.72,1.72,0,0,0,.29-.82h.31a1.7,1.7,0,0,0,.31.82,1.25,1.25,0,0,0,1,.5A1.36,1.36,0,0,0,125.47,75,1.12,1.12,0,0,0,124.36,73.88Zm-1.45.32a1,1,0,0,0-.15.5h-.29a1.12,1.12,0,0,0-.14-.5c0-.33,0-.83-.06-1.08a3.73,3.73,0,0,0-.08-.44,1.12,1.12,0,0,1,0-.67l.1-.2-.17.15a1.16,1.16,0,0,0-.39.7,3,3,0,0,0,.25.89c-.23-.22-.63-.65-.63-1a.88.88,0,0,1,.38-.62.88.88,0,0,0,.35-.58c0-.64-.35-.66-.37-.66h-.05v0s0,.44-.2.61-.8.59-.8,1.17a1.15,1.15,0,0,0,.06.37,2.06,2.06,0,0,1-.33-.43.78.78,0,0,1-.13-.47v0a1.35,1.35,0,0,1,1-1.25.16.16,0,0,0,.11-.14V68.84a.35.35,0,0,0,.11.1h0c.11.06.27.14.29.25s0,.11-.05.18a.56.56,0,0,0,0,.76l.06.06,0-.07a2.16,2.16,0,0,1,.19-.42c.08-.09.26-.55,0-.8a1.24,1.24,0,0,0-.42-.28c-.13-.07-.25-.13-.28-.2v0c0-.07.15-.13.28-.2a1.24,1.24,0,0,0,.42-.28c.21-.25,0-.71,0-.8a2.16,2.16,0,0,1-.19-.42l0-.07-.06.06a.56.56,0,0,0,0,.76c.05.07.07.12.05.18s-.18.19-.29.25h0a.26.26,0,0,0-.11.1V66.2a.17.17,0,0,0-.09-.13c-.65-.3-1-.53-1-1.24a1.51,1.51,0,0,1,1.13-1.45,1.32,1.32,0,0,0-.56,1.05c0,.57.65,1.07.81,1.16s.19.47.19.61v0h0s.37,0,.37-.65a.85.85,0,0,0-.35-.58.9.9,0,0,1-.38-.62,1.74,1.74,0,0,1,.63-1,2.84,2.84,0,0,0-.25.88,1.09,1.09,0,0,0,.39.7l.17.15-.1-.19a1.12,1.12,0,0,1,0-.67,2.51,2.51,0,0,0,.08-.45c0-.25,0-.75.06-1.08l.09-.15s0,0,0,0a.08.08,0,0,1,0,0l.1.14c0,.33,0,.83.06,1.08a2.39,2.39,0,0,0,.09.45,1.12,1.12,0,0,1,0,.67l-.11.18L123,65a1.09,1.09,0,0,0,.41-.7,2.69,2.69,0,0,0-.27-.89c.24.21.67.65.67,1a.88.88,0,0,1-.39.61.87.87,0,0,0-.38.59c0,.64.38.65.39.65h0v0c0-.14.06-.53.21-.61s.86-.59.86-1.16a1.3,1.3,0,0,0-.6-1.05,1.53,1.53,0,0,1,1.2,1.45c0,.71-.42.94-1.11,1.24a.15.15,0,0,0-.09.13V68a.4.4,0,0,0-.12-.11h0c-.12-.06-.28-.15-.31-.26a.22.22,0,0,1,.06-.17.57.57,0,0,0,0-.77l-.06,0,0,.07a2,2,0,0,1-.21.42c-.08.09-.27.55,0,.8a1.28,1.28,0,0,0,.43.28c.15.07.28.13.31.2v0c0,.07-.16.13-.31.2a1.28,1.28,0,0,0-.43.28c-.23.25,0,.71,0,.8a2,2,0,0,1,.21.42l0,.06.06,0a.56.56,0,0,0,0-.77.19.19,0,0,1-.06-.16c0-.12.19-.2.31-.26h0a.4.4,0,0,0,.12-.11v1.72a.15.15,0,0,0,.11.14,1.37,1.37,0,0,1,1.09,1.25v0a.68.68,0,0,1-.14.47,1.93,1.93,0,0,1-.35.44,1,1,0,0,0,.07-.38c0-.58-.65-1-.86-1.17s-.21-.6-.21-.61v0h-.06s-.39,0-.39.66c0,.24.19.41.38.58s.39.36.39.62-.43.8-.67,1a2.71,2.71,0,0,0,.28-.89c0-.35-.4-.68-.42-.7l-.18-.14.1.19a1,1,0,0,1,0,.67,1.78,1.78,0,0,0-.08.44C123,73.37,122.93,73.86,122.91,74.2Z"/><path class="cls-1" d="M142,73.88a.91.91,0,0,0-.9.93.77.77,0,0,0,.75.77.64.64,0,0,0,.63-.65.54.54,0,0,0-.53-.54.45.45,0,0,0-.45.36.36.36,0,0,0,0,.11.23.23,0,0,0,.24.23.23.23,0,0,0,.23-.23.21.21,0,0,0-.07-.17l.07,0a.25.25,0,0,1,.24.26.35.35,0,0,1-.34.36.47.47,0,0,1-.46-.48.63.63,0,0,1,.61-.65.82.82,0,0,1,.8.84,1.08,1.08,0,0,1-.79,1.06.09.09,0,0,0,0,0,.22.22,0,0,0-.44,0,.17.17,0,0,0,0,.07,1.11,1.11,0,0,1-.86-1.09c.05,0,.09-.07.09-.11s0-.08-.1-.11a.92.92,0,0,1,.59-.84,5.16,5.16,0,0,0,1.06-.75,2.42,2.42,0,0,0,.52-.62,1.18,1.18,0,0,0,.16-.63,2.38,2.38,0,0,0-.06-.37,4.74,4.74,0,0,0-.27-1,.77.77,0,0,1,.08-.71l0-.08a1.82,1.82,0,0,0,0-1,.92.92,0,0,1,0-.62,1.55,1.55,0,0,0,0-.88,1.73,1.73,0,0,1-.1-.46v-.06l-.07,0a.81.81,0,0,0-.48.67.29.29,0,0,0,0,.14s0,.05,0,.14a.67.67,0,0,1-.08.27,1.72,1.72,0,0,0-.11.52.85.85,0,0,0,.09.38.73.73,0,0,1,.09.36.41.41,0,0,1-.1.28.78.78,0,0,0-.16.54.93.93,0,0,0,.11.45l-.24-.1V66.3a2.9,2.9,0,0,0,.8-.5,1.29,1.29,0,0,0,.37-1,1.7,1.7,0,0,0-.18-.79,1.58,1.58,0,0,0-.44-.53,3.3,3.3,0,0,0-1.06-.51l-.21-.08a1.12,1.12,0,0,1-.72-.84c0-.09,0-.17,0-.27s.14-.08.14-.14-.06-.12-.15-.15,0-.08,0-.12a1.23,1.23,0,0,1,1.17-1,.29.29,0,0,0,0,.09.22.22,0,0,0,.44,0,0,0,0,0,0,0,0,1.09,1.09,0,0,1,.73,1.05.85.85,0,0,1-.81.87.65.65,0,0,1-.63-.66.49.49,0,0,1,.47-.51.37.37,0,0,1,.35.38.26.26,0,0,1-.25.27h-.05a.26.26,0,0,0,.07-.17.23.23,0,0,0-.24-.23.23.23,0,0,0-.22.15.19.19,0,0,0,0,.07.47.47,0,0,0,.46.47.55.55,0,0,0,.54-.55.65.65,0,0,0-.64-.66.77.77,0,0,0-.76.79.93.93,0,0,0,.92.94,1.12,1.12,0,0,0,1.1-1.15,1.41,1.41,0,0,0-.39-1,1.29,1.29,0,0,0-1-.42,1.59,1.59,0,0,0-1.13.46,1.64,1.64,0,0,0-.26.37,1.6,1.6,0,0,0-.25-.37,1.47,1.47,0,0,0-1.07-.46,1.2,1.2,0,0,0-.91.42,1.44,1.44,0,0,0-.37,1,1.1,1.1,0,0,0,1,1.15.91.91,0,0,0,.87-.94.76.76,0,0,0-.73-.79.63.63,0,0,0-.6.66.53.53,0,0,0,.51.55.46.46,0,0,0,.44-.47.14.14,0,0,0,0-.06.21.21,0,0,0-.21-.16.22.22,0,0,0-.22.23.25.25,0,0,0,.06.17h-.05a.25.25,0,0,1-.23-.27.36.36,0,0,1,.32-.38.48.48,0,0,1,.44.51.63.63,0,0,1-.58.66.83.83,0,0,1-.77-.87,1.07,1.07,0,0,1,.84-1.09.08.08,0,0,0,0,.07.22.22,0,0,0,.44,0,.2.2,0,0,0,0-.07,1.19,1.19,0,0,1,.92,1s0,.08,0,.12-.2.09-.2.17.08.13.19.16l0,.28a1.1,1.1,0,0,1-.67.81l-.2.08a3.06,3.06,0,0,0-1,.51,1.64,1.64,0,0,0-.42.53,1.83,1.83,0,0,0-.17.79,1.36,1.36,0,0,0,.35,1,2.71,2.71,0,0,0,.76.5v4.14l-.22.1a1,1,0,0,0,.1-.45.84.84,0,0,0-.15-.54.44.44,0,0,1-.09-.28,1,1,0,0,1,.08-.37.78.78,0,0,0,.09-.37,1.59,1.59,0,0,0-.11-.51.94.94,0,0,1-.07-.28c0-.09,0-.12,0-.14a.21.21,0,0,0,0-.14.79.79,0,0,0-.46-.67l-.06,0v.07a1.6,1.6,0,0,1-.09.46,1.64,1.64,0,0,0,0,.88,1,1,0,0,1,0,.62,1.89,1.89,0,0,0,0,1l0,.09a.8.8,0,0,1,.06.71,5.13,5.13,0,0,0-.24,1,1.31,1.31,0,0,0-.06.38,1.09,1.09,0,0,0,.15.62,2.64,2.64,0,0,0,.48.63,5.64,5.64,0,0,0,1,.75.94.94,0,0,1,.56.84c-.06,0-.1.07-.1.11s0,.07.09.1a1.17,1.17,0,0,1-.64,1v0a.22.22,0,0,0-.44,0,.12.12,0,0,0,0,.08,1.05,1.05,0,0,1-.89-1.09.8.8,0,0,1,.75-.84.62.62,0,0,1,.57.65.45.45,0,0,1-.43.48.34.34,0,0,1-.31-.36.25.25,0,0,1,.22-.26l.06,0a.24.24,0,0,0-.07.17.23.23,0,1,0,.45,0,.15.15,0,0,0,0-.1.44.44,0,0,0-.42-.37.52.52,0,0,0-.5.54.62.62,0,0,0,.59.65.75.75,0,0,0,.71-.77.89.89,0,0,0-.85-.93,1.08,1.08,0,0,0-1,1.12,1.32,1.32,0,0,0,1.25,1.38,1.11,1.11,0,0,0,1-.5,1.72,1.72,0,0,0,.29-.82h.3a1.7,1.7,0,0,0,.31.82,1.2,1.2,0,0,0,1,.5A1.36,1.36,0,0,0,143.08,75,1.11,1.11,0,0,0,142,73.88Zm-1.42.32a1.28,1.28,0,0,0-.15.5h-.28a1.12,1.12,0,0,0-.14-.5c0-.33,0-.83-.06-1.08a3.64,3.64,0,0,0-.07-.44,1.12,1.12,0,0,1,0-.67l.1-.2-.18.15a1.22,1.22,0,0,0-.38.7,3,3,0,0,0,.25.89,1.83,1.83,0,0,1-.61-1,.89.89,0,0,1,.36-.62.88.88,0,0,0,.35-.58c0-.64-.35-.66-.36-.66h-.05v0s0,.44-.19.61-.79.59-.79,1.17a1.15,1.15,0,0,0,.06.37,1.71,1.71,0,0,1-.32-.43A.78.78,0,0,1,138,72v0a1.35,1.35,0,0,1,1-1.25.15.15,0,0,0,.1-.14V68.84a.5.5,0,0,0,.11.1h0c.11.06.26.14.29.25a.23.23,0,0,1-.06.18.57.57,0,0,0,0,.76l.05.06,0-.07a2.25,2.25,0,0,1,.18-.42.78.78,0,0,0,.05-.8,1.2,1.2,0,0,0-.41-.28c-.13-.07-.25-.13-.28-.2v0c0-.07.15-.13.28-.2a1.2,1.2,0,0,0,.41-.28.78.78,0,0,0-.05-.8,2.25,2.25,0,0,1-.18-.42l0-.07-.05.06a.57.57,0,0,0,0,.76.23.23,0,0,1,.06.18c0,.11-.18.19-.29.25h0a.33.33,0,0,0-.11.1V66.2a.16.16,0,0,0-.08-.13c-.64-.3-1-.53-1-1.24a1.5,1.5,0,0,1,1.11-1.45,1.32,1.32,0,0,0-.56,1.05,1.67,1.67,0,0,0,.8,1.16c.14.08.18.47.19.61v0h0s.37,0,.37-.65a.85.85,0,0,0-.35-.58.92.92,0,0,1-.37-.62,1.78,1.78,0,0,1,.62-1,2.84,2.84,0,0,0-.25.88,1.14,1.14,0,0,0,.38.7l.17.15-.09-.19a1.11,1.11,0,0,1,0-.67,2.51,2.51,0,0,0,.08-.45c0-.25,0-.75.06-1.08l.09-.15s0,0,0,0l0,0,.09.14c0,.33.05.83.07,1.08a2.36,2.36,0,0,0,.08.45,1.2,1.2,0,0,1,0,.67l-.1.18.17-.14a1.09,1.09,0,0,0,.4-.7,2.92,2.92,0,0,0-.26-.89c.23.21.65.65.65,1a.86.86,0,0,1-.38.61.89.89,0,0,0-.37.59c0,.64.37.65.38.65h.05v0c0-.14.06-.53.2-.61s.84-.59.84-1.16a1.3,1.3,0,0,0-.58-1.05,1.52,1.52,0,0,1,1.17,1.45c0,.71-.41.94-1.09,1.24a.16.16,0,0,0-.08.13V68a.4.4,0,0,0-.12-.11h0c-.11-.06-.27-.15-.3-.26a.22.22,0,0,1,.06-.17.56.56,0,0,0,0-.77l0,0,0,.07a2.16,2.16,0,0,1-.19.42.72.72,0,0,0,0,.8,1.28,1.28,0,0,0,.43.28c.14.07.27.13.3.2v0c0,.07-.16.13-.3.2a1.28,1.28,0,0,0-.43.28.72.72,0,0,0,0,.8,2.16,2.16,0,0,1,.19.42l0,.06,0,0a.56.56,0,0,0,0-.77.19.19,0,0,1-.06-.16c0-.12.19-.2.31-.26h0a.4.4,0,0,0,.12-.11v1.72a.15.15,0,0,0,.1.14,1.36,1.36,0,0,1,1.07,1.25s0,0,0,0a.85.85,0,0,1-.14.47,1.93,1.93,0,0,1-.35.44,1,1,0,0,0,.07-.38c0-.58-.63-1-.84-1.17s-.2-.6-.2-.61v0h0s-.38,0-.38.66a.83.83,0,0,0,.37.58.9.9,0,0,1,.38.62c0,.37-.42.8-.65,1a2.92,2.92,0,0,0,.26-.89c0-.35-.39-.68-.4-.7l-.18-.14.1.19a1,1,0,0,1,0,.67,3.73,3.73,0,0,0-.08.44C140.62,73.37,140.59,73.86,140.57,74.2Z"/><path class="cls-1" d="M142.14,57.86a.21.21,0,0,0-.39.14.23.23,0,0,0,.22.24h0a.45.45,0,0,0,.34-.12.59.59,0,0,0,.18-.36.66.66,0,0,0-.13-.45.53.53,0,0,0-.37-.23.63.63,0,0,0-.48.16.79.79,0,0,0-.24.49,1,1,0,0,0,.17.65.74.74,0,0,0,.53.31.89.89,0,0,0,.69-.22,1.14,1.14,0,0,0,.34-.71,1.37,1.37,0,0,0-.25-.93,1.1,1.1,0,0,0-.76-.47,1.3,1.3,0,0,0-1,.34,1.63,1.63,0,0,0-.5,1,2.05,2.05,0,0,0,.37,1.39,1.67,1.67,0,0,0,1.15.69h.91a.17.17,0,0,0,.16-.17.16.16,0,0,0-.16-.17H142a1.53,1.53,0,0,1-1.23-1.7,1.21,1.21,0,0,1,.4-.81,1,1,0,0,1,.79-.27.86.86,0,0,1,.56.34,1.07,1.07,0,0,1,.18.68.72.72,0,0,1-.24.48.57.57,0,0,1-.46.16.48.48,0,0,1-.32-.2.54.54,0,0,1-.1-.39.4.4,0,0,1,.12-.27.37.37,0,0,1,.26-.08.23.23,0,0,1,.17.1.3.3,0,0,1,.05.21A.18.18,0,0,1,142.14,57.86Z"/><path class="cls-1" d="M124.52,57.86a.22.22,0,0,0-.18-.1.24.24,0,0,0,0,.48h0a.53.53,0,0,0,.38-.12.54.54,0,0,0,.18-.36.61.61,0,0,0-.13-.45.59.59,0,0,0-.4-.23.71.71,0,0,0-.52.16.75.75,0,0,0-.25.49.89.89,0,0,0,.18.65.8.8,0,0,0,.56.31,1,1,0,0,0,.74-.22,1.08,1.08,0,0,0,.37-.71,1.28,1.28,0,0,0-.26-.93,1.22,1.22,0,0,0-.83-.47,1.42,1.42,0,0,0-1.08.34,1.54,1.54,0,0,0-.54,1,1.92,1.92,0,0,0,.39,1.39,1.83,1.83,0,0,0,1.23.69h1a.17.17,0,0,0,.16-.17.16.16,0,0,0-.16-.17h-1a1.55,1.55,0,0,1-1.32-1.7,1.19,1.19,0,0,1,.42-.81,1.11,1.11,0,0,1,.85-.27.9.9,0,0,1,.6.34,1,1,0,0,1,.2.68.73.73,0,0,1-.25.48.66.66,0,0,1-.5.16.55.55,0,0,1-.35-.2.6.6,0,0,1-.11-.39.42.42,0,0,1,.14-.27.4.4,0,0,1,.28-.08.27.27,0,0,1,.18.1.37.37,0,0,1,.06.21A.21.21,0,0,1,124.52,57.86Z"/><path class="cls-1" d="M140.35,57.75a1.54,1.54,0,0,0-.54-1,1.45,1.45,0,0,0-1.09-.34,1.18,1.18,0,0,0-.82.47,1.28,1.28,0,0,0-.27.93,1.08,1.08,0,0,0,.37.71,1,1,0,0,0,.74.22.8.8,0,0,0,.56-.31.9.9,0,0,0,.19-.65.72.72,0,0,0-.26-.49.69.69,0,0,0-.52-.16.61.61,0,0,0-.4.23.6.6,0,0,0-.13.45.56.56,0,0,0,.19.36.5.5,0,0,0,.37.12h0A.23.23,0,0,0,139,58a.24.24,0,0,0-.23-.24.23.23,0,0,0-.19.1.16.16,0,0,1-.06-.12.26.26,0,0,1,.06-.21.25.25,0,0,1,.18-.1.4.4,0,0,1,.28.08.46.46,0,0,1,.13.27.5.5,0,0,1-.11.39.55.55,0,0,1-.34.2.69.69,0,0,1-.75-.64.91.91,0,0,1,.79-1,1.11,1.11,0,0,1,.85.27,1.19,1.19,0,0,1,.42.81,1.53,1.53,0,0,1-1.31,1.7h-1a.16.16,0,0,0-.16.17.17.17,0,0,0,.16.17h1.06a1.81,1.81,0,0,0,1.22-.69A1.92,1.92,0,0,0,140.35,57.75Z"/><path class="cls-1" d="M137.28,59.55h-.79a1.53,1.53,0,0,1-1.06-1.73,1.33,1.33,0,0,1,.34-.83.77.77,0,0,1,.67-.27.72.72,0,0,1,.49.34,1.21,1.21,0,0,1,.16.71.84.84,0,0,1-.21.5.46.46,0,0,1-.39.15.41.41,0,0,1-.27-.2.7.7,0,0,1-.1-.41.6.6,0,0,1,.12-.28.26.26,0,0,1,.21-.08.22.22,0,0,1,.14.1.33.33,0,0,1,0,.22.17.17,0,0,1,0,.1.16.16,0,0,0-.13-.06.21.21,0,0,0-.19.23.25.25,0,0,0,.1.21l.07,0a.35.35,0,0,0,.31-.12.54.54,0,0,0,.15-.35.74.74,0,0,0-.1-.44.47.47,0,0,0-.34-.23.5.5,0,0,0-.43.17.73.73,0,0,0-.2.48,1,1,0,0,0,.14.63.67.67,0,0,0,.47.33.71.71,0,0,0,.61-.24,1.12,1.12,0,0,0,.3-.7,1.52,1.52,0,0,0-.21-.92.94.94,0,0,0-.68-.47h-.18a1.2,1.2,0,0,0-.65.19,2.15,2.15,0,0,0-.51.46,6.29,6.29,0,0,0-.71,1.15v0l-.16.29a3.16,3.16,0,0,1-.62.8,1.07,1.07,0,0,1-.66.34c-.86,0-1.13-.73-1.2-1.33a1.27,1.27,0,0,1,.85-1.41.57.57,0,0,1,.53.17,1,1,0,0,1,.29.63.88.88,0,0,1-.1.56.57.57,0,0,1-.36.28.35.35,0,0,1-.3-.1.64.64,0,0,1-.17-.37.54.54,0,0,1,.06-.31l.07-.09a.19.19,0,0,0,.14.08.22.22,0,0,0,.2-.23.21.21,0,0,0-.22-.23h0a.72.72,0,0,0-.48.83.92.92,0,0,0,.26.57.59.59,0,0,0,.53.16.8.8,0,0,0,.54-.42,1.26,1.26,0,0,0,.15-.77,1.35,1.35,0,0,0-.39-.84.86.86,0,0,0-.75-.24,1.33,1.33,0,0,0-.83.62,1.51,1.51,0,0,0-.2.45,1.82,1.82,0,0,0-.2-.45,1.3,1.3,0,0,0-.83-.62.87.87,0,0,0-.75.24,1.41,1.41,0,0,0-.39.84,1.26,1.26,0,0,0,.15.77.8.8,0,0,0,.54.42.59.59,0,0,0,.53-.16,1,1,0,0,0,.27-.57.73.73,0,0,0-.49-.83h0c-.11,0-.21.09-.21.23a.21.21,0,0,0,.19.23.17.17,0,0,0,.14-.07.27.27,0,0,1,.07.08.54.54,0,0,1,.06.31.64.64,0,0,1-.17.37.35.35,0,0,1-.3.1.57.57,0,0,1-.36-.28,1,1,0,0,1-.1-.56,1,1,0,0,1,.29-.63.56.56,0,0,1,.52-.17,1.26,1.26,0,0,1,.86,1.41c-.07.6-.34,1.33-1.19,1.33a1.07,1.07,0,0,1-.67-.34,3.69,3.69,0,0,1-.62-.8l-.16-.31a7,7,0,0,0-.72-1.15,2,2,0,0,0-.51-.46,1.19,1.19,0,0,0-.64-.19h-.19a.91.91,0,0,0-.67.47,1.52,1.52,0,0,0-.22.92,1.18,1.18,0,0,0,.3.7.71.71,0,0,0,.61.24.67.67,0,0,0,.47-.33,1.11,1.11,0,0,0,.15-.63.79.79,0,0,0-.21-.48.49.49,0,0,0-.43-.17.47.47,0,0,0-.34.23.74.74,0,0,0-.1.44.54.54,0,0,0,.15.35.35.35,0,0,0,.32.12l0,0a.24.24,0,0,0,.11-.21.21.21,0,0,0-.19-.23.16.16,0,0,0-.13.06.17.17,0,0,1,0-.1.33.33,0,0,1,0-.22.22.22,0,0,1,.14-.1.25.25,0,0,1,.21.08.45.45,0,0,1,.12.28.63.63,0,0,1-.1.41.43.43,0,0,1-.27.2.46.46,0,0,1-.39-.15.84.84,0,0,1-.21-.5,1.21,1.21,0,0,1,.16-.71.75.75,0,0,1,.48-.34.77.77,0,0,1,.68.27,1.28,1.28,0,0,1,.34.83,1.52,1.52,0,0,1-1,1.73h-.79a.16.16,0,0,0,0,.32h.81a1.45,1.45,0,0,0,1-.7,2.38,2.38,0,0,0,.32-1.38,1.91,1.91,0,0,0-.06-.33,7.33,7.33,0,0,1,.53.91l.17.31a4.18,4.18,0,0,0,.68.88,1.23,1.23,0,0,0,1.85,0,1.92,1.92,0,0,0,.41-.86,1.92,1.92,0,0,0,.41.86,1.23,1.23,0,0,0,1.85,0,3.87,3.87,0,0,0,.68-.88l.17-.31a8.85,8.85,0,0,1,.53-.91,1.88,1.88,0,0,0,0,.33,2.23,2.23,0,0,0,.32,1.38,1.41,1.41,0,0,0,1,.7h.8a.16.16,0,0,0,0-.32Z"/><path class="cls-1" d="M126.05,54.91s-.16,0,.08.28a6.75,6.75,0,0,1,.61,1.07l0-.46A1,1,0,0,0,126.05,54.91Z"/><path class="cls-1" d="M127.53,54.91a1,1,0,0,0-.66.89l0,.46a6.75,6.75,0,0,1,.61-1.07C127.69,54.94,127.53,54.91,127.53,54.91Z"/><path class="cls-1" d="M128.47,54.91s-.16,0,.08.28a6.75,6.75,0,0,1,.61,1.07l0-.46A1,1,0,0,0,128.47,54.91Z"/><path class="cls-1" d="M129.94,54.91a.94.94,0,0,0-.65.89l0,.46a6.75,6.75,0,0,1,.61-1.07C130.11,54.94,129.94,54.91,129.94,54.91Z"/><path class="cls-1" d="M130.89,54.91s-.16,0,.08.28a6.75,6.75,0,0,1,.61,1.07l0-.46A1,1,0,0,0,130.89,54.91Z"/><path class="cls-1" d="M132.37,54.91a1,1,0,0,0-.66.89l0,.46a6.75,6.75,0,0,1,.61-1.07C132.53,54.94,132.37,54.91,132.37,54.91Z"/><path class="cls-1" d="M133.17,54.91s-.16,0,.08.28a6.75,6.75,0,0,1,.61,1.07l0-.46A1,1,0,0,0,133.17,54.91Z"/><path class="cls-1" d="M134.64,54.91a.94.94,0,0,0-.65.89l0,.46a6.75,6.75,0,0,1,.61-1.07C134.81,54.94,134.64,54.91,134.64,54.91Z"/><path class="cls-1" d="M135.6,54.91s-.16,0,.08.28a6.5,6.5,0,0,1,.6,1.07l0-.46A1,1,0,0,0,135.6,54.91Z"/><path class="cls-1" d="M137.07,54.91a.94.94,0,0,0-.65.89l0,.46a6,6,0,0,1,.61-1.07C137.23,54.94,137.07,54.91,137.07,54.91Z"/><path class="cls-1" d="M143.37,56.37V34.43H119.64V56.37h5.83v3.46h-5.83V76.64h23.73V59.83H140.5V56.37Zm-20.82-.32H120V45.53h2.59Zm0-10.81H120V34.75h2.59Zm2.91,10.81h-2.68V45.53h2.68Zm0-10.81h-2.68V34.75h2.68Zm-3,31.1-2.53,0V60.15l2.53,0Zm3,0-2.72,0V60.17l2.72,0Zm15-41.57h2.54V45.24h-2.54Zm0,10.78h2.54V56.05h-2.54Zm-2.88-10.78h2.65V45.24h-2.65Zm0,10.78h2.65V56.05h-2.65Zm-2.35-10.78h2v21.3h-2Zm-2.38,0H135v21.3H132.9Zm-2.38,0h2v21.3h-2Zm-2.34,0h2v21.3h-2Zm-2.36,0h2v21.3h-2Zm2,41.57h-2V60.15h2Zm2.34,0h-2V60.15h2Zm2.38,0h-2V60.15h2Zm2.39,0H132.9V60.15H135Zm2.36,0h-2V60.15h2Zm0-16.49H125.8V56.37h11.52Zm2.82,16.49h-2.51V60.15h2.51Zm2.91,0h-2.66V60.15h2.66Zm-2.78-16.49h-2.65V56.37h2.65Z"/><path class="cls-1" d="M135.81,1a3.24,3.24,0,0,0,.14.4,1.2,1.2,0,0,0,.21.27,1,1,0,0,0,.1-.26s-.07-.08-.12-.09l0,0,0,0a.41.41,0,0,0,.06-.19,0,0,0,0,0,0,0s-.12-.06-.33-.06Z"/><path class="cls-1" d="M131.89,4.19l-.25-.2c-.12-.07-.39-.39-.48-.45l-.4.1h0c-.09,0-.1-.19-.1-.19s-.05-.16-.09-.16h-.06a4.21,4.21,0,0,0-1.36.65A2.31,2.31,0,0,0,128,5.26c0,.06.07.09.17.09h.09l.21-.07a1.31,1.31,0,0,0-.27.25.75.75,0,0,0,.42.1,2.26,2.26,0,0,0,.63-.27l.17-.08a5.09,5.09,0,0,1,.76-.32,4.94,4.94,0,0,1,.75,0h1.9A7.24,7.24,0,0,1,131.89,4.19Zm-3,.48a.13.13,0,0,1-.13-.14.13.13,0,0,1,.26,0A.13.13,0,0,1,128.85,4.67Z"/><path class="cls-1" d="M131.87,1.2a2.78,2.78,0,0,1,.76.45A3.78,3.78,0,0,0,133,2l.06-.1.38-.41a1,1,0,0,1,.33-.21c0-.07.15-.37.19-.5a.59.59,0,0,0-.07-.34h0a.23.23,0,0,0-.13-.2.14.14,0,0,0-.09,0,2.25,2.25,0,0,0-.93.29C132.55.64,132.05,1.06,131.87,1.2Z"/><path class="cls-1" d="M135.33,2.65h0a1.55,1.55,0,0,0-.62.08l-.09.06a2.73,2.73,0,0,0-.42.28c0,.05-.23.16-.45.36a1.82,1.82,0,0,0-.19.18l-.1.08a1.35,1.35,0,0,0-.36.48.68.68,0,0,0,0,.46l0,0s.12.17.19.18a4.85,4.85,0,0,0,.65,0,3.22,3.22,0,0,0,.58-.33h0a1.8,1.8,0,0,0,.38.16h0l.05,0a.09.09,0,0,0,0-.07,2.47,2.47,0,0,1,.08-.4v0h0a.67.67,0,0,0,.39-.21,2.57,2.57,0,0,0,.28-.39A2.11,2.11,0,0,1,135.33,2.65ZM134,3.87a.13.13,0,1,1-.11.13A.12.12,0,0,1,134,3.87Zm-.78.63c-.13.06,0-.11,0-.11a1.69,1.69,0,0,1,.84,0l.14.07A5.82,5.82,0,0,0,133.2,4.5Z"/><path class="cls-1" d="M130.48,2.68a4.89,4.89,0,0,0-1.12-.6,2.72,2.72,0,0,0-.89-.14A2.78,2.78,0,0,0,128,2a4.81,4.81,0,0,0-1.29.57,4.34,4.34,0,0,0-.72.74c0,.07-.06.13,0,.18s.17,0,.23,0,.19,0,.17.12a.19.19,0,0,1-.08.1s-.09.07-.09.11.4.28.79.29A3,3,0,0,0,128,4a8.76,8.76,0,0,1,1-.21,4.51,4.51,0,0,1,1.08-.54l.24-.09.31-.11a.34.34,0,0,0,0-.15A1.79,1.79,0,0,0,130.48,2.68Zm-3.89.58c-.06,0-.1-.06-.1-.14s0-.13.1-.13a.12.12,0,0,1,.1.13C126.69,3.2,126.64,3.26,126.59,3.26Z"/><path class="cls-1" d="M137.57,3.5l0,0a.68.68,0,0,0-.11-.78,2.1,2.1,0,0,0-1.07-.59l-.13,0h0v0c.1.05.6.29.55.72s-.06.35-.15.41l-.09.07a.54.54,0,0,1-.29.15.22.22,0,0,1,.12.11h.07a.34.34,0,0,1,.27.09.29.29,0,0,1,0,.25,2.32,2.32,0,0,0,.31,0,3,3,0,0,0,.44-.09c.05-.09-.18-.14-.18-.15l-.09,0,.05,0a1.05,1.05,0,0,0,.2,0,.15.15,0,0,0,.1,0c0-.09,0-.12,0-.12Zm-.28-.28s-.1-.05-.1-.13a.12.12,0,0,1,.1-.13c.06,0,.1.06.1.13S137.35,3.22,137.29,3.22Z"/><path class="cls-1" d="M134.59,1.55A1.4,1.4,0,0,0,134,1.4h0a3.33,3.33,0,0,0-.73.67,1.49,1.49,0,0,1,.53.38.2.2,0,0,1,0,.2s-.08.08-.06.11a.58.58,0,0,0,.16.18l.37-.22-.05-.06a3.23,3.23,0,0,0-.66-.63V2a.84.84,0,0,1,.43.15,1.24,1.24,0,0,1,.28.47l0,.08a.67.67,0,0,0,.12-.06,2.78,2.78,0,0,1,.7-.25A1.17,1.17,0,0,0,134.59,1.55Zm.09.79s-.07-.07-.07-.15,0-.16.07-.16.08.07.08.16S134.72,2.34,134.68,2.34Z"/><path class="cls-1" d="M136.28,5.31c.12.05.45.2.51.32s.1.1.12.1h0a.46.46,0,0,0,0-.28.11.11,0,0,1,0-.06.13.13,0,0,1,.1,0l.08,0s.07,0,.08-.12a.79.79,0,0,0-.25-.54l-.23-.17a.76.76,0,0,1-.16.34l-.25.21Z"/><path class="cls-1" d="M136,3.35s.08-.06.2-.07a.67.67,0,0,0,.42-.54c0-.26-.35-.5-.53-.58A7,7,0,0,0,135.3,2h-.07l.12.39h.17l0,.28C135.55,2.94,135.94,3.3,136,3.35Z"/><path class="cls-1" d="M135.22,1.73a8.37,8.37,0,0,1,.86.23V1.9a2.37,2.37,0,0,1-.43-.58,1.21,1.21,0,0,0-.19-.49,2.3,2.3,0,0,0-.6-.06l-.67,0a1.42,1.42,0,0,1-.11.41,4.77,4.77,0,0,1,.53.14A2.11,2.11,0,0,1,135.22,1.73Z"/><path class="cls-1" d="M127.26,1.05c-.1.05-.31.13-.37.29a3.78,3.78,0,0,0-.15,1,7,7,0,0,1,1.12-.49C127.72,1.67,127.32,1.38,127.26,1.05Z"/><path class="cls-1" d="M129.17.29l.51.35c.09-.06.36-.18.49-.25a1.62,1.62,0,0,0-.3-.09,1.67,1.67,0,0,0-.34,0Z"/><path class="cls-1" d="M134.43,4.9c.31,0,1.06.1,1.24.15a2.13,2.13,0,0,1,.47.2,2.7,2.7,0,0,0,0-.28c0-.07,0-.1.1-.14a.45.45,0,0,0,.17-.17,1.41,1.41,0,0,0,.18-.81.13.13,0,0,0-.09-.09c-.12,0-.14,0-.15,0s0,0,0,0l-.08,0c0-.08-.1-.19-.15-.19s-.18.18-.24.27l-.14.17a2.6,2.6,0,0,1-.43.23c0,.07-.14.33-.18.41a.33.33,0,0,1-.26.13.26.26,0,0,1-.19-.07Z"/><path class="cls-1" d="M126.22,2.5a.37.37,0,0,0-.32.22.29.29,0,0,0,0,.26.22.22,0,0,0,.15.09,1,1,0,0,1,.22-.3,1.49,1.49,0,0,0,.22-.22h0A.65.65,0,0,0,126.22,2.5Z"/><path class="cls-1" d="M126,4a1,1,0,0,0,0,.24.36.36,0,0,0,0,.09.72.72,0,0,1,0,.62,1.69,1.69,0,0,1-.24.37.48.48,0,0,0-.12.2.45.45,0,0,0,0,.11s.06,0,.16-.09l.14-.1a2.11,2.11,0,0,1,.78-.45,7.41,7.41,0,0,1,1,.06,2.14,2.14,0,0,1,.87-1,6.61,6.61,0,0,0-.86.19,3.38,3.38,0,0,1-1,.15h-.16A1.72,1.72,0,0,1,126,4Z"/><path class="cls-1" d="M136.89,6c-.93-.76-1.48-.94-5.82-.86l-.73,0c-.65.07-1.24.64-1.61.69a1,1,0,0,1-.91-.44c-.87.12-1.08.5-1.08.5-.27.32.46,1,.81,1.26a3.29,3.29,0,0,0,2.39,2.4v.59a3,3,0,0,0-2.44,1.77h8.1a3.15,3.15,0,0,0-2.19-1.68V9.62a3,3,0,0,0,2.18-1.76c.18-.25.31-.45.31-.45a3.47,3.47,0,0,0,1-1.19S136.88,6,136.89,6Z"/><path class="cls-1" d="M130,1.68a.55.55,0,0,1,.12-.51l-1-.65a4,4,0,0,0-1-.49,1.21,1.21,0,0,0-.72.06,2,2,0,0,0,0,.71,1.37,1.37,0,0,0,.63.84.49.49,0,0,0,.19.08,5.55,5.55,0,0,1,1,.08,3.52,3.52,0,0,1,1,.44A1.54,1.54,0,0,1,130,1.68ZM128,1s-.11,0-.16,0-.06-.13,0-.16a.12.12,0,0,1,.16,0C128,.89,128,1,128,1Zm1.77.42A3.51,3.51,0,0,0,129,1a2.07,2.07,0,0,1,.72.15C129.89,1.21,129.75,1.42,129.75,1.42Z"/><path class="cls-1" d="M132.49.22a1.29,1.29,0,0,0-.31,0,6.08,6.08,0,0,0-1.06.08.38.38,0,0,1-.19,0,2.09,2.09,0,0,0-.5-.16c-.19,0-.07.21-.06.25a.3.3,0,0,1-.09.25l-.39.18.35.28a1,1,0,0,1,.12-.15,1.33,1.33,0,0,1,.55-.07,3,3,0,0,1,.76.24A1.93,1.93,0,0,1,132,.77l.18-.14c.08-.07.38-.27.45-.32A.29.29,0,0,0,132.49.22Z"/><path class="cls-1" d="M133.36,2.73s.22-.15.27-.2-.4-.28-.65-.36a.85.85,0,0,1-.46-.3c-.1-.1-.76-.5-1-.65a2,2,0,0,0-1-.14c-.05,0-.05.17-.05.17a.52.52,0,0,0-.17.06c-.1.05-.16.23,0,.6a4.77,4.77,0,0,0,.64.92l-.14.42c-.13.43.19.14.19.14s.16-.14.25-.06a7.49,7.49,0,0,1,.59.49c.17.18,1.07.85,1.07.85a.61.61,0,0,1-.07-.39,1.41,1.41,0,0,1,.42-.7,3.41,3.41,0,0,1,.46-.44S133.36,2.73,133.36,2.73Zm-2.2-1a.14.14,0,0,1-.14-.13.14.14,0,0,1,.14-.13.13.13,0,0,1,0,.26Z"/><rect class="cls-1" x="0.2" y="131.49" width="262.66" height="1.64"/><path class="cls-1" d="M2.22,111.67c0-.51-.09-6-.09-6.28s-.14-.68-.85-.68h-1c-.17,0-.22,0-.22-.19v-.74c0-.12.05-.17.22-.17.35,0,1.2.08,3.33.08,1.9,0,2.84-.08,3.2-.08.18,0,.23,0,.23.17v.74c0,.14,0,.19-.2.19H5.65c-.57,0-.79.2-.79.88,0,.43-.09,4.86-.09,6.25v1.42h.51a1.79,1.79,0,0,0,1.17-.4c.62-.45,5.87-7.15,6.13-7.52s.11-.68-.26-.68h-.39c-.12,0-.15-.06-.15-.2v-.66c0-.14.06-.19.17-.19.35,0,1.51.08,2.82.08.82,0,1.81-.08,2.15-.08.15,0,.2,0,.2.14v.77c0,.14-.08.19-.22.19h-.6a2.93,2.93,0,0,0-1.56.54,77.87,77.87,0,0,0-6.62,7.39c.26.31,7.36,9.11,7.61,9.42a2.47,2.47,0,0,0,2,.71h1a.18.18,0,0,1,.2.2v.71c0,.14-.05.2-.22.2s-1.37-.08-3.5-.08c-2.35,0-3.46.08-3.86.08a.15.15,0,0,1-.17-.17V123a.15.15,0,0,1,.17-.17h.43c.54,0,.59-.48.45-.77-.26-.56-5.28-7.21-5.65-7.49a1.75,1.75,0,0,0-1.25-.43H4.77v2c0,1.42.06,5.59.09,6a.62.62,0,0,0,.65.62H6.76c.14,0,.23.06.23.17v.74c0,.12,0,.2-.18.2-.33,0-1.19-.08-3.2-.08-2.25,0-3.15.08-3.41.08s-.2-.06-.2-.2v-.74c0-.14.09-.17.2-.17H1.36c.51,0,.71-.22.77-.51s.09-5.39.09-8.94Z"/><path class="cls-1" d="M26.14,111.9c0-.68-.08-5.79-.11-6.22-.06-.68-.34-1-1.42-1H23c-.14,0-.23,0-.23-.17v-.76c0-.12.09-.17.2-.17.34,0,1.79.08,4.43.08s3.44-.08,3.84-.08a.18.18,0,0,1,.2.19v.72c0,.14-.09.19-.23.19H29.83c-.56,0-1,.23-1,.8,0,.28-.09,6.56-.09,6.9v2.19c0,.28.09,6.84.09,7.15,0,.88.43,1,1.33,1h1.17c.14,0,.23.06.23.2v.74c0,.11-.09.17-.26.17-.34,0-1.48-.08-3.95-.08-2.69,0-3.91.08-4.23.08-.14,0-.22-.06-.22-.17v-.77c0-.11.08-.17.22-.17h1.59c.57,0,1.17-.08,1.28-.82.06-.43.14-6.56.14-8.06Z"/><path class="cls-1" d="M39.22,107.38c0-1.67-.85-2.61-1.88-2.64l-1.16,0c-.14,0-.17-.11-.17-.19v-.74c0-.12,0-.17.17-.17s.37,0,.79,0,1.05,0,2,0,1.56,0,1.9,0a1,1,0,0,1,.83.37c.14.16,5.65,7.32,6,7.72s5.11,6.27,5.79,7.18h.12v-3.38c0-2.53,0-3.92-.09-5.34a33.79,33.79,0,0,0-.34-4.37,1.52,1.52,0,0,0-1.56-1.11h-.91c-.11,0-.17,0-.17-.19v-.74a.15.15,0,0,1,.17-.17c.4,0,1.31.08,3.12.08s2.39-.08,2.76-.08c.2,0,.22.08.22.19v.72c0,.11,0,.19-.17.19h-.76c-.77,0-1,.49-1.11,1.57-.11,1.9-.11,4.71-.11,6.55v10.62c0,.4,0,.69-.14.69a1,1,0,0,1-.69-.46c0-.05-1.7-2.16-3.46-4.37-2-2.47-4.06-5.08-4.23-5.25s-5.54-6.85-5.71-7.08h-.17v6.31c0,2.64.23,7.27.28,7.84.12,1.1.29,1.64,1,1.64h.86c.19,0,.22.09.22.26v.63c0,.16,0,.22-.22.22s-2-.08-2.76-.08c-.59,0-2.55.08-2.84.08-.11,0-.14-.06-.14-.2v-.74a.15.15,0,0,1,.17-.17h1c.82,0,1.13-.34,1.27-1.73.06-.54.12-3.77.12-8.83Z"/><path class="cls-1" d="M64.21,110.88c0-2.11,0-3.92,0-4.75s-.37-1.42-1.08-1.42H62c-.14,0-.17-.08-.17-.19v-.72c0-.14,0-.19.17-.19s1.13.08,3.52.08c1.59,0,4.23-.08,4.74-.08a7.76,7.76,0,0,1,5.31,1.73A4.79,4.79,0,0,1,77,108.58c0,3.55-1.62,4.88-5.25,5.68v0a2.87,2.87,0,0,1,1.3,1.08c.34.37,2.36,3.27,2.58,3.63a23.2,23.2,0,0,0,2.5,3.27,3.27,3.27,0,0,0,2,.48c.2,0,.23.12.23.23v.63c0,.17,0,.25-.23.25s-1-.08-2.22-.08c-.82,0-1.87,0-2.29.08a13.33,13.33,0,0,1-1.2-1.62c-.22-.34-1.76-3-1.9-3.26s-1.48-2.25-1.82-2.64a3.56,3.56,0,0,0-3.06-1.65,4.33,4.33,0,0,0-.94.08v1.59c0,1.68,0,4.86,0,5.29.06.59.29,1.1.71,1.1h1.79c.2,0,.23.09.23.23v.63c0,.19,0,.25-.31.25s-1-.08-3.72-.08-3.24.08-3.55.08-.23-.08-.23-.22V123c0-.14,0-.23.14-.23h1.17c.62,0,1.11-.2,1.11-1,0-2.81,0-5.48,0-8.18Zm2.56,2.81a6.07,6.07,0,0,0,1.27.11c5.17,0,6.17-3.55,6.17-4.74a4.33,4.33,0,0,0-1.42-3.24c-1.11-.88-2.36-1.3-4.72-1.3a1.77,1.77,0,0,0-1,.22,1.09,1.09,0,0,0-.34.91Z"/><path class="cls-1" d="M87,122.38a9.93,9.93,0,0,1-4.18-8.44,11.07,11.07,0,0,1,2.64-7.07,9.28,9.28,0,0,1,7.7-3.6,9.57,9.57,0,0,1,6.36,2.24A11,11,0,0,1,103.4,114a10.35,10.35,0,0,1-2.13,6.22,9.64,9.64,0,0,1-8.18,4A12.42,12.42,0,0,1,87,122.38Zm13.63-8.15c0-6.22-4.43-9.89-7.59-9.89A5.48,5.48,0,0,0,88.55,106a10.11,10.11,0,0,0-2.84,7c0,7.46,5.2,10.1,7.61,10.1C99.57,123.14,100.62,116.75,100.62,114.23Z"/><path class="cls-1" d="M110.56,122.75c-.34-.26-.51-.35-.65-.35s-.28.2-.45.49-.32.34-.51.34-.32-.14-.26-.46c.11-.71.4-4.31.48-5.13,0-.18.09-.18.2-.18l.43,0c.11,0,.17.06.17.23a5.54,5.54,0,0,0,1,3.29,4.74,4.74,0,0,0,4,2.1,3.63,3.63,0,0,0,3.86-3.6c0-2.93-2.1-4-4.37-4.8a10.88,10.88,0,0,1-4.15-2.3,5.55,5.55,0,0,1-1.42-4.15,5.34,5.34,0,0,1,1.76-3.63,5.63,5.63,0,0,1,4-1.36,8.41,8.41,0,0,1,3.35.7c.25.15.39.12.54,0l.36-.34a.54.54,0,0,1,.37-.17c.14,0,.23.22.23.48,0,1,.37,3.89.4,4.51,0,.15,0,.2-.14.23l-.35.09c-.08,0-.14,0-.16-.09a7,7,0,0,0-1.76-3.15,4,4,0,0,0-3.1-1.22,3.22,3.22,0,0,0-3.44,3.32,3.46,3.46,0,0,0,.88,2.47,9,9,0,0,0,3.24,1.7c2,.63,3.55,1.11,4.57,2.36a5.54,5.54,0,0,1,1.25,3.86c0,3.35-2,6.22-5.79,6.22A7,7,0,0,1,110.56,122.75Z"/><path class="cls-1" d="M128.32,122.75c-.35-.26-.51-.35-.66-.35s-.28.2-.45.49-.31.34-.51.34-.31-.14-.26-.46c.11-.71.4-4.31.48-5.13,0-.18.09-.18.2-.18l.43,0c.11,0,.17.06.17.23a5.61,5.61,0,0,0,1,3.29,4.72,4.72,0,0,0,4,2.1,3.63,3.63,0,0,0,3.86-3.6c0-2.93-2.1-4-4.38-4.8a11,11,0,0,1-4.14-2.3,5.55,5.55,0,0,1-1.42-4.15,5.34,5.34,0,0,1,1.76-3.63,5.63,5.63,0,0,1,4-1.36,8.36,8.36,0,0,1,3.35.7c.25.15.39.12.53,0l.37-.34a.54.54,0,0,1,.37-.17c.15,0,.23.22.23.48,0,1,.37,3.89.4,4.51,0,.15,0,.2-.14.23l-.34.09c-.09,0-.15,0-.17-.09a6.91,6.91,0,0,0-1.77-3.15,3.94,3.94,0,0,0-3.09-1.22,3.22,3.22,0,0,0-3.44,3.32,3.51,3.51,0,0,0,.88,2.47,9,9,0,0,0,3.24,1.7c2,.63,3.55,1.11,4.57,2.36a5.54,5.54,0,0,1,1.25,3.86c0,3.35-2,6.22-5.79,6.22A7,7,0,0,1,128.32,122.75Z"/><path class="cls-1" d="M156.79,112.61c0-1.76,0-5.59,0-6,0-1.45-.2-1.85-1.25-1.85h-1.34c-.14,0-.17,0-.17-.22v-.69c0-.14.09-.19.23-.19.57,0,1.48.08,4,.08,2.21,0,3.23-.08,3.77-.08.2,0,.29,0,.29.14v.74c0,.17-.06.22-.23.22h-1.45c-1,0-1.11.49-1.11,1.62,0,.4-.05,4.15-.05,5.74v.48c0,.14.08.23.34.23h10.5c.43,0,.57-.06.57-.43v-.28c0-1.62-.08-5.57-.08-5.91,0-.91-.12-1.45-.94-1.45h-1.48c-.14,0-.2,0-.2-.19v-.74c0-.12,0-.17.17-.17.6,0,1.82.08,3.75.08s3.1-.08,3.64-.08c.2,0,.22,0,.22.22v.69c0,.17-.05.19-.22.19H174.4c-.83,0-.91.49-.91,1.51,0,.4-.06,5.19-.06,6.25v1c0,.91.06,6.31.09,7.92,0,1,.28,1.42,1.14,1.42h1.24c.2,0,.26.06.26.2v.69c0,.16-.06.22-.23.22-.54,0-1.5-.08-3.58-.08-2.47,0-3.38.08-4.23.08-.11,0-.17-.08-.17-.2V123c0-.14.06-.2.23-.2H170c.68,0,.77-.54.77-1.3,0-1.34.08-5.91.08-6.93v-.4c0-.31-.14-.34-.62-.34H159.8c-.31,0-.39.09-.39.29v.59c0,.77,0,5.14.05,7.13,0,.68.32,1,.91,1h1.39c.17,0,.23.06.23.2v.71c0,.14-.06.2-.23.2-.54,0-1.53-.08-3.57-.08-2.45,0-3.3.08-3.95.08-.14,0-.2-.06-.2-.2v-.74c0-.11.08-.17.2-.17h1.67c.71,0,.8-.68.8-1.36,0-1.33.08-6.84.08-7.58Z"/><path class="cls-1" d="M184.38,122.38a10,10,0,0,1-4.17-8.44,11,11,0,0,1,2.64-7.07,9.28,9.28,0,0,1,7.69-3.6,9.61,9.61,0,0,1,6.37,2.24A11,11,0,0,1,200.8,114a10.42,10.42,0,0,1-2.13,6.22,9.66,9.66,0,0,1-8.18,4A12.48,12.48,0,0,1,184.38,122.38ZM198,114.23c0-6.22-4.42-9.89-7.58-9.89a5.51,5.51,0,0,0-4.49,1.68,10.14,10.14,0,0,0-2.83,7c0,7.46,5.19,10.1,7.61,10.1C197,123.14,198,116.75,198,114.23Z"/><path class="cls-1" d="M210.68,123.63a5.2,5.2,0,0,1-3.38-3.81,29.91,29.91,0,0,1-.45-6.9v-6.76c0-1-.2-1.45-1.08-1.45h-1.33c-.18,0-.2,0-.2-.25v-.63c0-.17,0-.22.25-.22s1.68.08,3.89.08,3.58-.08,3.89-.08.26,0,.26.17v.74c0,.14,0,.19-.23.19h-1.42a1.27,1.27,0,0,0-1.36,1.17c0,.25-.06,2.24-.06,3.69v1.87c0,1.51.11,5.12.14,6a6.85,6.85,0,0,0,.91,3.61,5.3,5.3,0,0,0,4.52,2,6.07,6.07,0,0,0,4.26-1.56c1.1-1.19,1.47-2.89,1.47-5v-6.08c0-2.16,0-3.81-.14-4.52a1.28,1.28,0,0,0-1.28-1.25h-1.25c-.17,0-.2-.08-.2-.22v-.69c0-.14,0-.19.2-.19s1.59.08,3.5.08,2.86-.08,3.12-.08.28.11.28.19v.63c0,.17,0,.28-.17.28h-1.16c-1,0-1.14.8-1.22,1.14s-.06,4.32-.06,4.71-.06,5.37-.14,6.48a7.36,7.36,0,0,1-2.39,5.48,7.58,7.58,0,0,1-5.33,1.7A10.76,10.76,0,0,1,210.68,123.63Z"/><path class="cls-1" d="M230.92,122.75c-.34-.26-.51-.35-.65-.35s-.29.2-.46.49-.31.34-.51.34-.31-.14-.25-.46c.11-.71.39-4.31.48-5.13,0-.18.08-.18.2-.18l.42,0c.12,0,.17.06.17.23a5.56,5.56,0,0,0,1,3.29,4.72,4.72,0,0,0,4,2.1,3.62,3.62,0,0,0,3.86-3.6c0-2.93-2.1-4-4.37-4.8a11,11,0,0,1-4.15-2.3,5.59,5.59,0,0,1-1.42-4.15,5.31,5.31,0,0,1,1.77-3.63,5.62,5.62,0,0,1,4-1.36,8.32,8.32,0,0,1,3.35.7c.26.15.4.12.54,0l.37-.34a.52.52,0,0,1,.37-.17c.14,0,.23.22.23.48,0,1,.37,3.89.39,4.51,0,.15,0,.2-.14.23l-.34.09a.12.12,0,0,1-.17-.09,6.77,6.77,0,0,0-1.76-3.15,4,4,0,0,0-3.1-1.22,3.21,3.21,0,0,0-3.43,3.32,3.46,3.46,0,0,0,.88,2.47,8.83,8.83,0,0,0,3.24,1.7c2,.63,3.55,1.11,4.57,2.36a5.54,5.54,0,0,1,1.25,3.86c0,3.35-2,6.22-5.79,6.22A7,7,0,0,1,230.92,122.75Z"/><path class="cls-1" d="M251.09,112.92c.23,0,3.26-.11,3.6-.17.83-.14,1.06-.37,1.31-1.25a6.42,6.42,0,0,0,.23-1.39.18.18,0,0,1,.2-.2l.71,0a.17.17,0,0,1,.17.23c-.09.48-.09,2.81-.09,3.23,0,1,.12,2.36.17,3,0,.14-.05.2-.17.22l-.62.09c-.15,0-.2-.06-.23-.26-.06-.36-.23-1-.31-1.33a1.33,1.33,0,0,0-1.22-1.11c-1.34-.14-3.3-.14-3.75-.14v1.76c0,1.53.06,4.29.06,4.85,0,1.48.73,2,1.61,2.22a12.18,12.18,0,0,0,2.1.2c.49,0,1.91,0,2.5-.09a5.37,5.37,0,0,0,2.47-1,24.23,24.23,0,0,0,2.33-3c.09-.14.17-.26.34-.17l.46.25c.14.09.14.17.05.4l-1.5,4.17a.6.6,0,0,1-.63.43c-.14,0-.76,0-2.47-.06l-8.88,0-2.42,0c-.59,0-1,.06-1.22.06s-.25-.06-.25-.2v-.76c0-.12.08-.15.28-.15h1.14c1.3,0,1.41-.2,1.41-1.25V112c0-2.35-.05-5.9-.08-6.19-.11-.91-.4-1.11-1.45-1.11h-1c-.14,0-.23,0-.23-.19v-.77c0-.09.06-.14.2-.14.63,0,1.62.08,3.49.08h1.25l8.44,0c.45,0,1,0,1.13,0s.2,0,.23.14c.12.4,1.36,4.28,1.45,4.57,0,.11,0,.2-.09.26l-.42.22c-.09.06-.2,0-.23-.08a23.38,23.38,0,0,0-2.84-3.24,4.4,4.4,0,0,0-2.16-.77l-5-.11Z"/><path class="cls-1" d="M56.13,146.53c-.11.3-.76,2.1-.82,2.35,0,.08,0,.2,0,.26s.14.26.4.26h.56c.08,0,.12,0,.12.08v.27c0,.08,0,.11-.1.11s-.65,0-1.35,0c-.86,0-1.12,0-1.29,0s-.08,0-.08-.1v-.28c0-.06,0-.08.1-.08H54c.36,0,.52-.17.69-.55.08-.19.94-2.37,1.29-3.35.08-.23,1-2.78,1.14-3.09a.45.45,0,0,0,0-.41.31.31,0,0,1-.08-.15s0-.09.11-.11a2.44,2.44,0,0,0,1-.59c.06-.06.09-.11.15-.11s.1.07.14.2c.22.75,1.14,3.4,1.37,4.16.27.92,1,3.12,1.2,3.46a.9.9,0,0,0,.81.54h.39c.07,0,.09,0,.09.08v.3c0,.05,0,.08-.11.08s-.47,0-1.43,0-1.39,0-1.66,0a.1.1,0,0,1-.1-.11v-.27c0-.07,0-.08.11-.08h.3c.33,0,.43-.12.35-.45s-.58-1.94-.75-2.42Zm2.77-.42c-.1-.36-1.06-3.32-1.12-3.49s-.06-.17-.1-.17-.09.08-.13.18-1.18,3.18-1.26,3.48Z"/><path class="cls-1" d="M75,147.21c0-.43-.13-.55-.49-.55H74s-.08,0-.08-.07v-.29c0-.07,0-.1.07-.1s.7,0,1.51,0,1.23,0,1.39,0,.1,0,.1.08v.29a.08.08,0,0,1-.09.09h-.46c-.21,0-.36.09-.36.45v1.57c0,.16,0,.28,0,.37s-.07.15-.19.19a6.59,6.59,0,0,1-3.23.76,4.54,4.54,0,0,1-3.31-1.35,4.61,4.61,0,0,1-1.09-3.25,4.08,4.08,0,0,1,1.34-3,4.86,4.86,0,0,1,3.32-1.12,4.15,4.15,0,0,1,2.33.69c.14.1.21.08.28,0l.17-.21c.05,0,.1-.11.17-.11s.11.06.11.14L76,144c0,.05,0,.1-.06.1l-.21,0s-.08,0-.1-.1a3.93,3.93,0,0,0-.7-1.4,2.81,2.81,0,0,0-2.16-1,2.88,2.88,0,0,0-2.26,1,4,4,0,0,0-1,2.72,4.57,4.57,0,0,0,1.13,3.32,3,3,0,0,0,2.08.84,3.9,3.9,0,0,0,1.94-.4c.27-.17.32-.43.32-1Z"/><path class="cls-1" d="M81,145.29c.09,0,1.36,0,1.5-.07.35-.06.44-.15.55-.52a3.23,3.23,0,0,0,.09-.58.07.07,0,0,1,.08-.08h.3a.07.07,0,0,1,.07.09c0,.2,0,1.17,0,1.35a12,12,0,0,0,.08,1.23.09.09,0,0,1-.08.1l-.26,0c-.06,0-.08,0-.09-.1a4.19,4.19,0,0,0-.13-.56.55.55,0,0,0-.51-.46c-.55-.06-1.37-.06-1.56-.06v.73c0,.64,0,1.79,0,2,0,.61.31.85.68.92a4.6,4.6,0,0,0,.87.08c.21,0,.8,0,1,0a2.31,2.31,0,0,0,1-.42,10.75,10.75,0,0,0,1-1.24c0-.06.07-.11.14-.07l.2.11s0,.07,0,.16l-.63,1.74a.25.25,0,0,1-.26.18l-1,0H79.32l-.5,0c-.08,0-.11,0-.11-.08v-.33s0,0,.12,0h.47c.54,0,.59-.09.59-.52v-4c0-1,0-2.46,0-2.58,0-.37-.17-.46-.61-.46h-.42c-.06,0-.1,0-.1-.08v-.32s0-.06.09-.06c.25,0,.67,0,1.45,0h4c.18,0,.41,0,.47,0a.08.08,0,0,1,.09.06c0,.17.57,1.79.61,1.9s0,.09,0,.11l-.18.1s-.08,0-.09,0A9.79,9.79,0,0,0,84,142.19a1.8,1.8,0,0,0-.89-.32L81,141.82Z"/><path class="cls-1" d="M88.9,143c0-.69-.36-1.08-.78-1.1h-.49c-.06,0-.07-.05-.07-.08v-.31s0-.07.07-.07H88a8.14,8.14,0,0,0,.84,0c.4,0,.65,0,.8,0a.41.41,0,0,1,.34.16l2.48,3.21c.13.17,2.13,2.62,2.42,3h0v-1.41c0-1,0-1.63,0-2.22a13.81,13.81,0,0,0-.14-1.83.65.65,0,0,0-.66-.46h-.37c-.05,0-.07,0-.07-.08v-.31a.06.06,0,0,1,.07-.07c.16,0,.54,0,1.3,0s1,0,1.15,0,.09,0,.09.08v.3c0,.05,0,.08-.07.08h-.32c-.32,0-.44.2-.46.65-.05.79-.05,2-.05,2.74v4.42c0,.17,0,.28-.06.28a.4.4,0,0,1-.28-.18s-.71-.9-1.44-1.83-1.7-2.12-1.77-2.19-2.3-2.85-2.38-2.94h-.07v2.62c0,1.11.1,3,.12,3.27,0,.46.12.69.44.69h.35c.09,0,.1,0,.1.1v.26c0,.07,0,.1-.1.1s-.82,0-1.14,0l-1.19,0s-.05,0-.05-.08v-.31s0-.07.07-.07h.4c.34,0,.47-.15.53-.72,0-.23.05-1.58.05-3.68Z"/><path class="cls-1" d="M101.53,141.87h-.29a8.78,8.78,0,0,0-1.87.14c-.54.17-.89,1-1.06,1.38,0,.06,0,.07-.11.06l-.22-.06s-.07,0,0-.1c.11-.43.53-1.95.55-2.08s.07-.19.12-.19a.17.17,0,0,1,.14,0l.16.1a1,1,0,0,0,.67.21c.63,0,1.12.07,2.24.07h.56c1.29,0,1.8,0,2.38-.07a1.25,1.25,0,0,0,.62-.17l.22-.14a.24.24,0,0,1,.14,0c.06,0,.09,0,.11.19s.25,1.61.34,2.13c0,.06,0,.08-.07.09l-.19,0s-.06,0-.09-.08c-.1-.23-.45-1.14-.84-1.33a7.42,7.42,0,0,0-2-.2h-.33v3.37c0,.17,0,3.48,0,3.68s.12.48.4.48h.75c.11,0,.12,0,.12.11v.25c0,.06,0,.1-.12.1s-.5,0-1.66,0-1.63,0-1.79,0-.11-.05-.11-.12v-.23c0-.08,0-.11.08-.11h.81a.37.37,0,0,0,.39-.29c0-.34,0-4,0-4.2Z"/><path class="cls-1" d="M109.21,144.52c0-.76,0-2,0-2.22s-.09-.43-.44-.43h-.55c-.08,0-.09-.06-.09-.12v-.26c0-.05,0-.08.09-.08s.55,0,1.53,0c1.15,0,1.65,0,1.75,0s.11,0,.11.1v.27c0,.06,0,.09-.12.09h-.71c-.36,0-.41.12-.41.46,0,.16,0,1.94,0,2.77v1c0,.2,0,2.76,0,3.24.26,0,2.6,0,3,0,.7-.11,1.4-1.53,1.57-2,0,0,.05-.07.1,0l.18.07s0,0,0,.1-.51,2-.58,2.36c-.16,0-1.08,0-2.13,0h-3.91l-.46,0c-.08,0-.09,0-.09-.08v-.3c0-.06,0-.08.08-.08h.57c.44,0,.51-.17.51-.32s0-3.17,0-3.9Z"/><path class="cls-1" d="M119.29,145.29c.09,0,1.36,0,1.5-.07.34-.06.44-.15.54-.52a3.11,3.11,0,0,0,.1-.58c0-.06,0-.08.08-.08h.3a.07.07,0,0,1,.07.09c0,.2,0,1.17,0,1.35,0,.42,0,1,.07,1.23,0,.06,0,.09-.07.1l-.26,0c-.06,0-.08,0-.09-.1s-.1-.43-.13-.56a.55.55,0,0,0-.51-.46c-.56-.06-1.37-.06-1.56-.06v.73c0,.64,0,1.79,0,2,0,.61.31.85.67.92a4.71,4.71,0,0,0,.88.08c.2,0,.79,0,1,0a2.4,2.4,0,0,0,1-.42,12,12,0,0,0,1-1.24c0-.06.07-.11.14-.07l.19.11c.06,0,.06.07,0,.16l-.63,1.74a.25.25,0,0,1-.26.18l-1,0h-4.71l-.51,0c-.07,0-.1,0-.1-.08v-.33s0,0,.11,0h.48c.54,0,.59-.09.59-.52v-4c0-1,0-2.46,0-2.58,0-.37-.16-.46-.6-.46h-.43c-.06,0-.09,0-.09-.08v-.32s0-.06.08-.06c.26,0,.67,0,1.46,0h4c.19,0,.41,0,.47,0a.1.1,0,0,1,.1.06c0,.17.57,1.79.6,1.9s0,.09,0,.11l-.18.1s-.08,0-.1,0a9.62,9.62,0,0,0-1.18-1.35,1.88,1.88,0,0,0-.9-.32l-2.1-.05Z"/><path class="cls-1" d="M131.6,147.93c.16-.18,1.35-3,1.44-3.16s1.37-3,1.41-3.18.15-.14.27-.14c1.58,0,2,0,2.11,0s.07,0,.07.08v.27c0,.08,0,.11-.1.11h-.52c-.35,0-.39.22-.39.49s0,2,0,2.82V146c0,.59,0,2.51,0,2.75,0,.45.11.64.41.64H137c.08,0,.09,0,.09.08v.27c0,.07,0,.11-.11.11s-.35,0-1.66,0c-1.08,0-1.55,0-1.7,0s-.09,0-.09-.11v-.27c0-.06,0-.08.09-.08h.8c.21,0,.31-.07.34-.43,0-.14,0-2.2,0-3.08v-.75c0-.78,0-2.89,0-3h0c-.12.16-1.8,3.89-1.86,4s-1.38,3.16-1.43,3.27-.14.28-.24.28-.13-.09-.17-.21-1.55-3.82-1.61-4c-.23-.55-1.3-3.2-1.47-3.34-.05.17-.07,3.16-.07,3.3s0,2.64,0,3.05c.06.68.17.87.55.87H129c.07,0,.08,0,.08.08v.3s0,.08-.1.08-.45,0-1.44,0-1.41,0-1.52,0-.11,0-.11-.11v-.28s0-.07.07-.07h.63c.45,0,.56-.31.63-.71.14-.84.17-3.87.17-4.08s0-2,0-2.3,0-.44-.48-.44h-.72c-.07,0-.09,0-.09-.08v-.31s0-.07.09-.07.44,0,1.44,0c.55,0,.86,0,1,0a.27.27,0,0,1,.31.2Z"/><path class="cls-1" d="M141.56,146.53c-.12.3-.77,2.1-.83,2.35,0,.08,0,.2,0,.26s.14.26.4.26h.56c.08,0,.11,0,.11.08v.27c0,.08,0,.11-.09.11s-.65,0-1.35,0c-.86,0-1.12,0-1.29,0s-.08,0-.08-.1v-.28a.08.08,0,0,1,.09-.08h.42c.35,0,.52-.17.68-.55.09-.19.95-2.37,1.29-3.35.08-.23,1-2.78,1.15-3.09a.45.45,0,0,0,0-.41.31.31,0,0,1-.08-.15s0-.09.11-.11a2.44,2.44,0,0,0,1-.59c.06-.06.09-.11.15-.11s.1.07.13.2c.22.75,1.15,3.4,1.37,4.16.28.92,1.05,3.12,1.21,3.46a.9.9,0,0,0,.81.54h.38c.07,0,.1,0,.1.08v.3c0,.05,0,.08-.12.08s-.46,0-1.42,0-1.39,0-1.67,0c-.06,0-.09,0-.09-.11v-.27c0-.07,0-.08.1-.08h.3c.33,0,.44-.12.36-.45s-.58-1.94-.75-2.42Zm2.77-.42c-.11-.36-1.07-3.32-1.12-3.49s-.06-.17-.1-.17-.1.08-.13.18-1.18,3.18-1.27,3.48Z"/><path class="cls-1" d="M150.77,143c0-.69-.35-1.08-.78-1.1h-.48c-.06,0-.07-.05-.07-.08v-.31s0-.07.07-.07h.33a8,8,0,0,0,.84,0c.4,0,.65,0,.79,0a.39.39,0,0,1,.34.16l2.49,3.21c.13.17,2.13,2.62,2.41,3h0v-1.41c0-1,0-1.63,0-2.22a15.46,15.46,0,0,0-.15-1.83.63.63,0,0,0-.65-.46h-.38s-.07,0-.07-.08v-.31a.07.07,0,0,1,.07-.07c.17,0,.55,0,1.3,0s1,0,1.15,0,.1,0,.1.08v.3a.07.07,0,0,1-.07.08h-.33c-.31,0-.43.2-.46.65,0,.79,0,2,0,2.74v4.42c0,.17,0,.28-.06.28s-.25-.14-.29-.18-.71-.9-1.44-1.83-1.69-2.12-1.76-2.19-2.31-2.85-2.38-2.94h-.07v2.62c0,1.11.09,3,.12,3.27,0,.46.12.69.44.69h.35c.08,0,.1,0,.1.1v.26c0,.07,0,.1-.1.1s-.83,0-1.15,0l-1.18,0c-.05,0-.06,0-.06-.08v-.31s0-.07.07-.07h.4c.35,0,.48-.15.54-.72,0-.23,0-1.58,0-3.68Z"/><path class="cls-1" d="M161.77,142.29a2.62,2.62,0,0,1-1.24,2,.38.38,0,0,1-.22.1c-.08,0-.12,0-.12-.1s0-.08.1-.15a2.08,2.08,0,0,0,.75-1.34.4.4,0,0,0-.18-.33c-.11,0-.61-.16-.61-.68a.53.53,0,0,1,.59-.51A1,1,0,0,1,161.77,142.29Z"/><path class="cls-1" d="M165,149.38c-.14-.1-.21-.14-.27-.14s-.12.09-.19.2-.13.15-.22.15-.12-.06-.1-.19c.05-.3.16-1.8.2-2.15,0-.07,0-.07.08-.07l.18,0s.07,0,.07.09a2.31,2.31,0,0,0,.43,1.37,2,2,0,0,0,1.65.88,1.52,1.52,0,0,0,1.61-1.51c0-1.21-.87-1.66-1.82-2a4.62,4.62,0,0,1-1.73-1,2.32,2.32,0,0,1-.59-1.73,2.21,2.21,0,0,1,.74-1.51,2.34,2.34,0,0,1,1.65-.57,3.51,3.51,0,0,1,1.4.29c.1.06.16.05.22,0l.16-.14a.19.19,0,0,1,.15-.07c.06,0,.1.1.1.2,0,.42.15,1.62.16,1.88,0,.06,0,.09-.06.1l-.14,0s-.06,0-.07,0a2.89,2.89,0,0,0-.74-1.32,1.65,1.65,0,0,0-1.28-.51,1.35,1.35,0,0,0-1.44,1.39,1.43,1.43,0,0,0,.37,1,3.76,3.76,0,0,0,1.35.71,3.73,3.73,0,0,1,1.9,1,2.31,2.31,0,0,1,.52,1.61,2.39,2.39,0,0,1-2.41,2.59A2.88,2.88,0,0,1,165,149.38Z"/><path class="cls-1" d="M176.82,149.38c-.14-.1-.21-.14-.27-.14s-.12.09-.19.2-.13.15-.21.15-.13-.06-.11-.19c.05-.3.17-1.8.2-2.15,0-.07,0-.07.09-.07l.17,0c.05,0,.08,0,.08.09a2.28,2.28,0,0,0,.42,1.37,2,2,0,0,0,1.66.88,1.52,1.52,0,0,0,1.61-1.51c0-1.21-.88-1.66-1.82-2a4.62,4.62,0,0,1-1.73-1,2.32,2.32,0,0,1-.59-1.73,2.2,2.2,0,0,1,.73-1.51,2.37,2.37,0,0,1,1.66-.57,3.49,3.49,0,0,1,1.39.29c.11.06.17.05.23,0l.15-.14a.21.21,0,0,1,.15-.07c.06,0,.1.1.1.2,0,.42.15,1.62.16,1.88,0,.06,0,.09,0,.1l-.15,0a.05.05,0,0,1-.07,0,2.85,2.85,0,0,0-.73-1.32,1.66,1.66,0,0,0-1.29-.51,1.34,1.34,0,0,0-1.43,1.39,1.43,1.43,0,0,0,.37,1,3.8,3.8,0,0,0,1.34.71,3.81,3.81,0,0,1,1.91,1,2.36,2.36,0,0,1,.52,1.61A2.39,2.39,0,0,1,178.7,150,2.92,2.92,0,0,1,176.82,149.38Z"/><path class="cls-1" d="M185.4,145.29c.1,0,1.36,0,1.51-.07.34-.06.43-.15.54-.52a3.23,3.23,0,0,0,.09-.58c0-.06,0-.08.09-.08h.29c.06,0,.09,0,.07.09,0,.2,0,1.17,0,1.35,0,.42,0,1,.07,1.23,0,.06,0,.09-.07.1l-.26,0c-.06,0-.09,0-.09-.1s-.1-.43-.14-.56a.55.55,0,0,0-.51-.46c-.55-.06-1.37-.06-1.56-.06v.73c0,.64,0,1.79,0,2,0,.61.3.85.67.92a4.71,4.71,0,0,0,.88.08c.2,0,.79,0,1,0a2.4,2.4,0,0,0,1-.42,12,12,0,0,0,1-1.24c0-.06.07-.11.14-.07l.19.11c.06,0,.06.07,0,.16l-.62,1.74a.26.26,0,0,1-.27.18l-1,0h-4.71l-.51,0c-.07,0-.11,0-.11-.08v-.33s0,0,.12,0h.47c.55,0,.59-.09.59-.52v-4c0-1,0-2.46,0-2.58-.05-.37-.17-.46-.6-.46h-.43c-.06,0-.09,0-.09-.08v-.32s0-.06.08-.06c.26,0,.67,0,1.45,0h4c.19,0,.41,0,.47,0a.11.11,0,0,1,.1.06c0,.17.56,1.79.6,1.9s0,.09,0,.11l-.18.1s-.08,0-.09,0a9.62,9.62,0,0,0-1.18-1.35,1.88,1.88,0,0,0-.9-.32l-2.11-.05Z"/><path class="cls-1" d="M194.6,146.53c-.11.3-.76,2.1-.82,2.35,0,.08,0,.2,0,.26s.14.26.41.26h.55c.08,0,.12,0,.12.08v.27c0,.08,0,.11-.1.11s-.65,0-1.34,0c-.87,0-1.13,0-1.3,0s-.08,0-.08-.1v-.28c0-.06.05-.08.1-.08h.41c.36,0,.52-.17.69-.55.08-.19,1-2.37,1.29-3.35.08-.23,1-2.78,1.14-3.09a.49.49,0,0,0,0-.41.27.27,0,0,1-.09-.15s0-.09.11-.11a2.44,2.44,0,0,0,1-.59c.06-.06.1-.11.16-.11s.09.07.13.2c.22.75,1.14,3.4,1.37,4.16.27.92,1,3.12,1.21,3.46a.88.88,0,0,0,.8.54h.39c.07,0,.09,0,.09.08v.3c0,.05,0,.08-.11.08s-.47,0-1.42,0-1.4,0-1.67,0a.1.1,0,0,1-.1-.11v-.27c0-.07,0-.08.11-.08h.3c.33,0,.44-.12.35-.45s-.58-1.94-.74-2.42Zm2.77-.42c-.1-.36-1.06-3.32-1.12-3.49s-.06-.17-.1-.17-.09.08-.12.18-1.19,3.18-1.27,3.48Z"/><path class="cls-1" d="M204.88,141.87h-.3a8.78,8.78,0,0,0-1.87.14c-.53.17-.89,1-1.05,1.38,0,.06-.06.07-.12.06l-.21-.06s-.07,0-.05-.1c.12-.43.53-1.95.56-2.08s.07-.19.11-.19a.21.21,0,0,1,.15,0l.15.1a1,1,0,0,0,.67.21c.63,0,1.13.07,2.24.07h.57c1.29,0,1.8,0,2.38-.07a1.21,1.21,0,0,0,.61-.17l.23-.14a.2.2,0,0,1,.14,0c.06,0,.08,0,.1.19s.25,1.61.35,2.13c0,.06,0,.08-.07.09l-.19,0c-.05,0-.06,0-.1-.08-.09-.23-.45-1.14-.84-1.33a7.3,7.3,0,0,0-2-.2H206v3.37c0,.17,0,3.48,0,3.68s.11.48.4.48h.74c.11,0,.12,0,.12.11v.25c0,.06,0,.1-.12.1s-.49,0-1.65,0-1.63,0-1.8,0-.11-.05-.11-.12v-.23c0-.08,0-.11.09-.11h.8a.36.36,0,0,0,.39-.29c0-.34,0-4,0-4.2Z"/></g></g></svg>