<svg xmlns="http://www.w3.org/2000/svg" xmlns:xlink="http://www.w3.org/1999/xlink" preserveAspectRatio="xMidYMid" width="59.625" height="52.6" viewBox="0 0 59.625 52.6"><path fill="#be9f56" d="M15.612,52.602 C22.011,52.602 25.611,48.603 25.611,44.003 C25.611,35.203 17.212,33.203 15.412,32.403 C14.012,31.803 12.412,29.404 12.412,26.803 C12.412,17.003 20.812,8.203 25.011,4.204 C26.611,3.003 26.611,2.603 26.611,1.604 C26.611,0.603 26.011,0.004 24.611,0.004 C23.211,0.004 22.011,1.004 21.011,1.604 C17.412,3.803 0.012,16.403 0.012,35.403 C0.012,46.603 9.412,52.602 15.612,52.602 ZM48.411,52.602 C54.811,52.602 58.611,48.603 58.611,44.003 C58.611,35.203 50.011,33.203 48.211,32.403 C46.811,31.803 45.211,29.404 45.211,26.803 C45.211,17.003 53.611,8.203 58.011,4.204 C59.611,3.003 59.611,2.603 59.611,1.604 C59.611,0.603 59.011,0.004 57.611,0.004 C56.011,0.004 54.811,1.004 53.811,1.604 C50.211,3.803 32.811,16.403 32.811,35.403 C32.811,46.603 42.411,52.602 48.411,52.602 Z"/></svg>